<svg width="191" height="60" viewBox="0 0 191 60" fill="none" xmlns="http://www.w3.org/2000/svg">
<g clip-path="url(#clip0_16_1396)">
<path d="M10.5099 7.63636V28H6.20455V11.723H6.08523L1.42188 14.6463V10.8281L6.46307 7.63636H10.5099ZM18.8995 25.2159L18.7901 26.3097C18.704 27.1847 18.5382 28.0563 18.293 28.9247C18.0543 29.7997 17.8024 30.5919 17.5373 31.3011C17.2788 32.0104 17.07 32.5672 16.9109 32.9716H14.1665C14.266 32.5805 14.4019 32.0336 14.5742 31.331C14.7466 30.6349 14.909 29.8527 15.0614 28.9844C15.2139 28.116 15.31 27.2311 15.3498 26.3295L15.3995 25.2159H18.8995ZM29.7177 7.35795C30.765 7.35795 31.7726 7.53362 32.7404 7.88494C33.7148 8.23627 34.5832 8.7964 35.3455 9.56534C36.1145 10.3343 36.721 11.3551 37.1651 12.6278C37.6159 13.8939 37.8446 15.4484 37.8512 17.2912C37.8512 19.0213 37.6557 20.5658 37.2646 21.9247C36.8801 23.277 36.3266 24.4271 35.604 25.375C34.8815 26.3229 34.0098 27.0455 32.989 27.5426C31.9682 28.0331 30.828 28.2784 29.5685 28.2784C28.2096 28.2784 27.0098 28.0166 25.9691 27.4929C24.9284 26.9626 24.0898 26.2434 23.4535 25.3352C22.8237 24.4205 22.4426 23.393 22.31 22.2528H26.5558C26.7215 22.9953 27.0695 23.572 27.5998 23.983C28.1301 24.3873 28.7863 24.5895 29.5685 24.5895C30.8943 24.5895 31.9019 24.0128 32.5913 22.8594C33.2807 21.6993 33.6287 20.1117 33.6353 18.0966H33.4961C33.1912 18.6932 32.7802 19.2069 32.2631 19.6378C31.7461 20.062 31.1528 20.3902 30.4833 20.6222C29.8204 20.8542 29.1145 20.9702 28.3654 20.9702C27.1656 20.9702 26.0951 20.6884 25.1538 20.125C24.2125 19.5616 23.4701 18.786 22.9265 17.7983C22.3829 16.8106 22.1112 15.6837 22.1112 14.4176C22.1045 13.0521 22.4194 11.8357 23.0558 10.7685C23.6921 9.70123 24.5804 8.866 25.7205 8.26278C26.8673 7.65293 28.1997 7.35132 29.7177 7.35795ZM29.7475 10.7386C29.078 10.7386 28.4814 10.8977 27.9577 11.2159C27.4407 11.5341 27.0297 11.9616 26.7248 12.4986C26.4265 13.0355 26.2807 13.6354 26.2873 14.2983C26.2873 14.9678 26.4331 15.571 26.7248 16.108C27.0231 16.6383 27.4274 17.0625 27.9379 17.3807C28.4549 17.6922 29.0449 17.848 29.7077 17.848C30.2049 17.848 30.6656 17.7552 31.0898 17.5696C31.5141 17.384 31.882 17.1288 32.1935 16.804C32.5117 16.4725 32.7603 16.0914 32.9393 15.6605C33.1183 15.2296 33.2077 14.7723 33.2077 14.2884C33.2011 13.6454 33.0487 13.0554 32.7504 12.5185C32.4521 11.9815 32.0411 11.5507 31.5174 11.2259C30.9937 10.901 30.4038 10.7386 29.7475 10.7386ZM40.8342 28V24.8977L48.0827 18.1861C48.6992 17.5895 49.2163 17.0526 49.6339 16.5753C50.0581 16.098 50.3796 15.6307 50.5984 15.1733C50.8171 14.7093 50.9265 14.2088 50.9265 13.6719C50.9265 13.0753 50.7906 12.5616 50.5188 12.1307C50.247 11.6932 49.8758 11.3584 49.4052 11.1264C48.9345 10.8878 48.4009 10.7685 47.8043 10.7685C47.1812 10.7685 46.6377 10.8944 46.1737 11.1463C45.7096 11.3982 45.3517 11.7595 45.0998 12.2301C44.8479 12.7008 44.7219 13.2609 44.7219 13.9105H40.6353C40.6353 12.5781 40.9369 11.4214 41.5401 10.4403C42.1433 9.45928 42.9885 8.70028 44.0756 8.16335C45.1628 7.62642 46.4156 7.35795 47.8342 7.35795C49.2925 7.35795 50.5619 7.61648 51.6424 8.13352C52.7295 8.64394 53.5747 9.35322 54.1779 10.2614C54.7811 11.1695 55.0827 12.2102 55.0827 13.3835C55.0827 14.1525 54.9303 14.9115 54.6254 15.6605C54.3271 16.4096 53.7934 17.2415 53.0245 18.1562C52.2556 19.0644 51.1718 20.1548 49.7731 21.4276L46.8001 24.3409V24.4801H55.3512V28H40.8342ZM66.2862 28.2784C65.2389 28.2718 64.228 28.0961 63.2536 27.7514C62.2857 27.4067 61.4174 26.8466 60.6484 26.071C59.8795 25.2955 59.2696 24.268 58.8189 22.9886C58.3748 21.7093 58.1527 20.1383 58.1527 18.2756C58.1593 16.5653 58.3549 15.0374 58.7393 13.6918C59.1304 12.3395 59.6873 11.1927 60.4098 10.2514C61.139 9.31013 62.0107 8.59422 63.0249 8.10369C64.0391 7.60653 65.1759 7.35795 66.4354 7.35795C67.7943 7.35795 68.9941 7.62311 70.0348 8.15341C71.0755 8.67708 71.9107 9.38968 72.5405 10.2912C73.1768 11.1927 73.5613 12.2036 73.6939 13.3239H69.4482C69.2824 12.6146 68.9344 12.0578 68.4041 11.6534C67.8738 11.2491 67.2176 11.0469 66.4354 11.0469C65.1096 11.0469 64.102 11.6236 63.4126 12.777C62.7299 13.9304 62.3819 15.4981 62.3686 17.4801H62.5078C62.8127 16.8769 63.2237 16.3632 63.7408 15.9389C64.2644 15.508 64.8577 15.1799 65.5206 14.9545C66.1901 14.7225 66.8961 14.6065 67.6385 14.6065C68.8449 14.6065 69.9188 14.8916 70.8601 15.4616C71.8014 16.0251 72.5438 16.8007 73.0874 17.7884C73.6309 18.776 73.9027 19.9062 73.9027 21.179C73.9027 22.5578 73.5812 23.7841 72.9382 24.858C72.3018 25.9318 71.4103 26.7737 70.2635 27.3835C69.1233 27.9867 67.7976 28.285 66.2862 28.2784ZM66.2663 24.8977C66.9292 24.8977 67.5225 24.7386 68.0462 24.4205C68.5698 24.1023 68.9808 23.6714 69.2791 23.1278C69.5774 22.5843 69.7266 21.9744 69.7266 21.2983C69.7266 20.6222 69.5774 20.0156 69.2791 19.4787C68.9875 18.9418 68.5831 18.5142 68.0661 18.196C67.549 17.8778 66.959 17.7188 66.2962 17.7188C65.799 17.7188 65.3383 17.8116 64.9141 17.9972C64.4964 18.1828 64.1286 18.4413 63.8104 18.7727C63.4988 19.1042 63.2536 19.4886 63.0746 19.9261C62.8956 20.357 62.8061 20.8177 62.8061 21.3082C62.8061 21.9645 62.9553 22.5644 63.2536 23.108C63.5585 23.6515 63.9695 24.0857 64.4865 24.4105C65.0102 24.7353 65.6035 24.8977 66.2663 24.8977ZM80.7511 25.2159L80.6417 26.3097C80.5555 27.1847 80.3898 28.0563 80.1445 28.9247C79.9059 29.7997 79.654 30.5919 79.3888 31.3011C79.1303 32.0104 78.9215 32.5672 78.7624 32.9716H76.0181C76.1175 32.5805 76.2534 32.0336 76.4258 31.331C76.5981 30.6349 76.7605 29.8527 76.913 28.9844C77.0655 28.116 77.1616 27.2311 77.2013 26.3295L77.2511 25.2159H80.7511ZM84.2759 24.4205V21.0298L92.7773 7.63636H95.7006V12.3295H93.9705L88.6112 20.8111V20.9702H100.692V24.4205H84.2759ZM94.0501 28V23.3864L94.1296 21.8849V7.63636H98.1665V28H94.0501ZM111.088 28.2784C109.603 28.2784 108.28 28.0232 107.12 27.5128C105.967 26.9957 105.056 26.2865 104.386 25.3849C103.723 24.4768 103.382 23.4295 103.362 22.2429H107.697C107.724 22.7401 107.886 23.1776 108.184 23.5554C108.489 23.9266 108.894 24.215 109.397 24.4205C109.901 24.6259 110.468 24.7287 111.098 24.7287C111.754 24.7287 112.334 24.6127 112.838 24.3807C113.342 24.1487 113.736 23.8272 114.021 23.4162C114.306 23.0052 114.449 22.5312 114.449 21.9943C114.449 21.4508 114.296 20.9702 113.991 20.5526C113.693 20.1283 113.262 19.7969 112.699 19.5582C112.142 19.3196 111.479 19.2003 110.71 19.2003H108.811V16.0384H110.71C111.359 16.0384 111.933 15.9257 112.43 15.7003C112.934 15.4749 113.325 15.1634 113.603 14.7656C113.882 14.3613 114.021 13.8906 114.021 13.3537C114.021 12.8433 113.898 12.3958 113.653 12.0114C113.414 11.6203 113.076 11.3153 112.639 11.0966C112.208 10.8778 111.704 10.7685 111.127 10.7685C110.544 10.7685 110.011 10.8745 109.527 11.0866C109.043 11.2921 108.655 11.5871 108.363 11.9716C108.072 12.3561 107.916 12.8068 107.896 13.3239H103.77C103.789 12.1506 104.124 11.1165 104.774 10.2216C105.423 9.3267 106.298 8.62737 107.399 8.12358C108.506 7.61316 109.755 7.35795 111.147 7.35795C112.553 7.35795 113.782 7.61316 114.836 8.12358C115.89 8.634 116.709 9.32339 117.292 10.1918C117.882 11.0535 118.174 12.0213 118.167 13.0952C118.174 14.2353 117.819 15.1866 117.103 15.9489C116.394 16.7112 115.469 17.1951 114.329 17.4006V17.5597C115.827 17.7519 116.967 18.2723 117.75 19.1207C118.538 19.9626 118.93 21.0166 118.923 22.2827C118.93 23.4427 118.595 24.4735 117.919 25.375C117.249 26.2765 116.324 26.9858 115.145 27.5028C113.965 28.0199 112.612 28.2784 111.088 28.2784ZM129.833 28.2784C128.786 28.2718 127.775 28.0961 126.8 27.7514C125.833 27.4067 124.964 26.8466 124.195 26.071C123.426 25.2955 122.817 24.268 122.366 22.9886C121.922 21.7093 121.7 20.1383 121.7 18.2756C121.706 16.5653 121.902 15.0374 122.286 13.6918C122.677 12.3395 123.234 11.1927 123.957 10.2514C124.686 9.31013 125.558 8.59422 126.572 8.10369C127.586 7.60653 128.723 7.35795 129.982 7.35795C131.341 7.35795 132.541 7.62311 133.582 8.15341C134.622 8.67708 135.458 9.38968 136.087 10.2912C136.724 11.1927 137.108 12.2036 137.241 13.3239H132.995C132.829 12.6146 132.481 12.0578 131.951 11.6534C131.421 11.2491 130.764 11.0469 129.982 11.0469C128.656 11.0469 127.649 11.6236 126.96 12.777C126.277 13.9304 125.929 15.4981 125.915 17.4801H126.055C126.36 16.8769 126.771 16.3632 127.288 15.9389C127.811 15.508 128.405 15.1799 129.067 14.9545C129.737 14.7225 130.443 14.6065 131.185 14.6065C132.392 14.6065 133.466 14.8916 134.407 15.4616C135.348 16.0251 136.091 16.8007 136.634 17.7884C137.178 18.776 137.45 19.9062 137.45 21.179C137.45 22.5578 137.128 23.7841 136.485 24.858C135.849 25.9318 134.957 26.7737 133.81 27.3835C132.67 27.9867 131.344 28.285 129.833 28.2784ZM129.813 24.8977C130.476 24.8977 131.069 24.7386 131.593 24.4205C132.117 24.1023 132.528 23.6714 132.826 23.1278C133.124 22.5843 133.273 21.9744 133.273 21.2983C133.273 20.6222 133.124 20.0156 132.826 19.4787C132.534 18.9418 132.13 18.5142 131.613 18.196C131.096 17.8778 130.506 17.7188 129.843 17.7188C129.346 17.7188 128.885 17.8116 128.461 17.9972C128.043 18.1828 127.675 18.4413 127.357 18.7727C127.046 19.1042 126.8 19.4886 126.621 19.9261C126.442 20.357 126.353 20.8177 126.353 21.3082C126.353 21.9645 126.502 22.5644 126.8 23.108C127.105 23.6515 127.516 24.0857 128.033 24.4105C128.557 24.7353 129.15 24.8977 129.813 24.8977Z" fill="#4D4D4D"/>
<path d="M1.40909 54V42.3636H5.34091C6.25379 42.3636 7 42.5284 7.57955 42.858C8.16288 43.1837 8.5947 43.625 8.875 44.1818C9.1553 44.7386 9.29545 45.3598 9.29545 46.0455C9.29545 46.7311 9.1553 47.3542 8.875 47.9148C8.59849 48.4754 8.17046 48.9223 7.59091 49.2557C7.01136 49.5852 6.26894 49.75 5.36364 49.75H2.54545V48.5H5.31818C5.94318 48.5 6.44508 48.392 6.82386 48.1761C7.20265 47.9602 7.47727 47.6686 7.64773 47.3011C7.82197 46.9299 7.90909 46.5114 7.90909 46.0455C7.90909 45.5795 7.82197 45.1629 7.64773 44.7955C7.47727 44.428 7.20076 44.1402 6.81818 43.9318C6.43561 43.7197 5.92803 43.6136 5.29545 43.6136H2.81818V54H1.40909ZM13.9517 54.2045C13.3987 54.2045 12.8968 54.1004 12.446 53.892C11.9953 53.6799 11.6373 53.375 11.3722 52.9773C11.107 52.5758 10.9744 52.0909 10.9744 51.5227C10.9744 51.0227 11.0729 50.6174 11.2699 50.3068C11.4669 49.9924 11.7301 49.7462 12.0597 49.5682C12.3892 49.3902 12.7528 49.2576 13.1506 49.1705C13.5521 49.0795 13.9555 49.0076 14.3608 48.9545C14.8911 48.8864 15.321 48.8352 15.6506 48.8011C15.9839 48.7633 16.2263 48.7008 16.3778 48.6136C16.5331 48.5265 16.6108 48.375 16.6108 48.1591V48.1136C16.6108 47.553 16.4574 47.1174 16.1506 46.8068C15.8475 46.4962 15.3873 46.3409 14.7699 46.3409C14.1297 46.3409 13.6278 46.4811 13.2642 46.7614C12.9006 47.0417 12.6449 47.3409 12.4972 47.6591L11.2244 47.2045C11.4517 46.6742 11.7547 46.2614 12.1335 45.9659C12.5161 45.6667 12.9328 45.4583 13.3835 45.3409C13.8381 45.2197 14.285 45.1591 14.7244 45.1591C15.0047 45.1591 15.3267 45.1932 15.6903 45.2614C16.0578 45.3258 16.4119 45.4602 16.7528 45.6648C17.0975 45.8693 17.3835 46.178 17.6108 46.5909C17.8381 47.0038 17.9517 47.5568 17.9517 48.25V54H16.6108V52.8182H16.5426C16.4517 53.0076 16.3002 53.2102 16.0881 53.4261C15.8759 53.642 15.5938 53.8258 15.2415 53.9773C14.8892 54.1288 14.4593 54.2045 13.9517 54.2045ZM14.1562 53C14.6866 53 15.1335 52.8958 15.4972 52.6875C15.8646 52.4792 16.1411 52.2102 16.3267 51.8807C16.5161 51.5511 16.6108 51.2045 16.6108 50.8409V49.6136C16.554 49.6818 16.429 49.7443 16.2358 49.8011C16.0464 49.8542 15.8267 49.9015 15.5767 49.9432C15.3305 49.9811 15.09 50.0152 14.8551 50.0455C14.6241 50.072 14.4366 50.0947 14.2926 50.1136C13.9441 50.1591 13.6184 50.233 13.3153 50.3352C13.0161 50.4337 12.7737 50.5833 12.5881 50.7841C12.4063 50.9811 12.3153 51.25 12.3153 51.5909C12.3153 52.0568 12.4877 52.4091 12.8324 52.6477C13.1809 52.8826 13.6222 53 14.1562 53ZM20.9503 57.2727C20.723 57.2727 20.5204 57.2538 20.3423 57.2159C20.1643 57.1818 20.0412 57.1477 19.973 57.1136L20.3139 55.9318C20.6397 56.0152 20.9276 56.0455 21.1776 56.0227C21.4276 56 21.6491 55.8883 21.8423 55.6875C22.0393 55.4905 22.2192 55.1705 22.3821 54.7273L22.6321 54.0455L19.4048 45.2727H20.8594L23.2685 52.2273H23.3594L25.7685 45.2727H27.223L23.5185 55.2727C23.3518 55.7235 23.1454 56.0966 22.8991 56.392C22.6529 56.6913 22.367 56.9129 22.0412 57.0568C21.7192 57.2008 21.3556 57.2727 20.9503 57.2727ZM28.9929 54V45.2727H30.2884V46.6364H30.402C30.5838 46.1705 30.8774 45.8087 31.2827 45.5511C31.688 45.2898 32.1747 45.1591 32.7429 45.1591C33.3187 45.1591 33.7978 45.2898 34.1804 45.5511C34.5668 45.8087 34.8679 46.1705 35.0838 46.6364H35.1747C35.3982 46.1856 35.7334 45.8277 36.1804 45.5625C36.6274 45.2936 37.1634 45.1591 37.7884 45.1591C38.5687 45.1591 39.2069 45.4034 39.7031 45.892C40.1993 46.3769 40.4474 47.1326 40.4474 48.1591V54H39.1065V48.1591C39.1065 47.5152 38.9304 47.0549 38.5781 46.7784C38.2259 46.5019 37.8111 46.3636 37.3338 46.3636C36.7202 46.3636 36.2448 46.5492 35.9077 46.9205C35.5705 47.2879 35.402 47.7538 35.402 48.3182V54H34.0384V48.0227C34.0384 47.5265 33.8774 47.1269 33.5554 46.8239C33.2334 46.517 32.8187 46.3636 32.3111 46.3636C31.9626 46.3636 31.6368 46.4564 31.3338 46.642C31.0346 46.8277 30.7921 47.0852 30.6065 47.4148C30.4247 47.7405 30.3338 48.1174 30.3338 48.5455V54H28.9929ZM46.5582 54.1818C45.7173 54.1818 44.992 53.9962 44.3821 53.625C43.776 53.25 43.3082 52.7273 42.9787 52.0568C42.6529 51.3826 42.4901 50.5985 42.4901 49.7045C42.4901 48.8106 42.6529 48.0227 42.9787 47.3409C43.3082 46.6553 43.7666 46.1212 44.3537 45.7386C44.9446 45.3523 45.634 45.1591 46.4219 45.1591C46.8764 45.1591 47.3253 45.2348 47.7685 45.3864C48.2116 45.5379 48.6151 45.7841 48.9787 46.125C49.3423 46.4621 49.6321 46.9091 49.848 47.4659C50.0639 48.0227 50.1719 48.7083 50.1719 49.5227V50.0909H43.4446V48.9318H48.8082C48.8082 48.4394 48.7098 48 48.5128 47.6136C48.3196 47.2273 48.0431 46.9223 47.6832 46.6989C47.3272 46.4754 46.9067 46.3636 46.4219 46.3636C45.8878 46.3636 45.4257 46.4962 45.0355 46.7614C44.6491 47.0227 44.3518 47.3636 44.1435 47.7841C43.9351 48.2045 43.831 48.6553 43.831 49.1364V49.9091C43.831 50.5682 43.9446 51.1269 44.1719 51.5852C44.4029 52.0398 44.723 52.3864 45.1321 52.625C45.5412 52.8598 46.0166 52.9773 46.5582 52.9773C46.9105 52.9773 47.2287 52.928 47.5128 52.8295C47.8007 52.7273 48.0488 52.5758 48.2571 52.375C48.4654 52.1705 48.6264 51.9167 48.7401 51.6136L50.0355 51.9773C49.8991 52.4167 49.67 52.803 49.348 53.1364C49.026 53.4659 48.6283 53.7235 48.1548 53.9091C47.6813 54.0909 47.1491 54.1818 46.5582 54.1818ZM53.5526 48.75V54H52.2116V45.2727H53.5071V46.6364H53.6207C53.8253 46.1932 54.1359 45.8371 54.5526 45.5682C54.9692 45.2955 55.5071 45.1591 56.1662 45.1591C56.7571 45.1591 57.2741 45.2803 57.7173 45.5227C58.1605 45.7614 58.5052 46.125 58.7514 46.6136C58.9976 47.0985 59.1207 47.7121 59.1207 48.4545V54H57.7798V48.5455C57.7798 47.8598 57.6018 47.3258 57.2457 46.9432C56.8897 46.5568 56.401 46.3636 55.7798 46.3636C55.3518 46.3636 54.9692 46.4564 54.6321 46.642C54.2988 46.8277 54.0355 47.0985 53.8423 47.4545C53.6491 47.8106 53.5526 48.2424 53.5526 48.75ZM65.3665 45.2727V46.4091H60.8438V45.2727H65.3665ZM62.1619 43.1818H63.5028V51.5C63.5028 51.8788 63.5578 52.1629 63.6676 52.3523C63.7813 52.5379 63.9252 52.6629 64.0994 52.7273C64.2775 52.7879 64.465 52.8182 64.6619 52.8182C64.8097 52.8182 64.9309 52.8106 65.0256 52.7955C65.1203 52.7765 65.196 52.7614 65.2528 52.75L65.5256 53.9545C65.4347 53.9886 65.3078 54.0227 65.1449 54.0568C64.982 54.0947 64.7756 54.1136 64.5256 54.1136C64.1468 54.1136 63.7756 54.0322 63.4119 53.8693C63.0521 53.7064 62.7528 53.4583 62.5142 53.125C62.2794 52.7917 62.1619 52.3712 62.1619 51.8636V43.1818ZM73.4091 47.2273L72.2045 47.5682C72.1288 47.3674 72.017 47.1723 71.8693 46.983C71.7254 46.7898 71.5284 46.6307 71.2784 46.5057C71.0284 46.3807 70.7083 46.3182 70.3182 46.3182C69.7841 46.3182 69.339 46.4413 68.983 46.6875C68.6307 46.9299 68.4545 47.2386 68.4545 47.6136C68.4545 47.947 68.5758 48.2102 68.8182 48.4034C69.0606 48.5966 69.4394 48.7576 69.9545 48.8864L71.25 49.2045C72.0303 49.3939 72.6117 49.6837 72.9943 50.0739C73.3769 50.4602 73.5682 50.9583 73.5682 51.5682C73.5682 52.0682 73.4242 52.5152 73.1364 52.9091C72.8523 53.303 72.4545 53.6136 71.9432 53.8409C71.4318 54.0682 70.8371 54.1818 70.1591 54.1818C69.2689 54.1818 68.5322 53.9886 67.9489 53.6023C67.3655 53.2159 66.9962 52.6515 66.8409 51.9091L68.1136 51.5909C68.2348 52.0606 68.464 52.4129 68.8011 52.6477C69.142 52.8826 69.5871 53 70.1364 53C70.7614 53 71.2576 52.8674 71.625 52.6023C71.9962 52.3333 72.1818 52.0114 72.1818 51.6364C72.1818 51.3333 72.0758 51.0795 71.8636 50.875C71.6515 50.6667 71.3258 50.5114 70.8864 50.4091L69.4318 50.0682C68.6326 49.8788 68.0455 49.5852 67.6705 49.1875C67.2992 48.786 67.1136 48.2841 67.1136 47.6818C67.1136 47.1894 67.2519 46.7538 67.5284 46.375C67.8087 45.9962 68.1894 45.6989 68.6705 45.483C69.1553 45.267 69.7045 45.1591 70.3182 45.1591C71.1818 45.1591 71.8598 45.3485 72.3523 45.7273C72.8485 46.1061 73.2008 46.6061 73.4091 47.2273Z" fill="#717171"/>
</g>
<defs>
<clipPath id="clip0_16_1396">
<rect width="191" height="60" fill="white"/>
</clipPath>
</defs>
</svg>
