<svg width="191" height="60" viewBox="0 0 191 60" fill="none" xmlns="http://www.w3.org/2000/svg">
<g clip-path="url(#clip0_16_1409)">
<path d="M1.34233 24.4205V21.0298L9.84375 7.63636H12.767V12.3295H11.0369L5.67756 20.8111V20.9702H17.7585V24.4205H1.34233ZM11.1165 28V23.3864L11.196 21.8849V7.63636H15.233V28H11.1165ZM28.4425 28.2784C27.3951 28.2718 26.3842 28.0961 25.4098 27.7514C24.442 27.4067 23.5736 26.8466 22.8047 26.071C22.0357 25.2955 21.4259 24.268 20.9751 22.9886C20.531 21.7093 20.3089 20.1383 20.3089 18.2756C20.3156 16.5653 20.5111 15.0374 20.8956 13.6918C21.2867 12.3395 21.8435 11.1927 22.5661 10.2514C23.2952 9.31013 24.1669 8.59422 25.1811 8.10369C26.1953 7.60653 27.3322 7.35795 28.5916 7.35795C29.9505 7.35795 31.1503 7.62311 32.1911 8.15341C33.2318 8.67708 34.067 9.38968 34.6967 10.2912C35.3331 11.1927 35.7176 12.2036 35.8501 13.3239H31.6044C31.4387 12.6146 31.0907 12.0578 30.5604 11.6534C30.0301 11.2491 29.3738 11.0469 28.5916 11.0469C27.2659 11.0469 26.2583 11.6236 25.5689 12.777C24.8861 13.9304 24.5381 15.4981 24.5249 17.4801H24.6641C24.969 16.8769 25.38 16.3632 25.897 15.9389C26.4207 15.508 27.014 15.1799 27.6768 14.9545C28.3464 14.7225 29.0523 14.6065 29.7947 14.6065C31.0012 14.6065 32.075 14.8916 33.0163 15.4616C33.9576 16.0251 34.7 16.8007 35.2436 17.7884C35.7872 18.776 36.0589 19.9062 36.0589 21.179C36.0589 22.5578 35.7375 23.7841 35.0945 24.858C34.4581 25.9318 33.5665 26.7737 32.4197 27.3835C31.2796 27.9867 29.9538 28.285 28.4425 28.2784ZM28.4226 24.8977C29.0855 24.8977 29.6787 24.7386 30.2024 24.4205C30.7261 24.1023 31.1371 23.6714 31.4354 23.1278C31.7337 22.5843 31.8828 21.9744 31.8828 21.2983C31.8828 20.6222 31.7337 20.0156 31.4354 19.4787C31.1437 18.9418 30.7393 18.5142 30.2223 18.196C29.7053 17.8778 29.1153 17.7188 28.4524 17.7188C27.9553 17.7188 27.4946 17.8116 27.0703 17.9972C26.6527 18.1828 26.2848 18.4413 25.9666 18.7727C25.6551 19.1042 25.4098 19.4886 25.2308 19.9261C25.0518 20.357 24.9624 20.8177 24.9624 21.3082C24.9624 21.9645 25.1115 22.5644 25.4098 23.108C25.7147 23.6515 26.1257 24.0857 26.6428 24.4105C27.1664 24.7353 27.7597 24.8977 28.4226 24.8977ZM42.9073 25.2159L42.7979 26.3097C42.7118 27.1847 42.546 28.0563 42.3008 28.9247C42.0621 29.7997 41.8103 30.5919 41.5451 31.3011C41.2866 32.0104 41.0778 32.5672 40.9187 32.9716H38.1744C38.2738 32.5805 38.4097 32.0336 38.582 31.331C38.7544 30.6349 38.9168 29.8527 39.0692 28.9844C39.2217 28.116 39.3178 27.2311 39.3576 26.3295L39.4073 25.2159H42.9073ZM53.6112 28.2784C52.1263 28.2784 50.8039 28.0232 49.6438 27.5128C48.4904 26.9957 47.579 26.2865 46.9094 25.3849C46.2466 24.4768 45.9052 23.4295 45.8853 22.2429H50.2205C50.247 22.7401 50.4094 23.1776 50.7077 23.5554C51.0127 23.9266 51.417 24.215 51.9208 24.4205C52.4246 24.6259 52.9914 24.7287 53.6211 24.7287C54.2773 24.7287 54.8574 24.6127 55.3612 24.3807C55.8649 24.1487 56.2594 23.8272 56.5444 23.4162C56.8294 23.0052 56.9719 22.5312 56.9719 21.9943C56.9719 21.4508 56.8195 20.9702 56.5146 20.5526C56.2163 20.1283 55.7854 19.7969 55.2219 19.5582C54.6651 19.3196 54.0022 19.2003 53.2333 19.2003H51.3342V16.0384H53.2333C53.8829 16.0384 54.4563 15.9257 54.9535 15.7003C55.4573 15.4749 55.8484 15.1634 56.1268 14.7656C56.4052 14.3613 56.5444 13.8906 56.5444 13.3537C56.5444 12.8433 56.4218 12.3958 56.1765 12.0114C55.9379 11.6203 55.5998 11.3153 55.1623 11.0966C54.7314 10.8778 54.2276 10.7685 53.6509 10.7685C53.0676 10.7685 52.534 10.8745 52.0501 11.0866C51.5662 11.2921 51.1784 11.5871 50.8867 11.9716C50.5951 12.3561 50.4393 12.8068 50.4194 13.3239H46.293C46.3129 12.1506 46.6476 11.1165 47.2972 10.2216C47.9469 9.3267 48.8219 8.62737 49.9222 8.12358C51.0292 7.61316 52.2788 7.35795 53.6708 7.35795C55.0761 7.35795 56.3058 7.61316 57.3597 8.12358C58.4137 8.634 59.2324 9.32339 59.8157 10.1918C60.4057 11.0535 60.6973 12.0213 60.6907 13.0952C60.6973 14.2353 60.3427 15.1866 59.6268 15.9489C58.9175 16.7112 57.9928 17.1951 56.8526 17.4006V17.5597C58.3507 17.7519 59.4909 18.2723 60.2731 19.1207C61.0619 19.9626 61.453 21.0166 61.4464 22.2827C61.453 23.4427 61.1183 24.4735 60.4421 25.375C59.7726 26.2765 58.8479 26.9858 57.668 27.5028C56.488 28.0199 55.1358 28.2784 53.6112 28.2784ZM64.5412 28V24.8977L71.7898 18.1861C72.4063 17.5895 72.9233 17.0526 73.3409 16.5753C73.7652 16.098 74.0866 15.6307 74.3054 15.1733C74.5241 14.7093 74.6335 14.2088 74.6335 13.6719C74.6335 13.0753 74.4976 12.5616 74.2259 12.1307C73.9541 11.6932 73.5829 11.3584 73.1122 11.1264C72.6416 10.8878 72.108 10.7685 71.5114 10.7685C70.8883 10.7685 70.3447 10.8944 69.8807 11.1463C69.4167 11.3982 69.0587 11.7595 68.8068 12.2301C68.5549 12.7008 68.429 13.2609 68.429 13.9105H64.3423C64.3423 12.5781 64.6439 11.4214 65.2472 10.4403C65.8504 9.45928 66.6955 8.70028 67.7827 8.16335C68.8698 7.62642 70.1226 7.35795 71.5412 7.35795C72.9995 7.35795 74.2689 7.61648 75.3494 8.13352C76.4366 8.64394 77.2817 9.35322 77.8849 10.2614C78.4882 11.1695 78.7898 12.2102 78.7898 13.3835C78.7898 14.1525 78.6373 14.9115 78.3324 15.6605C78.0341 16.4096 77.5005 17.2415 76.7315 18.1562C75.9626 19.0644 74.8788 20.1548 73.4801 21.4276L70.5071 24.3409V24.4801H79.0582V28H64.5412ZM89.7745 28.2784C88.2433 28.2784 86.881 28.0298 85.6879 27.5327C84.5013 27.0289 83.57 26.3428 82.8938 25.4744C82.2177 24.6061 81.8796 23.6217 81.8796 22.5213C81.8796 21.6728 82.0719 20.8939 82.4563 20.1847C82.8474 19.4688 83.3777 18.8755 84.0472 18.4048C84.7167 17.9276 85.4658 17.6226 86.2944 17.4901V17.3509C85.2073 17.1321 84.3256 16.6051 83.6495 15.7699C82.9734 14.928 82.6353 13.9503 82.6353 12.8366C82.6353 11.7827 82.9435 10.8447 83.56 10.0227C84.1765 9.19413 85.0217 8.54451 86.0955 8.07386C87.176 7.59659 88.4023 7.35795 89.7745 7.35795C91.1467 7.35795 92.3697 7.59659 93.4435 8.07386C94.524 8.55114 95.3725 9.20407 95.989 10.0327C96.6055 10.8546 96.917 11.7893 96.9237 12.8366C96.917 13.9569 96.5723 14.9347 95.8896 15.7699C95.2068 16.6051 94.3318 17.1321 93.2646 17.3509V17.4901C94.0799 17.6226 94.819 17.9276 95.4819 18.4048C96.1514 18.8755 96.6817 19.4688 97.0728 20.1847C97.4705 20.8939 97.6727 21.6728 97.6793 22.5213C97.6727 23.6217 97.3313 24.6061 96.6552 25.4744C95.979 26.3428 95.0444 27.0289 93.8512 27.5327C92.6647 28.0298 91.3058 28.2784 89.7745 28.2784ZM89.7745 25.1165C90.4573 25.1165 91.0539 24.9938 91.5643 24.7486C92.0747 24.4967 92.4724 24.152 92.7575 23.7145C93.0491 23.2704 93.195 22.7599 93.195 22.1832C93.195 21.5933 93.0458 21.0729 92.7475 20.6222C92.4492 20.1648 92.0449 19.8068 91.5344 19.5483C91.024 19.2831 90.4374 19.1506 89.7745 19.1506C89.1183 19.1506 88.5316 19.2831 88.0146 19.5483C87.4975 19.8068 87.0898 20.1648 86.7915 20.6222C86.4999 21.0729 86.354 21.5933 86.354 22.1832C86.354 22.7599 86.4966 23.2704 86.7816 23.7145C87.0666 24.152 87.4677 24.4967 87.9847 24.7486C88.5018 24.9938 89.0984 25.1165 89.7745 25.1165ZM89.7745 16.0185C90.3446 16.0185 90.8517 15.9025 91.2958 15.6705C91.7399 15.4384 92.0879 15.117 92.3398 14.706C92.5917 14.295 92.7177 13.821 92.7177 13.2841C92.7177 12.7538 92.5917 12.2898 92.3398 11.892C92.0879 11.4877 91.7433 11.1728 91.3058 10.9474C90.8683 10.7154 90.3578 10.5994 89.7745 10.5994C89.1978 10.5994 88.6874 10.7154 88.2433 10.9474C87.7991 11.1728 87.4511 11.4877 87.1992 11.892C86.954 12.2898 86.8313 12.7538 86.8313 13.2841C86.8313 13.821 86.9573 14.295 87.2092 14.706C87.4611 15.117 87.8091 15.4384 88.2532 15.6705C88.6973 15.9025 89.2044 16.0185 89.7745 16.0185Z" fill="#4D4D4D"/>
<path d="M10.7727 46H9.36364C9.2803 45.5947 9.13447 45.2386 8.92614 44.9318C8.72159 44.625 8.47159 44.3674 8.17614 44.1591C7.88447 43.947 7.56061 43.7879 7.20455 43.6818C6.84849 43.5758 6.47727 43.5227 6.09091 43.5227C5.38636 43.5227 4.74811 43.7008 4.17614 44.0568C3.60795 44.4129 3.1553 44.9375 2.81818 45.6307C2.48485 46.3239 2.31818 47.1742 2.31818 48.1818C2.31818 49.1894 2.48485 50.0398 2.81818 50.733C3.1553 51.4261 3.60795 51.9508 4.17614 52.3068C4.74811 52.6629 5.38636 52.8409 6.09091 52.8409C6.47727 52.8409 6.84849 52.7879 7.20455 52.6818C7.56061 52.5758 7.88447 52.4186 8.17614 52.2102C8.47159 51.9981 8.72159 51.7386 8.92614 51.4318C9.13447 51.1212 9.2803 50.7652 9.36364 50.3636H10.7727C10.6667 50.9583 10.4735 51.4905 10.1932 51.9602C9.91288 52.4299 9.56439 52.8295 9.14773 53.1591C8.73106 53.4848 8.26326 53.733 7.74432 53.9034C7.22917 54.0739 6.67803 54.1591 6.09091 54.1591C5.09849 54.1591 4.21591 53.9167 3.44318 53.4318C2.67045 52.947 2.0625 52.2576 1.61932 51.3636C1.17614 50.4697 0.954545 49.4091 0.954545 48.1818C0.954545 46.9545 1.17614 45.8939 1.61932 45C2.0625 44.1061 2.67045 43.4167 3.44318 42.9318C4.21591 42.447 5.09849 42.2045 6.09091 42.2045C6.67803 42.2045 7.22917 42.2898 7.74432 42.4602C8.26326 42.6307 8.73106 42.8807 9.14773 43.2102C9.56439 43.536 9.91288 43.9337 10.1932 44.4034C10.4735 44.8693 10.6667 45.4015 10.7727 46ZM14.2088 42.3636V54H12.8679V42.3636H14.2088ZM22.1648 50.4318V45.2727H23.5057V54H22.1648V52.5227H22.0739C21.8693 52.9659 21.5511 53.3428 21.1193 53.6534C20.6875 53.9602 20.142 54.1136 19.483 54.1136C18.9375 54.1136 18.4527 53.9943 18.0284 53.7557C17.6042 53.5133 17.2708 53.1496 17.0284 52.6648C16.786 52.1761 16.6648 51.5606 16.6648 50.8182V45.2727H18.0057V50.7273C18.0057 51.3636 18.1837 51.8712 18.5398 52.25C18.8996 52.6288 19.358 52.8182 19.9148 52.8182C20.2481 52.8182 20.5871 52.733 20.9318 52.5625C21.2803 52.392 21.572 52.1307 21.8068 51.7784C22.0455 51.4261 22.1648 50.9773 22.1648 50.4318ZM26.1435 54V42.3636H27.4844V46.6591H27.598C27.6965 46.5076 27.8329 46.3144 28.0071 46.0795C28.1851 45.8409 28.4389 45.6288 28.7685 45.4432C29.1018 45.2538 29.5526 45.1591 30.1207 45.1591C30.8556 45.1591 31.5033 45.3428 32.0639 45.7102C32.6245 46.0777 33.062 46.5985 33.3764 47.2727C33.6908 47.947 33.848 48.7424 33.848 49.6591C33.848 50.5833 33.6908 51.3845 33.3764 52.0625C33.062 52.7367 32.6264 53.2595 32.0696 53.6307C31.5128 53.9981 30.8707 54.1818 30.1435 54.1818C29.5829 54.1818 29.134 54.089 28.7969 53.9034C28.4598 53.714 28.2003 53.5 28.0185 53.2614C27.8366 53.0189 27.6965 52.8182 27.598 52.6591H27.4389V54H26.1435ZM27.4616 49.6364C27.4616 50.2955 27.5582 50.8769 27.7514 51.3807C27.9446 51.8807 28.2268 52.2727 28.598 52.5568C28.9692 52.8371 29.4238 52.9773 29.9616 52.9773C30.5223 52.9773 30.9901 52.8295 31.3651 52.5341C31.7438 52.2348 32.0279 51.8333 32.2173 51.3295C32.4105 50.822 32.5071 50.2576 32.5071 49.6364C32.5071 49.0227 32.4124 48.4697 32.223 47.9773C32.0374 47.4811 31.7552 47.089 31.3764 46.8011C31.0014 46.5095 30.5298 46.3636 29.9616 46.3636C29.4162 46.3636 28.9579 46.5019 28.5866 46.7784C28.2154 47.0511 27.9351 47.4337 27.7457 47.9261C27.5563 48.4148 27.4616 48.9848 27.4616 49.6364ZM42.081 47.2273L40.8764 47.5682C40.8007 47.3674 40.6889 47.1723 40.5412 46.983C40.3973 46.7898 40.2003 46.6307 39.9503 46.5057C39.7003 46.3807 39.3802 46.3182 38.9901 46.3182C38.456 46.3182 38.0109 46.4413 37.6548 46.6875C37.3026 46.9299 37.1264 47.2386 37.1264 47.6136C37.1264 47.947 37.2476 48.2102 37.4901 48.4034C37.7325 48.5966 38.1113 48.7576 38.6264 48.8864L39.9219 49.2045C40.7022 49.3939 41.2836 49.6837 41.6662 50.0739C42.0488 50.4602 42.2401 50.9583 42.2401 51.5682C42.2401 52.0682 42.0961 52.5152 41.8082 52.9091C41.5241 53.303 41.1264 53.6136 40.6151 53.8409C40.1037 54.0682 39.509 54.1818 38.831 54.1818C37.9408 54.1818 37.2041 53.9886 36.6207 53.6023C36.0374 53.2159 35.6681 52.6515 35.5128 51.9091L36.7855 51.5909C36.9067 52.0606 37.1359 52.4129 37.473 52.6477C37.8139 52.8826 38.259 53 38.8082 53C39.4332 53 39.9295 52.8674 40.2969 52.6023C40.6681 52.3333 40.8537 52.0114 40.8537 51.6364C40.8537 51.3333 40.7476 51.0795 40.5355 50.875C40.3234 50.6667 39.9976 50.5114 39.5582 50.4091L38.1037 50.0682C37.3045 49.8788 36.7173 49.5852 36.3423 49.1875C35.9711 48.786 35.7855 48.2841 35.7855 47.6818C35.7855 47.1894 35.9238 46.7538 36.2003 46.375C36.4806 45.9962 36.8613 45.6989 37.3423 45.483C37.8272 45.267 38.3764 45.1591 38.9901 45.1591C39.8537 45.1591 40.5317 45.3485 41.0241 45.7273C41.5204 46.1061 41.8726 46.6061 42.081 47.2273Z" fill="#717171"/>
</g>
<defs>
<clipPath id="clip0_16_1409">
<rect width="191" height="60" fill="white"/>
</clipPath>
</defs>
</svg>
