<svg width="191" height="60" viewBox="0 0 191 60" fill="none" xmlns="http://www.w3.org/2000/svg">
<g clip-path="url(#clip0_16_1418)">
<path d="M1.65057 28V24.8977L8.89915 18.1861C9.51563 17.5895 10.0327 17.0526 10.4503 16.5753C10.8745 16.098 11.196 15.6307 11.4148 15.1733C11.6335 14.7093 11.7429 14.2088 11.7429 13.6719C11.7429 13.0753 11.607 12.5616 11.3352 12.1307C11.0634 11.6932 10.6922 11.3584 10.2216 11.1264C9.75095 10.8878 9.21733 10.7685 8.62074 10.7685C7.99763 10.7685 7.45407 10.8944 6.99006 11.1463C6.52604 11.3982 6.16809 11.7595 5.91619 12.2301C5.6643 12.7008 5.53835 13.2609 5.53835 13.9105H1.4517C1.4517 12.5781 1.75331 11.4214 2.35653 10.4403C2.95975 9.45928 3.80492 8.70028 4.89205 8.16335C5.97917 7.62642 7.23201 7.35795 8.65057 7.35795C10.1089 7.35795 11.3783 7.61648 12.4588 8.13352C13.5459 8.64394 14.3911 9.35322 14.9943 10.2614C15.5975 11.1695 15.8991 12.2102 15.8991 13.3835C15.8991 14.1525 15.7467 14.9115 15.4418 15.6605C15.1435 16.4096 14.6098 17.2415 13.8409 18.1562C13.072 19.0644 11.9882 20.1548 10.5895 21.4276L7.61648 24.3409V24.4801H16.1676V28H1.65057ZM23.9308 25.2159L23.8214 26.3097C23.7352 27.1847 23.5695 28.0563 23.3242 28.9247C23.0856 29.7997 22.8337 30.5919 22.5685 31.3011C22.31 32.0104 22.1012 32.5672 21.9421 32.9716H19.1978C19.2972 32.5805 19.4331 32.0336 19.6055 31.331C19.7778 30.6349 19.9402 29.8527 20.0927 28.9844C20.2451 28.116 20.3413 27.2311 20.381 26.3295L20.4308 25.2159H23.9308ZM27.7638 28V24.8977L35.0124 18.1861C35.6289 17.5895 36.146 17.0526 36.5636 16.5753C36.9878 16.098 37.3093 15.6307 37.5281 15.1733C37.7468 14.7093 37.8562 14.2088 37.8562 13.6719C37.8562 13.0753 37.7203 12.5616 37.4485 12.1307C37.1767 11.6932 36.8055 11.3584 36.3349 11.1264C35.8642 10.8878 35.3306 10.7685 34.734 10.7685C34.1109 10.7685 33.5674 10.8944 33.1033 11.1463C32.6393 11.3982 32.2814 11.7595 32.0295 12.2301C31.7776 12.7008 31.6516 13.2609 31.6516 13.9105H27.565C27.565 12.5781 27.8666 11.4214 28.4698 10.4403C29.073 9.45928 29.9182 8.70028 31.0053 8.16335C32.0924 7.62642 33.3453 7.35795 34.7638 7.35795C36.2222 7.35795 37.4916 7.61648 38.5721 8.13352C39.6592 8.64394 40.5044 9.35322 41.1076 10.2614C41.7108 11.1695 42.0124 12.2102 42.0124 13.3835C42.0124 14.1525 41.86 14.9115 41.555 15.6605C41.2567 16.4096 40.7231 17.2415 39.9542 18.1562C39.1853 19.0644 38.1014 20.1548 36.7028 21.4276L33.7298 24.3409V24.4801H42.2809V28H27.7638ZM44.6548 24.4205V21.0298L53.1562 7.63636H56.0795V12.3295H54.3494L48.9901 20.8111V20.9702H61.071V24.4205H44.6548ZM54.429 28V23.3864L54.5085 21.8849V7.63636H58.5455V28H54.429ZM71.3771 28.2784C69.9718 28.2784 68.719 28.0199 67.6186 27.5028C66.5249 26.9858 65.6565 26.2732 65.0135 25.3651C64.3705 24.4569 64.0357 23.4162 64.0092 22.2429H68.1854C68.2318 23.0317 68.5632 23.6714 69.1797 24.1619C69.7962 24.6525 70.5286 24.8977 71.3771 24.8977C72.0533 24.8977 72.6499 24.7486 73.1669 24.4503C73.6906 24.1454 74.0982 23.7244 74.3899 23.1875C74.6882 22.6439 74.8374 22.0208 74.8374 21.3182C74.8374 20.6023 74.6849 19.9725 74.38 19.429C74.0817 18.8854 73.6674 18.4612 73.1371 18.1562C72.6068 17.8513 72.0002 17.6955 71.3175 17.6889C70.7209 17.6889 70.1409 17.8116 69.5774 18.0568C69.0206 18.3021 68.5864 18.6368 68.2749 19.0611L64.4467 18.375L65.4112 7.63636H77.8601V11.1562H68.9609L68.4339 16.2571H68.5533C68.9112 15.7533 69.4515 15.3357 70.174 15.0043C70.8965 14.6728 71.7053 14.5071 72.6001 14.5071C73.8265 14.5071 74.9202 14.7955 75.8814 15.3722C76.8426 15.9489 77.6016 16.741 78.1584 17.7486C78.7152 18.7495 78.9903 19.9029 78.9837 21.2088C78.9903 22.581 78.6721 23.8007 78.0291 24.8679C77.3928 25.9285 76.5012 26.7637 75.3544 27.3736C74.2143 27.9768 72.8885 28.2784 71.3771 28.2784ZM85.9737 25.2159L85.8643 26.3097C85.7782 27.1847 85.6125 28.0563 85.3672 28.9247C85.1286 29.7997 84.8767 30.5919 84.6115 31.3011C84.353 32.0104 84.1442 32.5672 83.9851 32.9716H81.2408C81.3402 32.5805 81.4761 32.0336 81.6484 31.331C81.8208 30.6349 81.9832 29.8527 82.1357 28.9844C82.2881 28.116 82.3842 27.2311 82.424 26.3295L82.4737 25.2159H85.9737ZM96.6776 28.2784C95.1927 28.2784 93.8703 28.0232 92.7102 27.5128C91.5568 26.9957 90.6454 26.2865 89.9759 25.3849C89.313 24.4768 88.9716 23.4295 88.9517 22.2429H93.2869C93.3134 22.7401 93.4759 23.1776 93.7741 23.5554C94.0791 23.9266 94.4834 24.215 94.9872 24.4205C95.491 24.6259 96.0578 24.7287 96.6875 24.7287C97.3438 24.7287 97.9238 24.6127 98.4276 24.3807C98.9313 24.1487 99.3258 23.8272 99.6108 23.4162C99.8958 23.0052 100.038 22.5312 100.038 21.9943C100.038 21.4508 99.8859 20.9702 99.581 20.5526C99.2827 20.1283 98.8518 19.7969 98.2884 19.5582C97.7315 19.3196 97.0687 19.2003 96.2997 19.2003H94.4006V16.0384H96.2997C96.9493 16.0384 97.5227 15.9257 98.0199 15.7003C98.5237 15.4749 98.9148 15.1634 99.1932 14.7656C99.4716 14.3613 99.6108 13.8906 99.6108 13.3537C99.6108 12.8433 99.4882 12.3958 99.2429 12.0114C99.0043 11.6203 98.6662 11.3153 98.2287 11.0966C97.7978 10.8778 97.294 10.7685 96.7173 10.7685C96.134 10.7685 95.6004 10.8745 95.1165 11.0866C94.6326 11.2921 94.2448 11.5871 93.9531 11.9716C93.6615 12.3561 93.5057 12.8068 93.4858 13.3239H89.3594C89.3793 12.1506 89.714 11.1165 90.3636 10.2216C91.0133 9.3267 91.8883 8.62737 92.9886 8.12358C94.0956 7.61316 95.3452 7.35795 96.7372 7.35795C98.1425 7.35795 99.3722 7.61316 100.426 8.12358C101.48 8.634 102.299 9.32339 102.882 10.1918C103.472 11.0535 103.764 12.0213 103.757 13.0952C103.764 14.2353 103.409 15.1866 102.693 15.9489C101.984 16.7112 101.059 17.1951 99.919 17.4006V17.5597C101.417 17.7519 102.557 18.2723 103.339 19.1207C104.128 19.9626 104.519 21.0166 104.513 22.2827C104.519 23.4427 104.185 24.4735 103.509 25.375C102.839 26.2765 101.914 26.9858 100.734 27.5028C99.5545 28.0199 98.2022 28.2784 96.6776 28.2784ZM107.299 24.4205V21.0298L115.801 7.63636H118.724V12.3295H116.994L111.635 20.8111V20.9702H123.716V24.4205H107.299ZM117.074 28V23.3864L117.153 21.8849V7.63636H121.19V28H117.074ZM135.17 7.63636V28H130.865V11.723H130.745L126.082 14.6463V10.8281L131.123 7.63636H135.17Z" fill="#4D4D4D"/>
<path d="M1.40909 42.3636H3.09091L7.04545 52.0227H7.18182L11.1364 42.3636H12.8182V54H11.5V45.1591H11.3864L7.75 54H6.47727L2.84091 45.1591H2.72727V54H1.40909V42.3636ZM19.1207 54.1818C18.2798 54.1818 17.5545 53.9962 16.9446 53.625C16.3385 53.25 15.8707 52.7273 15.5412 52.0568C15.2154 51.3826 15.0526 50.5985 15.0526 49.7045C15.0526 48.8106 15.2154 48.0227 15.5412 47.3409C15.8707 46.6553 16.3291 46.1212 16.9162 45.7386C17.5071 45.3523 18.1965 45.1591 18.9844 45.1591C19.4389 45.1591 19.8878 45.2348 20.331 45.3864C20.7741 45.5379 21.1776 45.7841 21.5412 46.125C21.9048 46.4621 22.1946 46.9091 22.4105 47.4659C22.6264 48.0227 22.7344 48.7083 22.7344 49.5227V50.0909H16.0071V48.9318H21.3707C21.3707 48.4394 21.2723 48 21.0753 47.6136C20.8821 47.2273 20.6056 46.9223 20.2457 46.6989C19.8897 46.4754 19.4692 46.3636 18.9844 46.3636C18.4503 46.3636 17.9882 46.4962 17.598 46.7614C17.2116 47.0227 16.9143 47.3636 16.706 47.7841C16.4976 48.2045 16.3935 48.6553 16.3935 49.1364V49.9091C16.3935 50.5682 16.5071 51.1269 16.7344 51.5852C16.9654 52.0398 17.2855 52.3864 17.6946 52.625C18.1037 52.8598 18.5791 52.9773 19.1207 52.9773C19.473 52.9773 19.7912 52.928 20.0753 52.8295C20.3632 52.7273 20.6113 52.5758 20.8196 52.375C21.0279 52.1705 21.1889 51.9167 21.3026 51.6136L22.598 51.9773C22.4616 52.4167 22.2325 52.803 21.9105 53.1364C21.5885 53.4659 21.1908 53.7235 20.7173 53.9091C20.2438 54.0909 19.7116 54.1818 19.1207 54.1818ZM24.7741 54V45.2727H26.0696V46.6364H26.1832C26.3651 46.1705 26.6586 45.8087 27.0639 45.5511C27.4692 45.2898 27.956 45.1591 28.5241 45.1591C29.0999 45.1591 29.5791 45.2898 29.9616 45.5511C30.348 45.8087 30.6491 46.1705 30.8651 46.6364H30.956C31.1795 46.1856 31.5147 45.8277 31.9616 45.5625C32.4086 45.2936 32.9446 45.1591 33.5696 45.1591C34.3499 45.1591 34.9882 45.4034 35.4844 45.892C35.9806 46.3769 36.2287 47.1326 36.2287 48.1591V54H34.8878V48.1591C34.8878 47.5152 34.7116 47.0549 34.3594 46.7784C34.0071 46.5019 33.5923 46.3636 33.1151 46.3636C32.5014 46.3636 32.026 46.5492 31.6889 46.9205C31.3518 47.2879 31.1832 47.7538 31.1832 48.3182V54H29.8196V48.0227C29.8196 47.5265 29.6586 47.1269 29.3366 46.8239C29.0147 46.517 28.5999 46.3636 28.0923 46.3636C27.7438 46.3636 27.4181 46.4564 27.1151 46.642C26.8158 46.8277 26.5734 47.0852 26.3878 47.4148C26.206 47.7405 26.1151 48.1174 26.1151 48.5455V54H24.7741ZM38.8622 54V42.3636H40.2031V46.6591H40.3168C40.4152 46.5076 40.5516 46.3144 40.7259 46.0795C40.9039 45.8409 41.1577 45.6288 41.4872 45.4432C41.8205 45.2538 42.2713 45.1591 42.8395 45.1591C43.5743 45.1591 44.2221 45.3428 44.7827 45.7102C45.3433 46.0777 45.7808 46.5985 46.0952 47.2727C46.4096 47.947 46.5668 48.7424 46.5668 49.6591C46.5668 50.5833 46.4096 51.3845 46.0952 52.0625C45.7808 52.7367 45.3452 53.2595 44.7884 53.6307C44.2315 53.9981 43.5895 54.1818 42.8622 54.1818C42.3016 54.1818 41.8527 54.089 41.5156 53.9034C41.1785 53.714 40.919 53.5 40.7372 53.2614C40.5554 53.0189 40.4152 52.8182 40.3168 52.6591H40.1577V54H38.8622ZM40.1804 49.6364C40.1804 50.2955 40.277 50.8769 40.4702 51.3807C40.6634 51.8807 40.9455 52.2727 41.3168 52.5568C41.688 52.8371 42.1425 52.9773 42.6804 52.9773C43.241 52.9773 43.7088 52.8295 44.0838 52.5341C44.4626 52.2348 44.7467 51.8333 44.9361 51.3295C45.1293 50.822 45.2259 50.2576 45.2259 49.6364C45.2259 49.0227 45.1312 48.4697 44.9418 47.9773C44.7562 47.4811 44.474 47.089 44.0952 46.8011C43.7202 46.5095 43.2486 46.3636 42.6804 46.3636C42.1349 46.3636 41.6766 46.5019 41.3054 46.7784C40.9342 47.0511 40.6539 47.4337 40.4645 47.9261C40.2751 48.4148 40.1804 48.9848 40.1804 49.6364ZM52.277 54.1818C51.4361 54.1818 50.7107 53.9962 50.1009 53.625C49.4948 53.25 49.027 52.7273 48.6974 52.0568C48.3717 51.3826 48.2088 50.5985 48.2088 49.7045C48.2088 48.8106 48.3717 48.0227 48.6974 47.3409C49.027 46.6553 49.4853 46.1212 50.0724 45.7386C50.6634 45.3523 51.3527 45.1591 52.1406 45.1591C52.5952 45.1591 53.044 45.2348 53.4872 45.3864C53.9304 45.5379 54.3338 45.7841 54.6974 46.125C55.0611 46.4621 55.3509 46.9091 55.5668 47.4659C55.7827 48.0227 55.8906 48.7083 55.8906 49.5227V50.0909H49.1634V48.9318H54.527C54.527 48.4394 54.4285 48 54.2315 47.6136C54.0384 47.2273 53.7618 46.9223 53.402 46.6989C53.0459 46.4754 52.6255 46.3636 52.1406 46.3636C51.6065 46.3636 51.1444 46.4962 50.7543 46.7614C50.3679 47.0227 50.0705 47.3636 49.8622 47.7841C49.6539 48.2045 49.5497 48.6553 49.5497 49.1364V49.9091C49.5497 50.5682 49.6634 51.1269 49.8906 51.5852C50.1217 52.0398 50.4418 52.3864 50.8509 52.625C51.2599 52.8598 51.7353 52.9773 52.277 52.9773C52.6293 52.9773 52.9474 52.928 53.2315 52.8295C53.5194 52.7273 53.7675 52.5758 53.9759 52.375C54.1842 52.1705 54.3452 51.9167 54.4588 51.6136L55.7543 51.9773C55.6179 52.4167 55.3887 52.803 55.0668 53.1364C54.7448 53.4659 54.3471 53.7235 53.8736 53.9091C53.4001 54.0909 52.8679 54.1818 52.277 54.1818ZM57.9304 54V45.2727H59.2259V46.5909H59.3168C59.4759 46.1591 59.7637 45.8087 60.1804 45.5398C60.5971 45.2708 61.0668 45.1364 61.5895 45.1364C61.688 45.1364 61.8111 45.1383 61.9588 45.142C62.1065 45.1458 62.2183 45.1515 62.294 45.1591V46.5227C62.2486 46.5114 62.1444 46.4943 61.9815 46.4716C61.8224 46.4451 61.6539 46.4318 61.4759 46.4318C61.0516 46.4318 60.6728 46.5208 60.3395 46.6989C60.0099 46.8731 59.7486 47.1155 59.5554 47.4261C59.366 47.733 59.2713 48.0833 59.2713 48.4773V54H57.9304ZM70.0653 47.2273L68.8608 47.5682C68.785 47.3674 68.6733 47.1723 68.5256 46.983C68.3816 46.7898 68.1847 46.6307 67.9347 46.5057C67.6847 46.3807 67.3646 46.3182 66.9744 46.3182C66.4403 46.3182 65.9953 46.4413 65.6392 46.6875C65.2869 46.9299 65.1108 47.2386 65.1108 47.6136C65.1108 47.947 65.232 48.2102 65.4744 48.4034C65.7169 48.5966 66.0956 48.7576 66.6108 48.8864L67.9062 49.2045C68.6866 49.3939 69.268 49.6837 69.6506 50.0739C70.0331 50.4602 70.2244 50.9583 70.2244 51.5682C70.2244 52.0682 70.0805 52.5152 69.7926 52.9091C69.5085 53.303 69.1108 53.6136 68.5994 53.8409C68.0881 54.0682 67.4934 54.1818 66.8153 54.1818C65.9252 54.1818 65.1884 53.9886 64.6051 53.6023C64.0218 53.2159 63.6525 52.6515 63.4972 51.9091L64.7699 51.5909C64.8911 52.0606 65.1203 52.4129 65.4574 52.6477C65.7983 52.8826 66.2434 53 66.7926 53C67.4176 53 67.9138 52.8674 68.2812 52.6023C68.6525 52.3333 68.8381 52.0114 68.8381 51.6364C68.8381 51.3333 68.732 51.0795 68.5199 50.875C68.3078 50.6667 67.982 50.5114 67.5426 50.4091L66.0881 50.0682C65.2888 49.8788 64.7017 49.5852 64.3267 49.1875C63.9555 48.786 63.7699 48.2841 63.7699 47.6818C63.7699 47.1894 63.9081 46.7538 64.1847 46.375C64.465 45.9962 64.8456 45.6989 65.3267 45.483C65.8116 45.267 66.3608 45.1591 66.9744 45.1591C67.8381 45.1591 68.5161 45.3485 69.0085 45.7273C69.5047 46.1061 69.857 46.6061 70.0653 47.2273Z" fill="#717171"/>
</g>
<defs>
<clipPath id="clip0_16_1418">
<rect width="191" height="60" fill="white"/>
</clipPath>
</defs>
</svg>
