<svg width="60" height="48" viewBox="0 0 60 48" fill="none" xmlns="http://www.w3.org/2000/svg">
<g filter="url(#filter0_d_211_847)">
<g clip-path="url(#clip0_211_847)">
<path d="M16.3431 13.8468C14.3124 13.8468 12.3649 14.6535 10.9289 16.0894L6.24264 20.7757C4.8067 22.2117 4 24.1592 4 26.1899C4 30.4187 7.42809 33.8468 11.6569 33.8468C13.6876 33.8468 15.6351 33.0401 17.0711 31.6041L20.3126 28.3626C20.3126 28.3625 20.3127 28.3627 20.3126 28.3626L29.7573 18.9179C30.4431 18.2321 31.3733 17.8468 32.3431 17.8468C33.9669 17.8468 35.3435 18.9051 35.8207 20.3695L38.8015 17.3888C37.4417 15.259 35.0573 13.8468 32.3431 13.8468C30.3124 13.8468 28.3649 14.6535 26.9289 16.0894L14.2427 28.7757C13.5569 29.4615 12.6267 29.8468 11.6569 29.8468C9.63723 29.8468 8 28.2096 8 26.1899C8 25.2201 8.38527 24.2899 9.07107 23.6041L13.7573 18.9179C14.4431 18.2321 15.3733 17.8468 16.3431 17.8468C17.9669 17.8468 19.3435 18.9051 19.8207 20.3696L22.8015 17.3888C21.4417 15.2591 19.0574 13.8468 16.3431 13.8468Z" fill="#394149"/>
<path d="M30.2427 28.7757C29.5569 29.4615 28.6268 29.8468 27.6569 29.8468C26.0334 29.8468 24.6569 28.7888 24.1795 27.3246L21.1989 30.3053C22.5587 32.4347 24.9429 33.8468 27.6569 33.8468C29.6877 33.8468 31.6352 33.0401 33.0711 31.6041L45.7574 18.9179C46.4432 18.2321 47.3733 17.8468 48.3432 17.8468C50.3629 17.8468 52 19.484 52 21.5037C52 22.4735 51.6148 23.4037 50.929 24.0895L46.2427 28.7757C45.5569 29.4615 44.6268 29.8468 43.6569 29.8468C42.0332 29.8468 40.6567 28.7886 40.1794 27.3243L37.1987 30.305C38.5585 32.4347 40.9428 33.8468 43.6569 33.8468C45.6876 33.8468 47.6352 33.0401 49.0711 31.6041L53.7574 26.9179C55.1933 25.4819 56 23.5344 56 21.5037C56 17.2749 52.572 13.8468 48.3432 13.8468C46.3125 13.8468 44.3649 14.6535 42.929 16.0894L30.2427 28.7757Z" fill="#394149"/>
</g>
</g>
<defs>
<filter id="filter0_d_211_847" x="0" y="0" width="60" height="56" filterUnits="userSpaceOnUse" color-interpolation-filters="sRGB">
<feFlood flood-opacity="0" result="BackgroundImageFix"/>
<feColorMatrix in="SourceAlpha" type="matrix" values="0 0 0 0 0 0 0 0 0 0 0 0 0 0 0 0 0 0 127 0" result="hardAlpha"/>
<feOffset dy="4"/>
<feGaussianBlur stdDeviation="2"/>
<feComposite in2="hardAlpha" operator="out"/>
<feColorMatrix type="matrix" values="0 0 0 0 0 0 0 0 0 0 0 0 0 0 0 0 0 0 0.25 0"/>
<feBlend mode="normal" in2="BackgroundImageFix" result="effect1_dropShadow_211_847"/>
<feBlend mode="normal" in="SourceGraphic" in2="effect1_dropShadow_211_847" result="shape"/>
</filter>
<clipPath id="clip0_211_847">
<rect width="52" height="20" fill="white" transform="translate(4 13.8468)"/>
</clipPath>
</defs>
</svg>
