<svg width="22" height="20" viewBox="0 0 22 20" fill="none" xmlns="http://www.w3.org/2000/svg">
<path d="M13.7184 9.58453H13.713C13.595 9.58453 13.4824 9.55222 13.3781 9.49632L13.0504 9.32057V9.69248V9.69435C13.0504 9.79963 13.0281 9.90096 12.9859 9.99323L12.9266 10.0297H12.9679C12.9348 10.0922 12.8921 10.1499 12.8407 10.2013L12.8405 10.2015C12.7049 10.3371 12.5255 10.4114 12.3333 10.4114C12.2134 10.4114 12.0994 10.3782 11.9941 10.3209L11.6859 10.1531L11.6654 10.5034C11.655 10.6817 11.5844 10.8445 11.4608 10.9683C11.4607 10.9683 11.4607 10.9683 11.4607 10.9684M13.7184 9.58453L11.4607 10.9684M13.7184 9.58453C13.9089 9.58315 14.0861 9.50893 14.2204 9.37465C14.3558 9.23893 14.43 9.05956 14.43 8.86737L14.4298 3.70672C14.4298 1.8158 13.015 0.308509 11.3133 0.308509C9.99015 0.308509 8.89833 1.08139 8.45489 2.33328L8.45487 2.33335C8.43256 2.39628 8.4076 2.46372 8.37762 2.53114C8.35011 2.59298 8.31716 2.66696 8.30533 2.69307L8.30096 2.7027L8.29569 2.71189C8.24746 2.79599 7.82957 3.51993 7.42412 4.22217L6.87236 5.1777L6.69265 5.48885L6.64247 5.57571L6.62924 5.59861L6.62578 5.60459L6.62476 5.60633L6.62465 5.60653C6.62456 5.60668 6.62447 5.60684 6.62438 5.60699C6.5408 5.75161 6.51869 5.91903 6.56192 6.08008L6.56199 6.08033C6.60495 6.24111 6.70759 6.37512 6.85284 6.45949C6.97658 6.53027 7.11607 6.56721 7.25699 6.56721C7.54715 6.56721 7.81645 6.41145 7.95982 6.162L7.96003 6.16165L8.44126 5.32794L8.85661 4.60838V5.43921V9.66542C8.85661 10.0647 9.1569 10.3857 9.52454 10.4098L9.50998 10.6319M13.7184 9.58453L9.50998 10.6319M11.4607 10.9684C11.3251 11.1039 11.1458 11.1782 10.9535 11.1782C10.5743 11.1782 10.2639 10.8798 10.2415 10.503L10.2208 10.1543L9.91353 10.3204C9.79205 10.386 9.65867 10.4184 9.52425 10.4098L9.50998 10.6319M11.4607 10.9684L9.50998 10.6319M9.50998 10.6319C9.01873 10.5997 8.63403 10.1753 8.63403 9.66542V5.88444M9.50998 10.6319C9.61047 10.6384 9.70926 10.6276 9.80379 10.6023C9.80084 10.5782 9.79863 10.5539 9.79717 10.5294L10.0194 10.5162L10.1252 10.712C10.1042 10.7233 10.083 10.7341 10.0613 10.7442C10.1812 11.1241 10.5343 11.4008 10.9535 11.4008C11.2048 11.4008 11.4408 11.303 11.6182 11.1257C11.7263 11.0175 11.803 10.8872 11.8467 10.7451C11.8244 10.7346 11.8026 10.7235 11.7812 10.7118L11.8876 10.5164L12.1098 10.5293C12.1084 10.5541 12.1062 10.5788 12.1032 10.6033C12.1766 10.6231 12.2536 10.634 12.3333 10.634C12.5845 10.634 12.8205 10.5362 12.9979 10.3589C13.093 10.264 13.1653 10.152 13.2118 10.0297L8.63403 5.88444M8.63403 5.88444L8.8268 5.55048L8.63403 5.43921H8.41145V5.82482M8.63403 5.88444L8.41145 5.82482M8.41145 5.82482L8.1528 6.27292C7.96951 6.5918 7.6264 6.78979 7.25699 6.78979C7.07698 6.78979 6.89917 6.74256 6.74168 6.65232L8.41145 5.82482ZM11.6084 0.362629H11.3133C10.0003 0.362629 8.94562 1.11056 8.50594 2.35147M11.6084 0.362629L8.42732 2.553C8.45546 2.48979 8.48034 2.42321 8.50594 2.35147M11.6084 0.362629L11.6042 0.377517C13.1728 0.538453 14.3758 1.98794 14.3758 3.70683L14.3757 8.86748C14.3757 9.04389 14.3071 9.21139 14.1818 9.33671L14.1816 9.33686C14.057 9.46129 13.89 9.53045 13.713 9.53045C13.3474 9.53045 13.0504 9.23317 13.0504 8.86748V8.86745L13.0507 6.32143C13.0507 6.32142 13.0507 6.32142 13.0507 6.32141C13.0507 6.30634 13.0386 6.29425 13.0235 6.29425C13.0084 6.29425 12.9963 6.30633 12.9963 6.32143V9.69446C12.9963 9.87121 12.9274 10.0384 12.8024 10.1632L12.8023 10.1634C12.6773 10.2879 12.5104 10.3573 12.3335 10.3573C11.9678 10.3573 11.6705 10.0602 11.6705 9.69463V9.65584V9.65583L11.6707 6.3216C11.6707 6.3216 11.6707 6.3216 11.6707 6.3216C11.6707 6.30652 11.6586 6.29442 11.6435 6.29442C11.6284 6.29442 11.6163 6.3065 11.6163 6.3216V10.4613C11.6163 10.6379 11.5475 10.8052 11.4227 10.9303L11.4224 10.9306C11.2974 11.0553 11.13 11.1241 10.9535 11.1241C10.5879 11.1241 10.2907 10.827 10.2907 10.4613V10.4613L10.2908 6.3216M11.6084 0.362629L10.5134 6.3216M8.50594 2.35147C8.50592 2.35152 8.5059 2.35157 8.50588 2.35162L8.71552 2.42588L8.50606 2.35114C8.50602 2.35125 8.50598 2.35136 8.50594 2.35147ZM9.88535 10.006C9.96824 9.92313 10.0139 9.81272 10.0139 9.69464V6.3216C10.0139 6.18367 10.1257 6.07185 10.2637 6.07185C10.4016 6.07185 10.5134 6.18351 10.5134 6.3216M9.88535 10.006L10.5134 6.3216M9.88535 10.006C9.79417 10.097 9.67282 10.1407 9.5427 10.1338C9.31701 10.1189 9.13341 9.90891 9.13341 9.66556V4.50812C9.13341 4.39521 9.05756 4.29621 8.9484 4.26697C8.83862 4.23725 8.72414 4.28526 8.66753 4.38301M9.88535 10.006L10.2908 6.3216M10.5134 6.3216H10.2908M8.66753 4.38301L8.86026 4.49433L8.86013 4.49456M8.66753 4.38301L8.86013 4.49456M8.66753 4.38301L8.86013 4.49456M8.86013 4.49456C8.86669 4.48323 8.87873 4.47869 8.89025 4.48181L8.8908 4.48196C8.90255 4.48511 8.91083 4.49584 8.91083 4.50812V9.66556C8.91083 10.012 9.17178 10.3324 9.52808 10.3559L9.53094 10.3561L9.53095 10.3561C9.72008 10.3661 9.90408 10.3018 10.0426 10.1635L10.0427 10.1634C10.1676 10.0385 10.2365 9.87143 10.2365 9.69464V6.3216C10.2365 6.30659 10.2487 6.29442 10.2637 6.29442C10.2788 6.29442 10.2908 6.30653 10.2908 6.3216M8.86013 4.49456L7.91299 6.13436C7.91295 6.13444 7.9129 6.13452 7.91285 6.13461C7.70995 6.4878 7.23413 6.61579 6.87999 6.41237L6.87958 6.41213C6.74825 6.33632 6.65352 6.21223 6.61422 6.06626L6.61403 6.06556C6.57514 5.91921 6.59553 5.76509 6.67159 5.63356C7.80788 3.66614 8.18638 3.01058 8.31243 2.77275L8.41902 2.57161L8.86013 4.49456Z" fill="#4CAF4F" stroke="#4CAF4F" stroke-width="0.445155"/>
<path d="M3.3024 14.012L4.01475 13.5847L7.63893 11.4105L7.63903 11.4105C7.98113 11.205 8.41113 11.2973 8.62085 11.6003L8.62097 11.6005C8.69695 11.71 8.73777 11.8406 8.74417 11.9783L8.76036 12.3267L9.06951 12.1653C9.17516 12.1102 9.28705 12.0817 9.3983 12.0817C9.45641 12.0817 9.5153 12.089 9.57411 12.1036C9.76016 12.1501 9.91604 12.2657 10.0147 12.4303C10.1136 12.5953 10.1422 12.7873 10.0957 12.9731L10.0957 12.9732C10.0534 13.1427 9.95035 13.287 9.80281 13.3877L9.51351 13.5852L9.81524 13.7632C9.92014 13.8251 10.0065 13.907 10.0669 14.0078L10.0669 14.008C10.1658 14.1729 10.1944 14.3648 10.1481 14.5509C10.1016 14.7367 9.98602 14.8928 9.82097 14.9918L9.81754 14.9939L9.81755 14.9939L9.8163 14.9947L9.50793 15.1874L9.81985 15.3744C9.9229 15.4361 10.0078 15.5172 10.0676 15.6167L3.3024 14.012ZM3.3024 14.012L3.70566 13.2858L4.17318 12.4438L4.17339 12.4434C4.31325 12.1927 4.30834 11.8814 4.15908 11.6326L4.15898 11.6324C4.08671 11.5117 3.98318 11.4113 3.85992 11.3423M3.3024 14.012L9.18341 11.8855M9.18341 11.8855C9.25371 11.8682 9.32569 11.8592 9.3983 11.8592C9.47493 11.8592 9.55188 11.8687 9.62788 11.8876C9.87138 11.9485 10.0766 12.1006 10.2056 12.3158C10.3348 12.5313 10.3725 12.7839 10.3116 13.0271L9.18341 11.8855ZM9.18341 11.8855C9.18592 11.9096 9.18773 11.9336 9.18885 11.9577L8.96651 11.968L8.86352 11.7707C8.8851 11.7594 8.90699 11.7488 8.92915 11.7389C8.9022 11.6454 8.86078 11.5557 8.80387 11.4737C8.52361 11.0688 7.96139 10.9572 7.52443 11.2197L4.282 13.1648L4.09484 13.5019L3.90025 13.3938L3.78575 13.203L4.11635 13.0046L4.36777 12.5518C4.54668 12.2311 4.53996 11.8348 4.34994 11.5181C4.25751 11.3637 4.12536 11.2357 3.96803 11.1478L3.86008 11.3424C3.86003 11.3424 3.85997 11.3424 3.85992 11.3423M3.85992 11.3423C3.76364 11.289 3.65978 11.2638 3.55734 11.2638H3.55722C3.33639 11.2637 3.12345 11.3804 3.00996 11.5852L2.81298 11.4814M3.85992 11.3423L2.81298 11.4814M2.81298 11.4814C2.80726 11.4917 2.79097 11.5211 2.76594 11.5662C2.88116 11.6237 3.00969 11.5857 3.00973 11.5856L3.00958 11.5859L3.00877 11.5873L3.0055 11.5932L2.99272 11.6162L2.94407 11.7039L2.76967 12.0181L2.23401 12.983C1.84038 13.692 1.43448 14.423 1.38739 14.5071L1.38213 14.5165L1.376 14.5253C1.36013 14.5482 1.31411 14.6141 1.27462 14.6703C1.23244 14.7305 1.18719 14.7868 1.14456 14.8383L0.973132 14.6963M2.81298 11.4814L0.973132 14.6963M0.973132 14.6963L1.14479 14.838C0.299537 15.862 0.198331 17.196 0.879202 18.3308L0.879214 18.3308C1.30661 19.0433 2.01029 19.5339 2.86761 19.7091M0.973132 14.6963L2.82307 19.9271L2.86761 19.7091M10.1209 15.3275C10.1732 15.3792 10.2195 15.4374 10.2585 15.5022C10.3878 15.7177 10.4255 15.9702 10.3647 16.2137L10.1209 15.3275ZM10.1209 15.3275C10.098 15.3436 10.0743 15.359 10.0501 15.3735L9.97773 15.253M10.1209 15.3275L9.97773 15.253M9.82174 16.6006L9.82181 16.6006C9.98641 16.5017 10.1021 16.3458 10.1487 16.1598C10.1952 15.9737 10.1666 15.7818 10.0677 15.6168L9.82174 16.6006ZM9.82174 16.6006L5.39665 19.2553C5.39664 19.2553 5.39663 19.2553 5.39662 19.2553C4.61634 19.7233 3.71805 19.8827 2.86761 19.7091M9.82174 16.6006L2.86761 19.7091M9.97773 15.253L9.93427 15.1835L9.93512 15.182L9.93513 15.182L10.0487 14.9925C10.0729 15.007 10.0966 15.0224 10.1199 15.0386L9.97773 15.253ZM4.17942 11.8033L4.19008 11.7891L4.11288 11.6604C4.04439 11.5462 3.94942 11.4543 3.83422 11.3897L3.83318 11.3892C3.55791 11.2368 3.21024 11.3353 3.05757 11.6112C1.96193 13.585 1.59218 14.2509 1.45097 14.4854L1.33295 14.6814L4.17942 11.8033ZM4.17942 11.8033C4.24869 12.004 4.23154 12.228 4.12614 12.4172C4.12612 12.4173 4.1261 12.4173 4.12608 12.4173L3.20669 14.0738L4.17942 11.8033ZM6.92894 16.7269L6.92886 16.727C6.91575 16.7349 6.89921 16.7304 6.89179 16.718L6.89161 16.7177C6.88391 16.7049 6.88805 16.6882 6.90092 16.6804C6.90092 16.6804 6.90093 16.6804 6.90093 16.6804L9.08421 15.3707L8.96971 15.1798L9.08421 15.3707L9.79329 14.9453L9.79339 14.9452C9.94461 14.8544 10.0528 14.7092 10.0957 14.5379L10.0957 14.5378C10.1385 14.3665 10.1118 14.1874 10.0207 14.0359C10.0207 14.0358 10.0206 14.0358 10.0206 14.0357L9.82986 14.1505L6.92894 16.7269ZM6.92894 16.7269L9.11182 15.4174L6.92894 16.7269ZM6.21909 15.5437L6.21904 15.5437C6.20603 15.5515 6.18957 15.5474 6.18175 15.5344C6.17416 15.5218 6.17817 15.5049 6.19117 15.4971C6.19117 15.4971 6.19118 15.4971 6.19118 15.4971L9.7409 13.3677L9.741 13.3676C9.89231 13.2767 10.0003 13.1316 10.0431 12.9601C10.0431 12.96 10.0431 12.96 10.0432 12.96L6.21909 15.5437ZM6.21909 15.5437L9.11145 13.8086C9.11148 13.8086 9.11151 13.8085 9.11153 13.8085L6.21909 15.5437ZM1.18644 14.8727C1.23466 14.8141 1.27909 14.7581 1.31897 14.7014L10.0963 16.1463C10.0535 16.3178 9.94558 16.4632 9.79395 16.554L5.36849 19.2088C5.36849 19.2088 5.36848 19.2088 5.36848 19.2088C4.60471 19.6671 3.72068 19.8272 2.87844 19.656L2.87828 19.6559C2.04384 19.4856 1.34751 19.0066 0.925457 18.3029L0.925453 18.3029C0.250148 17.177 0.348641 15.8879 1.18644 14.8727ZM8.67578 12.1715L8.45988 12.1174L8.39326 11.758L8.5762 11.6312C8.57625 11.6313 8.5763 11.6314 8.57634 11.6314C8.68628 11.7902 8.72289 11.9835 8.6758 12.1715C8.67579 12.1715 8.67579 12.1715 8.67578 12.1715ZM3.24473 14.1099L7.66667 11.4571L3.20666 14.0738C3.20078 14.0845 3.20281 14.0978 3.21152 14.1063C3.22014 14.1146 3.23395 14.1163 3.24473 14.1099ZM9.11215 15.4172C9.42607 15.2283 9.83355 15.3317 10.0213 15.6445L9.11215 15.4172ZM8.35934 12.6582C8.35892 12.6586 8.3587 12.6588 8.3588 12.6587L8.35881 12.6587L8.35884 12.6587L8.35896 12.6585L8.35934 12.6582Z" fill="#4CAF4F" stroke="#4CAF4F" stroke-width="0.445155"/>
<path d="M20.8141 14.542C20.8515 14.595 20.8918 14.6457 20.9336 14.696M20.8141 14.542L19.0391 19.7089C19.8925 19.5346 20.5934 19.0478 21.0212 18.3407L21.0272 18.3307C21.708 17.196 21.607 15.8622 20.7619 14.8377L20.9336 14.696M20.8141 14.542C20.7748 14.4862 20.729 14.4205 20.7138 14.3984L20.8141 14.542ZM20.9336 14.696L20.7622 14.8381C20.7188 14.7858 20.6744 14.7301 20.6322 14.6702L20.632 14.67C20.5927 14.614 20.5463 14.5476 20.5305 14.5246L20.5246 14.5161L20.5196 14.5071C20.448 14.3792 19.4337 12.5527 18.8965 11.5847L18.8964 11.5845C18.7832 11.38 18.5701 11.2634 18.349 11.2633C18.247 11.2633 18.1438 11.2882 18.0479 11.3411C17.9235 11.411 17.8198 11.5117 17.7474 11.6321C17.5982 11.881 17.5933 12.1923 17.7335 12.4436L17.7337 12.444L18.2009 13.2854L18.604 14.0115L17.8918 13.5843L14.2677 11.4105L14.2677 11.4105C13.925 11.2049 13.4953 11.2975 13.2854 11.6004L13.2854 11.6004C13.2095 11.7099 13.1687 11.8404 13.1622 11.9785L13.1457 12.3268L12.8366 12.1652C12.7315 12.1101 12.6197 12.0818 12.5079 12.0817C12.4498 12.0817 12.3909 12.0888 12.3326 12.1034L12.3324 12.1035C12.1464 12.15 11.9903 12.2656 11.8917 12.4303L11.8916 12.4305C11.7927 12.5952 11.764 12.7871 11.8106 12.9731L11.8106 12.9732C11.8528 13.1419 11.9553 13.2857 12.1018 13.3865L12.3893 13.5842L12.0888 13.7616C11.9887 13.8206 11.9021 13.9031 11.8391 14.008C11.7403 14.173 11.7117 14.365 11.7582 14.5507L11.7583 14.551C11.8046 14.7368 11.9203 14.8928 12.0851 14.9917L12.0852 14.9917L12.0886 14.9938L12.0899 14.9946L12.3984 15.1875L12.0862 15.3743C11.9829 15.4361 11.898 15.5172 11.8385 15.6166L11.8384 15.6167C11.7397 15.7814 11.7109 15.9735 11.7572 16.1593C11.8038 16.3456 11.9196 16.5015 12.0844 16.6004L12.0844 16.6004M20.9336 14.696L12.0844 16.6004M12.0844 16.6004L16.5099 19.2552C16.5099 19.2552 16.5099 19.2552 16.51 19.2552M12.0844 16.6004L16.51 19.2552M12.3996 12.3721L12.3458 12.1561C12.174 12.1989 12.0287 12.307 11.9379 12.4588L12.1289 12.573M12.3996 12.3721L17.7934 11.6605C17.8618 11.5463 17.9566 11.4542 18.0733 11.389L18.0743 11.3884C18.3501 11.236 18.6964 11.3364 18.8487 11.611C19.9098 13.5226 20.2919 14.2105 20.4471 14.4672L20.4671 14.5003L20.4747 14.5377C20.4885 14.5606 20.5168 14.6011 20.5873 14.7011L20.5876 14.7015C20.6184 14.7454 20.6522 14.7893 20.6885 14.8341L20.7202 14.8726C21.558 15.8876 21.6564 17.1768 20.9804 18.303C20.5584 19.0067 19.862 19.4857 19.0278 19.656L19.0277 19.656C18.1857 19.8279 17.3011 19.667 16.5375 19.2089L12.112 16.554L12.1118 16.5539C11.9606 16.463 11.8523 16.3181 11.8094 16.1464L11.8093 16.146C11.767 15.9751 11.7938 15.7962 11.8845 15.6448L11.8845 15.6447C11.9754 15.4932 12.121 15.3854 12.2921 15.3426C12.4641 15.2996 12.6427 15.3266 12.7938 15.4172L12.7939 15.4173L14.9769 16.727L14.9772 16.7272C14.9897 16.7347 15.0063 16.731 15.0143 16.7177L15.205 16.8323L15.0142 16.7179C15.022 16.7048 15.0178 16.6882 15.0049 16.6805L12.822 15.3708L12.822 15.3708L12.1129 14.9454L12.1127 14.9453C11.9616 14.8544 11.8533 14.7095 11.8104 14.5378L11.8102 14.5373C11.768 14.3665 11.7944 14.1877 11.8855 14.036C12.0737 13.7226 12.4813 13.62 12.795 13.8088L15.6868 15.5437C15.6868 15.5437 15.6869 15.5437 15.6869 15.5438C15.7 15.5516 15.7166 15.5473 15.7244 15.5344L15.9151 15.6491M12.3996 12.3721C12.2854 12.4005 12.1894 12.4719 12.1289 12.573M12.3996 12.3721L12.3453 12.1562C12.5169 12.1131 12.6961 12.1402 12.8471 12.2307L12.8472 12.2308L16.3971 14.3603L16.3972 14.3604C16.41 14.3681 16.4266 14.3641 16.4345 14.351L16.6252 14.4656L16.4344 14.3512C16.4422 14.3381 16.438 14.3215 16.4251 14.3138L13.5345 12.5797L13.5337 12.5792L13.5338 12.5791L13.533 12.5786M12.1289 12.573L11.9382 12.4583C11.8469 12.61 11.8206 12.7889 11.8628 12.9596L11.8629 12.9601C11.9058 13.1316 12.0139 13.2768 12.1652 13.3677L12.1653 13.3677L12.8561 13.782L12.8561 13.782L15.715 15.4973C15.715 15.4973 15.715 15.4973 15.715 15.4973C15.7278 15.5051 15.732 15.5216 15.7242 15.5346L15.9151 15.6491M12.1289 12.573C12.0682 12.6739 12.0507 12.7923 12.0788 12.9061L13.4938 12.5487C13.496 12.5508 13.4996 12.5542 13.5042 12.5581C13.5097 12.5627 13.5169 12.5684 13.526 12.5743M15.9151 15.6491C15.8441 15.7672 15.691 15.8057 15.5724 15.7347L12.9706 13.5912L15.8296 15.3065C15.9478 15.3775 15.9861 15.5307 15.9151 15.6491ZM13.533 12.5786C13.5306 12.5772 13.5283 12.5758 13.526 12.5743M13.533 12.5786C13.5332 12.5788 13.5335 12.5789 13.5338 12.5791M13.533 12.5786L13.5338 12.5791M13.526 12.5743C13.3782 12.4833 13.2726 12.3401 13.2304 12.1711L13.2303 12.1708C13.1837 11.9833 13.22 11.7901 13.3301 11.6311M13.526 12.5743L13.3301 11.6312C13.3301 11.6312 13.3301 11.6312 13.3301 11.6311M13.3301 11.6311C13.5338 11.3372 13.9431 11.2792 14.2396 11.4569L14.2397 11.457L18.6614 14.1096C18.6614 14.1096 18.6615 14.1096 18.6616 14.1097M13.3301 11.6311L18.6616 14.1097M18.6616 14.1097C18.6736 14.1167 18.687 14.1141 18.6947 14.1066L18.695 14.1063C18.7037 14.0979 18.7057 14.0846 18.6997 14.0738L18.6997 14.0737L17.7807 12.4179C17.7807 12.4178 17.7806 12.4177 17.7806 12.4177C17.6488 12.1814 17.6546 11.8919 17.7934 11.6605L18.6616 14.1097ZM13.5338 12.5791L13.6416 12.3993L13.6482 12.3883L13.5338 12.5791ZM16.51 19.2552C17.2903 19.7231 18.1883 19.8823 19.039 19.7089L16.51 19.2552ZM18.8943 13.9657C18.9492 14.0645 18.9309 14.1878 18.8497 14.2663C18.7687 14.3449 18.6449 14.3587 18.5476 14.3008L18.8943 13.9657Z" fill="#4CAF4F" stroke="#4CAF4F" stroke-width="0.445155"/>
</svg>
