<svg width="21" height="21" viewBox="0 0 21 21" fill="none" xmlns="http://www.w3.org/2000/svg">
<path d="M3.24737 7.77258V7.93952H3.41431H18.4143H18.5812V7.77258V6.83508C18.5812 6.37641 18.399 5.93652 18.0747 5.61219C17.7504 5.28786 17.3105 5.10565 16.8518 5.10565H4.97681C4.51813 5.10565 4.07824 5.28786 3.75391 5.61219C3.42958 5.93652 3.24737 6.37641 3.24737 6.83508V7.77258ZM18.5812 9.02258V8.85565H18.4143H3.41431H3.24737V9.02258V14.9601C3.24737 15.4188 3.42958 15.8586 3.75391 16.183C4.07824 16.5073 4.51813 16.6895 4.97681 16.6895H16.8518C17.3105 16.6895 17.7504 16.5073 18.0747 16.183C18.399 15.8586 18.5812 15.4188 18.5812 14.9601V9.02258ZM2.33124 6.83508C2.33124 6.13344 2.60997 5.46052 3.10611 4.96438C3.60225 4.46824 4.27516 4.18952 4.97681 4.18952H16.8518C17.5535 4.18952 18.2264 4.46824 18.7225 4.96438C19.2186 5.46052 19.4974 6.13344 19.4974 6.83508V14.9601C19.4974 15.6617 19.2186 16.3346 18.7225 16.8308C18.2264 17.3269 17.5535 17.6056 16.8518 17.6056H4.97681C4.27516 17.6056 3.60225 17.3269 3.10611 16.8308C2.60997 16.3346 2.33124 15.6617 2.33124 14.9601V6.83508ZM14.0393 12.9395H15.9143C16.0358 12.9395 16.1523 12.9878 16.2382 13.0737C16.3241 13.1596 16.3724 13.2761 16.3724 13.3976C16.3724 13.5191 16.3241 13.6356 16.2382 13.7215C16.1523 13.8074 16.0358 13.8556 15.9143 13.8556H14.0393C13.9178 13.8556 13.8013 13.8074 13.7154 13.7215C13.6295 13.6356 13.5812 13.5191 13.5812 13.3976C13.5812 13.2761 13.6295 13.1596 13.7154 13.0737C13.8013 12.9878 13.9178 12.9395 14.0393 12.9395Z" fill="#4CAF4F" stroke="#4CAF4F" stroke-width="0.333867"/>
</svg>
