<svg width="17" height="17" viewBox="0 0 17 17" fill="none" xmlns="http://www.w3.org/2000/svg">
<rect x="0.292725" y="0.778687" width="16.0256" height="16.0256" rx="2.67093" fill="#E8F5E9"/>
<g clip-path="url(#clip0_212_1586)">
<path fill-rule="evenodd" clip-rule="evenodd" d="M3.74931 0.843628C5.59319 0.843628 7.08798 2.3384 7.08798 4.18229V0.843628H10.4266C12.2705 0.843628 13.7653 2.3384 13.7653 4.18229C13.7653 6.02617 12.2705 7.52096 10.4266 7.52096C12.2705 7.52096 13.7653 9.01575 13.7653 10.8596C13.7653 11.7752 13.3968 12.6047 12.7999 13.2078L12.7874 13.2204L12.7764 13.2314C12.1731 13.8291 11.343 14.1983 10.4266 14.1983C9.51655 14.1983 8.6915 13.8341 8.08924 13.2436C8.08143 13.2359 8.07362 13.2282 8.06584 13.2204C8.05853 13.2131 8.05125 13.2058 8.044 13.1984C7.45269 12.596 7.08798 11.7704 7.08798 10.8596C7.08798 12.7035 5.59319 14.1983 3.74931 14.1983C1.90542 14.1983 0.410645 12.7035 0.410645 10.8596V7.52096H3.74931C1.90542 7.52096 0.410645 6.02617 0.410645 4.18229C0.410645 2.3384 1.90542 0.843628 3.74931 0.843628ZM6.42024 4.18229C6.42024 5.65742 5.22443 6.85323 3.74931 6.85323V1.51136C5.22443 1.51136 6.42024 2.70718 6.42024 4.18229ZM13.0976 10.8596C13.0976 9.3845 11.9018 8.18869 10.4266 8.18869C8.95152 8.18869 7.75571 9.3845 7.75571 10.8596H13.0976ZM1.07838 8.18869V10.8596C1.07838 12.3347 2.27419 13.5306 3.74931 13.5306C5.22443 13.5306 6.42024 12.3347 6.42024 10.8596V8.18869H1.07838ZM7.75571 6.85323V1.51136H10.4266C11.9018 1.51136 13.0976 2.70718 13.0976 4.18229C13.0976 5.65742 11.9018 6.85323 10.4266 6.85323H7.75571Z" fill="#5417D7"/>
</g>
<defs>
<clipPath id="clip0_212_1586">
<rect width="13.3547" height="13.3547" fill="white" transform="translate(0.410645 0.843628)"/>
</clipPath>
</defs>
</svg>
