<svg width="19" height="17" viewBox="0 0 19 17" fill="none" xmlns="http://www.w3.org/2000/svg">
<rect x="0.863281" y="0.778687" width="16.0256" height="16.0256" rx="2.67093" fill="#F5F7FA"/>
<g clip-path="url(#clip0_212_1616)">
<path d="M4.98424 5.40161C4.30625 5.40161 3.65603 5.67094 3.17662 6.15035L1.61202 7.71495C1.13261 8.19436 0.863281 8.84458 0.863281 9.52257C0.863281 10.9344 2.00781 12.0789 3.41965 12.0789C4.09765 12.0789 4.74786 11.8096 5.22727 11.3302L6.30951 10.248C6.30951 10.2479 6.30954 10.248 6.30951 10.248L9.46279 7.09467C9.69176 6.86571 10.0023 6.73708 10.3261 6.73708C10.8682 6.73708 11.3278 7.0904 11.4872 7.57933L12.4823 6.58416C12.0283 5.87311 11.2323 5.40161 10.3261 5.40161C9.64811 5.40161 8.9979 5.67094 8.51849 6.15035L4.28297 10.3859C4.054 10.6148 3.74346 10.7435 3.41965 10.7435C2.74536 10.7435 2.19875 10.1969 2.19875 9.52257C2.19875 9.19876 2.32738 8.88822 2.55634 8.65926L4.12093 7.09467C4.34989 6.86571 4.66043 6.73708 4.98424 6.73708C5.52637 6.73708 5.98595 7.09042 6.1453 7.57936L7.14048 6.58418C6.68649 5.87312 5.89044 5.40161 4.98424 5.40161Z" fill="#394149"/>
<path d="M9.62491 10.3859C9.39595 10.6148 9.08541 10.7435 8.7616 10.7435C8.21956 10.7435 7.76 10.3902 7.60061 9.9014L6.60547 10.8965C7.05948 11.6075 7.85549 12.0789 8.7616 12.0789C9.43959 12.0789 10.0898 11.8096 10.5692 11.3302L14.8047 7.09467C15.0337 6.86571 15.3442 6.73708 15.6681 6.73708C16.3424 6.73708 16.889 7.28369 16.889 7.95798C16.889 8.28179 16.7603 8.59233 16.5314 8.8213L14.9668 10.3859C14.7378 10.6148 14.4273 10.7435 14.1035 10.7435C13.5614 10.7435 13.1018 10.3902 12.9424 9.90129L11.9473 10.8965C12.4013 11.6075 13.1973 12.0789 14.1035 12.0789C14.7815 12.0789 15.4317 11.8096 15.9111 11.3302L17.4757 9.7656C17.9551 9.28619 18.2244 8.63598 18.2244 7.95798C18.2244 6.54614 17.0799 5.40161 15.6681 5.40161C14.9901 5.40161 14.3398 5.67094 13.8604 6.15035L9.62491 10.3859Z" fill="#394149"/>
</g>
<defs>
<clipPath id="clip0_212_1616">
<rect width="17.3611" height="6.67733" fill="white" transform="translate(0.863281 5.40161)"/>
</clipPath>
</defs>
</svg>
