<svg width="24" height="24" viewBox="0 0 24 24" fill="none" xmlns="http://www.w3.org/2000/svg">
<path d="M19.9293 20.5226V18.6059C19.9293 17.5893 19.5254 16.6142 18.8065 15.8953C18.0876 15.1765 17.1126 14.7726 16.0959 14.7726H15.1376C14.8834 14.7726 14.6397 14.6716 14.46 14.4919C14.2802 14.3122 14.1793 14.0684 14.1793 13.8142V9.02258C14.1793 8.51425 13.9773 8.02674 13.6179 7.66729C13.2585 7.30785 12.7709 7.10592 12.2626 7.10592V7.10592C11.7543 7.10592 11.2668 7.30785 10.9073 7.66729C10.5479 8.02674 10.3459 8.51425 10.3459 9.02258V17.6476L8.04595 14.5809C7.86742 14.3429 7.63591 14.1497 7.36977 14.0166C7.10363 13.8835 6.81017 13.8142 6.51261 13.8142H6.0967C5.26774 13.8142 4.59595 14.486 4.59595 15.315C4.59595 15.5872 4.66974 15.8545 4.80966 16.0874L7.47095 20.5226M12.2626 4.23092V3.27258ZM18.0126 9.98092H18.9709ZM5.55428 9.98092H6.51261ZM7.79966 5.51796L7.12211 4.84042ZM16.7256 5.51796L17.4031 4.84042Z" fill="#4CAF4F"/>
<path d="M19.9293 20.5226V18.6059C19.9293 17.5893 19.5254 16.6142 18.8065 15.8953C18.0876 15.1765 17.1126 14.7726 16.0959 14.7726H15.1376C14.8834 14.7726 14.6397 14.6716 14.46 14.4919C14.2802 14.3122 14.1793 14.0684 14.1793 13.8142V9.02258C14.1793 8.51425 13.9773 8.02674 13.6179 7.66729C13.2585 7.30785 12.7709 7.10592 12.2626 7.10592V7.10592C11.7543 7.10592 11.2668 7.30785 10.9073 7.66729C10.5479 8.02674 10.3459 8.51425 10.3459 9.02258V17.6476L8.04595 14.5809C7.86742 14.3429 7.63591 14.1497 7.36977 14.0166C7.10363 13.8835 6.81017 13.8142 6.51261 13.8142H6.0967C5.26774 13.8142 4.59595 14.486 4.59595 15.315C4.59595 15.5872 4.66974 15.8545 4.80966 16.0874L7.47095 20.5226M12.2626 4.23092V3.27258M18.0126 9.98092H18.9709M5.55428 9.98092H6.51261M7.79966 5.51796L7.12211 4.84042M16.7256 5.51796L17.4031 4.84042" stroke="#4CAF4F" stroke-width="0.667733" stroke-linecap="round" stroke-linejoin="round"/>
</svg>
