<svg width="17" height="17" viewBox="0 0 17 17" fill="none" xmlns="http://www.w3.org/2000/svg">
<rect x="0.14917" y="0.778687" width="16.0256" height="16.0256" rx="2.67093" fill="#F5F7FA"/>
<g clip-path="url(#clip0_212_1612)">
<path d="M12.9822 4.68172C12.9822 4.8373 13.1098 4.96342 13.2674 4.96342H13.5525C13.71 4.96342 13.8377 4.8373 13.8377 4.68172C13.8377 4.52615 13.71 4.40002 13.5525 4.40002H13.2674C13.1098 4.40002 12.9822 4.52615 12.9822 4.68172Z" fill="#212326"/>
<path d="M4.71201 13.4144H6.09736L5.69405 13.016C5.5871 12.9104 5.44202 12.851 5.29076 12.851H4.71201C2.50702 12.851 0.719525 11.0853 0.719525 8.90722C0.719525 6.72912 2.50702 4.96343 4.71201 4.96342H9.27486C11.4798 4.96342 13.2673 6.72912 13.2673 8.90722C13.2673 11.0853 11.4798 12.851 9.27486 12.851H7.56799C7.34108 12.851 7.12348 12.762 6.96302 12.6035L6.49054 12.1368C6.22314 11.8726 5.86044 11.7242 5.48227 11.7242H4.71201C3.13701 11.7242 1.86024 10.463 1.86024 8.90722C1.86024 7.35143 3.13701 6.09022 4.71201 6.09022H9.27486C10.8499 6.09022 12.1266 7.35143 12.1266 8.90722C12.1266 10.463 10.8499 11.7242 9.27486 11.7242H8.17888C7.95197 11.7242 7.73437 11.6352 7.57392 11.4767L7.10141 11.01C6.83401 10.7458 6.47133 10.5974 6.09316 10.5974H4.71201C3.76703 10.5974 3.00095 9.84069 3.00095 8.90722C3.00095 7.97376 3.76703 7.21702 4.71201 7.21702H9.27486C10.2198 7.21702 10.9859 7.97376 10.9859 8.90722C10.9859 9.82931 10.2384 10.5789 9.30935 10.5971L9.30917 10.5974H8.89183C8.66492 10.5974 8.44732 10.5084 8.28686 10.3499L7.81436 9.88317C7.59495 9.66642 7.3114 9.52762 7.00776 9.48478L6.99343 9.47062H4.71201C4.39702 9.47062 4.14166 9.21838 4.14166 8.90722C4.14166 8.59607 4.39702 8.34382 4.71201 8.34382H9.27486C9.58985 8.34382 9.84521 8.59607 9.84521 8.90722C9.84521 9.21838 9.58985 9.47062 9.27486 9.47062H8.13415L8.53745 9.86901C8.64441 9.97466 8.78948 10.034 8.94074 10.034H9.27486C9.90485 10.034 10.4156 9.52953 10.4156 8.90722C10.4156 8.28491 9.90485 7.78042 9.27486 7.78042H4.71201C4.08202 7.78042 3.5713 8.28491 3.5713 8.90722C3.5713 9.52953 4.08202 10.034 4.71201 10.034H6.80611C7.03302 10.034 7.25062 10.1231 7.41107 10.2815L7.88358 10.7483C8.15098 11.0124 8.51366 11.1608 8.89183 11.1608H9.41745V11.1565C10.611 11.0838 11.5563 10.1045 11.5563 8.90722C11.5563 7.66261 10.5348 6.65362 9.27486 6.65362H4.71201C3.45203 6.65362 2.43059 7.66261 2.43059 8.90722C2.43059 10.1519 3.45203 11.1608 4.71201 11.1608H6.09316C6.32007 11.1608 6.53768 11.2499 6.69813 11.4083L7.17063 11.8751C7.43804 12.1392 7.80072 12.2876 8.17888 12.2876H9.27486C11.1649 12.2876 12.697 10.7742 12.697 8.90722C12.697 7.04027 11.1649 5.52682 9.27486 5.52682H4.71201C2.82202 5.52682 1.28988 7.04027 1.28988 8.90722C1.28988 10.7742 2.82202 12.2876 4.71201 12.2876H5.48227C5.70918 12.2876 5.92678 12.3767 6.08723 12.5351L6.55974 13.0019C6.82714 13.266 7.18982 13.4144 7.56799 13.4144H9.27486C11.7948 13.4144 13.8377 11.3965 13.8377 8.90722C13.8377 6.41796 11.7948 4.40002 9.27486 4.40002L4.71201 4.40003C2.19202 4.40003 0.14917 6.41797 0.14917 8.90722C0.14917 11.3965 2.19203 13.4144 4.71201 13.4144Z" fill="#212326"/>
</g>
<defs>
<clipPath id="clip0_212_1612">
<rect width="13.6885" height="9.0144" fill="white" transform="translate(0.14917 4.40002)"/>
</clipPath>
</defs>
</svg>
