<svg width="17" height="17" viewBox="0 0 17 17" fill="none" xmlns="http://www.w3.org/2000/svg">
<rect x="0.00683594" y="0.778687" width="16.0256" height="16.0256" rx="2.67093" fill="#F5F7FA"/>
<g clip-path="url(#clip0_212_1589)">
<path fill-rule="evenodd" clip-rule="evenodd" d="M3.37823 5.4399L0.0443115 8.74029C0.711156 9.40045 1.47292 9.9568 2.30347 10.3921C2.53303 10.9949 2.89287 11.5602 3.38298 12.0454C5.22689 13.8708 8.21643 13.8708 10.0603 12.0454C10.5504 11.5602 10.9103 10.9949 11.1398 10.392C11.9704 9.9568 12.7321 9.40045 13.399 8.74029L10.0678 5.44258C10.0653 5.44011 10.0628 5.43764 10.0603 5.43518C8.21643 3.60982 5.22689 3.60982 3.38298 5.43518C3.3814 5.43675 3.37981 5.43832 3.37823 5.4399ZM9.7413 10.9875C8.76975 11.3121 7.74985 11.4783 6.72164 11.4783C5.69343 11.4783 4.67357 11.3121 3.70202 10.9875C3.80729 11.1258 3.92351 11.2584 4.05071 11.3844C5.52583 12.8447 7.91745 12.8447 9.39257 11.3844C9.51978 11.2584 9.63603 11.1258 9.7413 10.9875ZM4.11919 6.0301C4.36969 6.19393 4.63604 6.33412 4.91476 6.44842C5.48761 6.68331 6.10159 6.80421 6.72164 6.80421C7.3417 6.80421 7.95568 6.68331 8.52853 6.44842C8.80724 6.33412 9.0736 6.19393 9.32413 6.03009C7.86741 4.65795 5.57588 4.65795 4.11919 6.0301Z" fill="#3B4158"/>
</g>
<defs>
<clipPath id="clip0_212_1589">
<rect width="13.3547" height="9.34826" fill="white" transform="translate(0.0443115 4.06616)"/>
</clipPath>
</defs>
</svg>
