<svg width="20" height="17" viewBox="0 0 20 17" fill="none" xmlns="http://www.w3.org/2000/svg">
<rect x="0.720947" y="0.778687" width="16.0256" height="16.0256" rx="2.67093" fill="#F5F7FA"/>
<g clip-path="url(#clip0_212_1592)">
<path d="M19.0822 7.29454C19.0841 7.28062 19.0841 7.26654 19.0822 7.25262C19.084 7.24128 19.084 7.22971 19.0822 7.21834L18.9461 6.23923C18.9265 6.12209 18.874 6.0126 18.7946 5.92302L18.7713 5.89635L18.7285 5.85444L16.3736 3.86574L16.4396 3.93051C16.3856 3.86711 16.3178 3.81641 16.2411 3.78212C16.1644 3.74783 16.0809 3.73084 15.9966 3.7324H15.2816C15.1653 3.73014 15.0517 3.76638 14.959 3.83526C14.8618 3.7668 14.7446 3.73074 14.6248 3.7324H13.9098C13.816 3.73091 13.7235 3.75373 13.6416 3.79855C13.5597 3.84337 13.4914 3.90861 13.4435 3.98765C13.3696 4.10055 13.3419 4.23658 13.3658 4.36863L13.4551 4.98581C13.3959 4.9529 13.3289 4.93583 13.2608 4.93629H9.79835C9.67412 4.93705 9.55275 4.97275 9.44859 5.03915C9.34788 5.10095 9.26703 5.18945 9.21544 5.2944L8.94729 5.06963C8.84176 4.9739 8.70246 4.92201 8.55869 4.92486H3.12597C3.0013 4.92709 2.8794 4.96123 2.77234 5.02391C2.62589 5.10795 2.51855 5.2446 2.47311 5.40489L0.747696 11.0624C0.715457 11.1556 0.712285 11.2562 0.738588 11.3512C0.76489 11.4461 0.819474 11.5313 0.895368 11.5958C0.915143 11.6122 0.935908 11.6275 0.957546 11.6415C0.957546 11.6415 0.922566 11.6186 0.903136 11.5996L3.2581 13.5921C3.35772 13.682 3.48797 13.7323 3.62337 13.733H9.09886C9.2239 13.7299 9.34589 13.6944 9.45249 13.6302C9.51278 13.5979 9.56672 13.5553 9.61182 13.5045L9.63125 13.4778L9.66234 13.4397L9.68565 13.3978L9.94214 13.615C10.0403 13.7013 10.1677 13.7488 10.2997 13.7483H15.7868C15.9117 13.7442 16.0334 13.7088 16.1404 13.6454C16.1993 13.6112 16.253 13.5688 16.2998 13.5197L16.3192 13.493L16.3502 13.455C16.3668 13.4308 16.3811 13.4053 16.393 13.3787C16.4057 13.3556 16.4161 13.3314 16.4241 13.3064L17.9979 8.14031V8.09459C17.9999 8.07686 17.9999 8.05898 17.9979 8.04126V8.00698C17.9998 7.99561 17.9998 7.98404 17.9979 7.97267C17.9997 7.94858 17.9997 7.92439 17.9979 7.90028H18.5031C18.5471 7.90424 18.5913 7.90424 18.6353 7.90028H18.6702C18.6987 7.89197 18.7261 7.88045 18.7519 7.866H18.7907L18.8607 7.81267L18.8917 7.7898L18.9461 7.72122V7.69838L18.985 7.63361C18.9828 7.62101 18.9828 7.60811 18.985 7.59552C18.9829 7.58933 18.9829 7.58265 18.985 7.57646C18.9933 7.55413 18.9998 7.53119 19.0044 7.50788C19.0026 7.50037 19.0026 7.49253 19.0044 7.48502C19.0026 7.47367 19.0026 7.46208 19.0044 7.45074C19.0044 7.45074 19.0822 7.30215 19.0822 7.29454Z" fill="black"/>
<path d="M8.71798 5.35917C8.73861 5.37746 8.75302 5.40151 8.75927 5.42807C8.76554 5.45464 8.76333 5.48245 8.75297 5.50775L7.03145 11.1615C7.00977 11.2232 6.96542 11.2748 6.90709 11.3062C6.85963 11.3374 6.80469 11.3557 6.74774 11.3596H1.27617C1.22945 11.3574 1.18518 11.3384 1.15182 11.3062C1.13197 11.2882 1.11804 11.2648 1.11181 11.2391C1.10558 11.2133 1.10734 11.1863 1.11684 11.1615L2.84226 5.50775C2.86214 5.44524 2.90509 5.39226 2.96272 5.35917C3.01097 5.33028 3.06564 5.31328 3.12205 5.30964H8.59362C8.63999 5.31008 8.68444 5.32779 8.71798 5.35917ZM5.86172 10.0223L6.89153 6.64687H4.00809L2.98215 10.0223H5.86172ZM13.9409 5.41631C13.9595 5.43758 13.9829 5.45445 14.0091 5.46566C14.0353 5.47688 14.0638 5.48215 14.0924 5.48108H14.8036C14.8307 5.48134 14.8573 5.47483 14.8812 5.46216C14.9049 5.4495 14.925 5.43109 14.9396 5.40869C14.9522 5.3912 14.9611 5.37139 14.9658 5.35044C14.9705 5.3295 14.9708 5.30786 14.9668 5.28678L14.8269 4.281C14.8136 4.23445 14.7896 4.19147 14.7569 4.15528C14.7383 4.13401 14.7149 4.11714 14.6887 4.10593C14.6625 4.09472 14.634 4.08945 14.6054 4.09051H13.8942C13.8672 4.09026 13.8404 4.09677 13.8167 4.10943C13.7929 4.1221 13.7727 4.1405 13.7582 4.1629C13.731 4.21624 13.7194 4.25052 13.731 4.281L13.8748 5.28678C13.8822 5.33576 13.9053 5.38114 13.9409 5.41631ZM16.1987 4.27338C16.1853 4.22683 16.1614 4.18385 16.1287 4.14766C16.1108 4.12647 16.0882 4.10961 16.0626 4.09837C16.037 4.08714 16.0091 4.08184 15.9811 4.08289H15.266C15.2394 4.08215 15.213 4.08849 15.1898 4.10123C15.1665 4.11397 15.1472 4.13265 15.1339 4.15528C15.108 4.18908 15.0968 4.23153 15.1028 4.27338L15.2466 5.27916C15.2556 5.32762 15.2785 5.37255 15.3126 5.40869C15.3316 5.42955 15.355 5.44613 15.3812 5.45731C15.4074 5.46849 15.4357 5.474 15.4642 5.47346H16.1792C16.2058 5.4738 16.232 5.4673 16.2552 5.45459C16.2784 5.44189 16.2978 5.42344 16.3114 5.40108C16.3249 5.38403 16.3343 5.36423 16.339 5.34314C16.3438 5.32204 16.3436 5.30019 16.3386 5.27916L16.1987 4.27338ZM13.3152 5.79729L13.2452 5.30202H9.79832C9.7442 5.30495 9.69184 5.32205 9.64675 5.35155C9.61813 5.36685 9.59322 5.38806 9.57376 5.41371C9.55432 5.43936 9.54078 5.46885 9.53407 5.50013L9.24649 6.44495C9.23502 6.46856 9.23109 6.49505 9.23525 6.52089C9.23943 6.54673 9.25147 6.57072 9.2698 6.58973C9.30258 6.61993 9.34535 6.63753 9.39028 6.63926H13.5795L12.5497 10.0147H8.37213C8.31826 10.0159 8.2658 10.0318 8.22058 10.0604C8.16562 10.0947 8.12548 10.1476 8.10788 10.209L7.81643 11.1538C7.80691 11.1781 7.80441 11.2044 7.80921 11.23C7.81403 11.2555 7.82591 11.2793 7.84361 11.2986C7.87536 11.3308 7.91847 11.3499 7.96409 11.3519H13.4512C13.508 11.3472 13.5627 11.3288 13.6105 11.2986C13.6679 11.267 13.711 11.2153 13.731 11.1538L15.3087 5.98778H13.5328C13.5046 5.98832 13.4767 5.9832 13.4506 5.97271C13.4245 5.96223 13.4009 5.94661 13.3813 5.92682C13.3491 5.89227 13.3264 5.85035 13.3152 5.80491V5.79729Z" fill="white"/>
</g>
<defs>
<clipPath id="clip0_212_1592">
<rect width="18.3627" height="10.016" fill="white" transform="translate(0.720947 3.7323)"/>
</clipPath>
</defs>
</svg>
