<svg width="17" height="17" viewBox="0 0 17 17" fill="none" xmlns="http://www.w3.org/2000/svg">
<rect x="0.435059" y="0.778687" width="16.0256" height="16.0256" rx="2.67093" fill="#F5F7FA"/>
<g clip-path="url(#clip0_212_1596)">
<path d="M15.124 5.25626C15.124 5.26755 15.124 5.28166 15.121 5.29013C15.1063 5.4002 15.1063 5.51027 15.1151 5.62317C15.121 5.65139 15.1269 5.67961 15.1504 5.70219C15.1887 5.74453 15.2475 5.73606 15.271 5.68526C15.2828 5.65986 15.2828 5.63445 15.2769 5.60905C15.2475 5.50181 15.2416 5.38891 15.2387 5.27884C15.2387 5.2732 15.2387 5.26473 15.2387 5.25626C15.271 5.25344 15.3004 5.25062 15.3269 5.25062C15.3475 5.2478 15.3651 5.24497 15.3798 5.23651C15.4239 5.21393 15.4239 5.16595 15.3769 5.14337C15.3592 5.1349 15.3357 5.13208 15.3151 5.13208C15.2416 5.1349 15.1681 5.1349 15.0946 5.1349C15.0681 5.1349 15.0416 5.13773 15.0152 5.14055C15.0005 5.14337 14.9828 5.14337 14.9711 5.15184C14.9505 5.1603 14.9387 5.17442 14.9387 5.19417C14.9417 5.21393 14.9505 5.22522 14.9711 5.23369C14.9828 5.24215 14.9975 5.24497 15.0122 5.24497C15.0475 5.2478 15.0858 5.25344 15.124 5.25626ZM15.9326 5.38609C15.9326 5.38891 15.9356 5.39173 15.9356 5.39173C15.9473 5.46794 15.9591 5.54132 15.9679 5.6147C15.9709 5.6401 15.9738 5.66268 15.9915 5.68243C16.0297 5.73041 16.0885 5.72477 16.115 5.67397C16.1267 5.64857 16.1297 5.62317 16.1238 5.59494C16.1061 5.51027 16.0973 5.4256 16.0797 5.34376C16.0679 5.29295 16.0532 5.24497 16.0385 5.19982C16.0297 5.17159 16.0091 5.15184 15.9738 5.14902C15.9385 5.14337 15.9121 5.1603 15.8974 5.18571C15.8797 5.20828 15.865 5.23086 15.8532 5.25626C15.8327 5.30142 15.815 5.34658 15.7915 5.38891C15.7885 5.4002 15.7856 5.40867 15.7797 5.41714C15.7768 5.41149 15.7739 5.40867 15.7739 5.40867C15.7356 5.33811 15.7003 5.26755 15.6621 5.19982C15.6562 5.19417 15.6533 5.18853 15.6503 5.18288C15.6327 5.15748 15.6121 5.14337 15.5798 5.14337C15.5504 5.14619 15.5268 5.16313 15.5121 5.18853C15.5062 5.19982 15.5062 5.20828 15.5033 5.21957C15.4915 5.30989 15.4768 5.4002 15.4651 5.49052C15.4592 5.54132 15.4563 5.59212 15.4563 5.64292C15.4533 5.65421 15.4563 5.66832 15.4621 5.67961C15.468 5.70219 15.4857 5.7163 15.5092 5.71913C15.5386 5.72195 15.5592 5.71348 15.568 5.6909C15.5768 5.67397 15.5798 5.65986 15.5827 5.64575C15.5945 5.59494 15.6033 5.54696 15.6121 5.49898C15.618 5.47076 15.6209 5.44818 15.6298 5.41714C15.6356 5.42843 15.6415 5.43689 15.6474 5.44536C15.6739 5.47923 15.7003 5.5131 15.7327 5.54132C15.765 5.5639 15.7915 5.56108 15.8179 5.53567C15.8238 5.53003 15.8268 5.52721 15.8327 5.52156C15.8591 5.48205 15.8915 5.44254 15.9179 5.40302C15.9238 5.39738 15.9268 5.39173 15.9326 5.38609Z" fill="#3A3B7B"/>
<path d="M9.15711 5.3118C9.13667 5.36543 9.13277 5.40408 9.1422 5.43619C9.15263 5.47987 9.17968 5.49417 9.2164 5.48306C9.5618 5.40109 10.3192 5.63376 10.5996 5.69862C10.6657 5.71223 10.7195 5.6303 10.6744 5.55684C10.6086 5.48569 9.85149 5.18111 9.56263 5.1645C9.4494 5.15836 9.24698 5.13049 9.15711 5.3118Z" fill="#3A3B7B"/>
<path d="M12.1172 4.32582C12.154 4.34621 12.1746 4.36567 12.1848 4.3874C12.1999 4.41591 12.1919 4.43564 12.1665 4.4457C11.9382 4.55265 11.6344 5.01308 11.5117 5.17188C11.482 5.20841 11.4134 5.18718 11.4031 5.12711C11.4052 5.05918 11.6745 4.55951 11.8248 4.42342C11.8839 4.37028 11.9815 4.26603 12.1172 4.32582Z" fill="#3A3B7B"/>
<path d="M10.2989 4.09912C10.3432 4.06713 10.3891 4.05592 10.4126 4.07671C10.7571 4.35946 10.9398 4.80723 11.0529 5.21714C11.0571 5.22669 11.0574 5.2404 11.054 5.25469C11.0526 5.26691 11.0433 5.27982 11.0285 5.28981C11.0127 5.30083 10.9991 5.30419 10.9927 5.29469C10.8418 5.0976 9.97947 4.33075 10.2989 4.09912Z" fill="#3A3B7B"/>
<path d="M3.00424 9.00131C3.0868 8.94232 3.17656 8.8932 3.27154 8.85509C3.37091 8.82783 3.47683 8.83234 3.57329 8.86799C3.66973 8.90363 3.75148 8.96844 3.80614 9.05263C3.85503 9.1366 3.87415 9.23355 3.86065 9.32888C3.84716 9.42418 3.80176 9.51271 3.73129 9.58112C3.67666 9.63657 3.61463 9.68487 3.54686 9.72479C3.24482 9.91207 2.94009 10.0891 2.63537 10.2764C2.57302 10.3232 2.50687 10.3653 2.43757 10.4021C2.33215 10.4525 2.21167 10.466 2.09697 10.4403C1.98226 10.4145 1.88055 10.3511 1.80941 10.261C1.75623 10.1972 1.71135 10.1274 1.67576 10.0532C1.38708 9.47081 1.0877 8.891 0.809712 8.29837C0.681408 8.04184 0.577161 7.7468 0.475588 7.46203C0.431642 7.37929 0.423061 7.28337 0.45167 7.19465C0.48028 7.10593 0.543824 7.03142 0.628784 6.98697C0.713746 6.94252 0.81342 6.93165 0.906611 6.95665C0.999802 6.98164 1.07916 7.04055 1.1278 7.12082C1.27731 7.31152 1.40965 7.51407 1.5234 7.72629C1.81208 8.23937 2.0874 8.75246 2.36539 9.25017C2.38158 9.27767 2.39943 9.30421 2.41885 9.32969C2.62809 9.24526 2.82489 9.13486 3.00424 9.00131Z" fill="#3A3B7B"/>
<path d="M5.98902 8.82232C5.3288 9.56373 4.22217 9.37645 3.66619 8.4221C3.27058 7.74481 3.20109 6.62626 4.0618 5.92076C4.2456 5.77306 4.46537 5.67244 4.70064 5.62829C4.98909 5.5886 5.28325 5.63744 5.54104 5.76784C5.79883 5.89824 6.00708 6.10351 6.13605 6.35433C6.60649 7.17528 6.53966 8.22199 5.98902 8.82232ZM5.72172 7.09318C5.65158 6.89144 5.51087 6.71921 5.32344 6.60573C5.21739 6.53318 5.08851 6.49791 4.95854 6.50585C4.82854 6.5138 4.70539 6.56447 4.60976 6.64935C4.22753 6.97517 4.14732 7.74739 4.42531 8.20661C4.46075 8.28149 4.51278 8.34803 4.57781 8.40159C4.64284 8.45515 4.71929 8.49443 4.80178 8.51665C4.88427 8.5389 4.97082 8.54357 5.0554 8.53034C5.13998 8.5171 5.2205 8.48629 5.29138 8.44006C5.49858 8.28587 5.65059 8.07357 5.72627 7.83266C5.80197 7.59173 5.79758 7.33416 5.71372 7.09576L5.72172 7.09318Z" fill="#3A3B7B"/>
<path d="M8.68345 7.4165C8.61586 7.43045 8.54603 7.43129 8.47808 7.41894C8.41016 7.4066 8.34547 7.38136 8.28786 7.34468C8.23744 7.317 8.19404 7.27895 8.16078 7.23324C8.12753 7.18754 8.10525 7.13535 8.09554 7.08038C8.08581 7.02543 8.08893 6.9691 8.1046 6.91543C8.12029 6.86176 8.1482 6.81209 8.18629 6.77C8.25264 6.68541 8.34683 6.62485 8.45358 6.59812C8.73229 6.52049 9.0192 6.47315 9.30894 6.45702C9.3726 6.44992 9.4371 6.45509 9.49863 6.47223C9.56019 6.48939 9.61753 6.51815 9.66734 6.55688C9.71713 6.59559 9.75837 6.64347 9.78864 6.69769C9.81888 6.75191 9.83755 6.81139 9.84353 6.87263C9.92706 7.17344 9.93621 7.48883 9.87026 7.79364C9.6297 8.77878 8.80107 9.11741 7.87086 8.80186C7.60975 8.71749 7.38081 8.56029 7.21331 8.35034C6.9899 8.09751 6.83151 7.79787 6.75087 7.47552C6.68555 7.18846 6.6927 6.89061 6.77177 6.60677C6.85081 6.32293 6.99945 6.06134 7.20528 5.84387C7.40062 5.6075 7.65416 5.42148 7.94304 5.30255C8.12558 5.20599 8.33919 5.17853 8.54179 5.22559C8.58775 5.2378 8.62947 5.26158 8.66262 5.29448C8.69577 5.32739 8.71915 5.3682 8.73034 5.41269C8.74153 5.45719 8.74009 5.50374 8.72622 5.54753C8.71232 5.59132 8.68649 5.63075 8.65139 5.66172C8.58463 5.71971 8.51211 5.77127 8.43487 5.81565C8.19723 5.9609 7.99043 6.14806 7.82542 6.36722C7.71726 6.50904 7.64277 6.6719 7.60722 6.84431C7.57164 7.01672 7.57588 7.19452 7.61961 7.36521C7.68023 7.59793 7.81475 7.80682 8.00451 7.96295C8.59257 8.47606 9.35705 7.9809 9.2234 7.28053C9.02828 7.32672 8.8572 7.37546 8.68345 7.4165Z" fill="#3A3B7B"/>
<path d="M12.2759 8.86343C11.4072 9.37654 10.4182 8.86343 10.2017 7.78594C10.044 7.0163 10.3433 5.93879 11.3912 5.52832C11.6141 5.44286 11.8559 5.41286 12.0941 5.44109C12.3804 5.49138 12.643 5.62663 12.8449 5.82777C13.0467 6.02891 13.1778 6.28578 13.2195 6.56221C13.3959 7.47807 12.9949 8.45553 12.2759 8.86343ZM12.578 7.13687C12.5777 6.92375 12.4991 6.71752 12.3561 6.55451C12.2796 6.45368 12.1691 6.38144 12.0433 6.35008C11.9176 6.31875 11.7844 6.33023 11.6665 6.38263C11.196 6.57759 10.8646 7.28566 10.9849 7.80647C10.994 7.8882 11.0217 7.96702 11.0659 8.03741C11.1102 8.10781 11.1699 8.16808 11.2409 8.21402C11.3119 8.25995 11.3926 8.29045 11.4771 8.30336C11.5617 8.31626 11.6483 8.31129 11.7306 8.28877C11.9793 8.2054 12.1946 8.04958 12.3465 7.84307C12.4984 7.63655 12.5793 7.38966 12.578 7.13687Z" fill="#3A3B7B"/>
<path d="M14.0981 9.07889C14.085 9.17278 14.0336 9.25783 13.9551 9.31533C13.8766 9.37281 13.7776 9.39805 13.6798 9.38546C13.5819 9.37287 13.4933 9.32349 13.4334 9.24819C13.3735 9.17292 13.3472 9.07786 13.3604 8.98396C13.3735 8.89007 13.4249 8.80502 13.5034 8.74752C13.5818 8.69002 13.6808 8.6648 13.7787 8.67739C13.8765 8.68998 13.9651 8.73933 14.025 8.81463C14.0849 8.88993 14.1112 8.98499 14.0981 9.07889ZM13.8655 5.61805C13.9164 5.54353 13.991 5.48678 14.0782 5.45627C14.1653 5.42575 14.2605 5.42311 14.3494 5.44873C14.4397 5.47043 14.5195 5.52126 14.5755 5.59272C14.6315 5.66418 14.6601 5.75192 14.6568 5.84125C14.645 5.98454 14.6226 6.12685 14.5899 6.26711C14.5017 6.74173 14.4162 7.21633 14.3226 7.68583C14.2799 7.87311 14.2237 8.05269 14.1622 8.24253C14.1409 8.30188 14.1051 8.3555 14.058 8.39903C14.0287 8.43177 13.9913 8.45688 13.9492 8.47204C13.9071 8.48722 13.8617 8.49195 13.8172 8.48581C13.7727 8.47968 13.7305 8.46286 13.6946 8.43694C13.6587 8.411 13.6301 8.37678 13.6116 8.33746C13.5798 8.26691 13.5626 8.1911 13.5608 8.11426C13.5608 7.79614 13.5608 7.47546 13.5822 7.15476C13.6186 6.69711 13.69 6.24264 13.796 5.79507C13.8085 5.7351 13.8321 5.67776 13.8655 5.62575V5.61805Z" fill="#3A3B7B"/>
<path fill-rule="evenodd" clip-rule="evenodd" d="M1.87489 11.1404C1.84333 11.208 1.83468 11.2834 1.8501 11.356C1.86036 11.4516 1.8829 11.5457 1.91719 11.636C1.96001 11.7467 2.00793 11.8561 2.06701 11.9909C2.0806 12.022 2.0948 12.0543 2.10965 12.0884C2.18933 12.2711 2.2893 12.5046 2.42264 12.8425C2.46039 12.9385 2.4939 13.0352 2.52765 13.1327C2.54129 13.172 2.55497 13.2115 2.56898 13.2511C2.61918 13.3919 2.70557 13.5183 2.82007 13.6185C2.86869 13.6736 2.93318 13.7137 3.0055 13.7338C3.07923 13.7543 3.15764 13.753 3.23059 13.7301C3.30353 13.7072 3.3676 13.6637 3.41447 13.6054C3.46043 13.5482 3.48775 13.4793 3.49307 13.4073C3.52288 13.267 3.5127 13.1216 3.46357 12.9864C3.38558 12.7619 3.29674 12.537 3.1943 12.3171L3.19382 12.3161C3.0253 11.9721 2.85399 11.6304 2.67457 11.2886L2.67323 11.2862C2.62071 11.1971 2.55245 11.1175 2.47153 11.0509C2.41899 10.9915 2.34652 10.9514 2.2665 10.9376C2.18476 10.9235 2.10047 10.9377 2.02866 10.9777C1.96072 11.0149 1.90687 11.0719 1.87489 11.1404Z" fill="#3A3B7B"/>
<path fill-rule="evenodd" clip-rule="evenodd" d="M4.4489 10.2932C4.18465 10.2276 3.90868 10.218 3.64022 10.2652C3.43228 10.2849 3.22777 10.3309 3.08576 10.4221C3.01353 10.4685 2.95514 10.5281 2.92266 10.6038C2.89 10.68 2.88583 10.7671 2.91259 10.8641C2.96146 11.0419 3.02492 11.2147 3.08816 11.387L3.0984 11.4149L3.09865 11.4155C3.28906 11.916 3.48128 12.4148 3.67525 12.9118C3.69787 12.9902 3.72986 13.0657 3.77057 13.137L3.77133 13.1383C3.82511 13.2269 3.89409 13.3061 3.97535 13.3726C4.01599 13.4092 4.06625 13.4345 4.12074 13.4458C4.17578 13.4572 4.23301 13.4539 4.2862 13.4362C4.33942 13.4185 4.38654 13.3872 4.42245 13.3455C4.45778 13.3046 4.48091 13.2552 4.48941 13.2027C4.52447 13.0601 4.51324 12.9106 4.4572 12.7742C4.43971 12.7283 4.42599 12.6815 4.41153 12.6321C4.40671 12.6156 4.40183 12.5989 4.39667 12.5818C4.84068 12.4153 5.31311 12.1913 5.47924 11.6702C5.5443 11.4901 5.54972 11.2952 5.49475 11.112C5.43974 10.9286 5.32688 10.7661 5.17171 10.6468C4.96052 10.4798 4.71382 10.3591 4.4489 10.2932ZM3.71643 10.9324C3.72518 10.93 3.73399 10.9277 3.74282 10.9256C4.03188 10.882 4.32763 10.9401 4.5756 11.0892C4.68488 11.1622 4.72965 11.2432 4.73734 11.3212C4.74527 11.4015 4.71485 11.4885 4.65375 11.5721C4.53828 11.7301 4.32756 11.8566 4.13722 11.8802C3.99846 11.5735 3.85755 11.2544 3.71643 10.9324Z" fill="#3A3B7B"/>
<path d="M6.21067 9.73181C6.52536 9.59233 6.91516 9.56823 7.22019 9.66631C7.29701 9.68778 7.36366 9.73424 7.40874 9.79772C7.45352 9.86081 7.47419 9.93683 7.46729 10.0128C7.46684 10.0622 7.45422 10.1107 7.43048 10.1545C7.40632 10.1991 7.37132 10.2374 7.32846 10.2663C7.2856 10.2951 7.23613 10.3137 7.18423 10.3203C7.13231 10.327 7.07952 10.3215 7.03027 10.3044L7.02653 10.3031L7.02301 10.3013C6.99781 10.2887 6.97105 10.2791 6.94336 10.2729L6.94162 10.2726C6.72704 10.2179 6.52464 10.3085 6.45071 10.4199C6.41545 10.473 6.41108 10.5266 6.44044 10.5753C6.4719 10.6275 6.54903 10.6861 6.70512 10.7279C6.74805 10.7392 6.79205 10.7501 6.83668 10.7612C6.96011 10.7919 7.08838 10.8238 7.21241 10.8679L7.21288 10.8681C7.78509 11.0771 7.99816 11.5098 7.92522 11.9169C7.85306 12.3194 7.5028 12.6857 6.97607 12.7722C6.78441 12.8129 6.58494 12.805 6.39743 12.7491C6.20944 12.6931 6.03999 12.5908 5.90592 12.4524L5.90242 12.4488C5.8601 12.3967 5.83163 12.3355 5.81901 12.2705C5.8074 12.2118 5.81351 12.1512 5.8366 12.0958C5.85956 12.0407 5.89838 11.993 5.94849 11.9583C6.00141 11.9189 6.06521 11.8953 6.13199 11.8903C6.19855 11.8854 6.26515 11.8993 6.32359 11.9303C6.38196 11.9573 6.43625 11.9918 6.48499 12.0329L6.48591 12.0337C6.57212 12.1093 6.67643 12.129 6.77645 12.1108C6.87793 12.0923 6.97336 12.0346 7.03474 11.9582C7.09571 11.8822 7.12019 11.7919 7.09114 11.7043C7.0619 11.616 6.97401 11.5171 6.78089 11.4345C6.73041 11.4139 6.67806 11.3973 6.62361 11.3811C6.60893 11.3768 6.594 11.3725 6.57889 11.3681C6.53863 11.3563 6.4972 11.3442 6.45658 11.3309C6.42861 11.3218 6.40086 11.3131 6.37337 11.3045C6.29825 11.281 6.22502 11.2581 6.15454 11.2274C6.00114 11.1773 5.86862 11.0811 5.77668 10.9529C5.68437 10.8243 5.63792 10.6705 5.64425 10.5144C5.64474 10.1341 5.89431 9.87207 6.21067 9.73181Z" fill="#3A3B7B"/>
<path d="M10.2003 9.69134C10.1393 9.66273 10.0718 9.64915 10.004 9.65182C9.9361 9.6545 9.87002 9.67334 9.81167 9.70668C9.75367 9.73977 9.70512 9.78611 9.67033 9.84159C9.63843 9.8883 9.61635 9.94054 9.60534 9.9954C9.59434 10.0502 9.59461 10.1065 9.60611 10.1612C9.61747 10.2315 9.63007 10.2999 9.64251 10.3673C9.66311 10.4788 9.68315 10.5878 9.69638 10.699L9.69687 10.7018C9.72698 10.8762 9.74274 11.0525 9.74415 11.2292L9.74428 11.2317C9.75457 11.4225 9.68683 11.6096 9.55558 11.7533L9.55349 11.7559C9.51079 11.8084 9.45369 11.8485 9.38857 11.8717C9.32347 11.8948 9.25295 11.9002 9.18487 11.887C9.11679 11.8739 9.05387 11.8429 9.00312 11.7974C8.95237 11.7519 8.91576 11.6936 8.89749 11.6293C8.85848 11.4939 8.83591 11.3545 8.83017 11.2141L8.89679 10.1961C8.89778 10.1828 8.8989 10.1691 8.90004 10.1554C8.90258 10.1244 8.90518 10.0929 8.90625 10.0636C8.90782 10.0204 8.90648 9.9759 8.89599 9.93383C8.88525 9.89083 8.86483 9.84993 8.8286 9.81509C8.79274 9.78061 8.74432 9.75517 8.68339 9.73786C8.57321 9.70725 8.48004 9.70822 8.40241 9.73984C8.32474 9.77146 8.27152 9.83017 8.23386 9.89799C8.19649 9.96523 8.17249 10.0448 8.15433 10.1246C8.14086 10.1838 8.13003 10.2459 8.11974 10.305C8.11618 10.3254 8.1127 10.3454 8.10918 10.3648L8.10909 10.3654C8.05404 10.6897 8.03765 11.0189 8.06025 11.3467C8.06446 11.5239 8.10295 11.6988 8.17379 11.8624C8.2537 12.0736 8.39845 12.2565 8.58892 12.3871C8.7798 12.518 9.00758 12.5901 9.2421 12.5939C9.47663 12.5977 9.70682 12.533 9.90221 12.4085C10.0973 12.2841 10.2485 12.1058 10.3357 11.8972C10.4579 11.6315 10.5152 11.3425 10.5034 11.0523C10.4962 10.8405 10.4842 10.627 10.4722 10.4145C10.4663 10.3104 10.4605 10.2064 10.4553 10.103C10.4526 9.99943 10.417 9.89906 10.3532 9.81542C10.3137 9.76255 10.2612 9.7199 10.2003 9.69134Z" fill="#3A3B7B"/>
<path d="M12.3599 11.2876C12.3537 11.2951 12.3472 11.3029 12.3403 11.3111C12.2907 11.0363 12.2447 10.7616 12.1986 10.4864C12.1821 10.3877 12.1655 10.2886 12.1488 10.1897L12.1469 10.1787L12.1408 10.1692C12.1293 10.1513 12.1282 10.1337 12.1282 10.0962V10.0918L12.1275 10.0875C12.115 10.0101 12.0785 9.93805 12.0228 9.88079C11.9672 9.82369 11.895 9.78395 11.8156 9.7667C11.7363 9.74793 11.653 9.75206 11.5761 9.7786C11.4994 9.80507 11.4326 9.85265 11.384 9.91536C11.3435 9.96349 11.3104 10.0169 11.2855 10.0739C11.2291 10.1968 11.1723 10.32 11.1152 10.4435L11.1143 10.4456C10.9719 10.754 10.8286 11.0644 10.6894 11.3773L10.689 11.3783C10.6035 11.5811 10.533 11.7949 10.4627 12.008C10.4487 12.0505 10.4347 12.093 10.4205 12.1354C10.3952 12.2027 10.3841 12.2741 10.3879 12.3455C10.3832 12.4094 10.3992 12.4732 10.4336 12.5282C10.4686 12.5843 10.5212 12.6284 10.5837 12.6544C10.65 12.6823 10.7242 12.6883 10.7944 12.6713C10.8645 12.6543 10.9267 12.6155 10.9713 12.5609C11.0282 12.4937 11.0772 12.4204 11.1172 12.3427C11.235 12.1112 11.3477 11.877 11.4599 11.6437C11.5033 11.5535 11.5454 11.4727 11.5934 11.3847C11.5967 11.3956 11.6001 11.4061 11.6035 11.4168C11.6538 11.6292 11.7387 11.8327 11.855 12.0198C11.877 12.0594 11.9077 12.0941 11.9449 12.1213C11.9825 12.1489 12.026 12.1683 12.0723 12.1781C12.1185 12.188 12.1664 12.188 12.2127 12.1783C12.2589 12.1685 12.3025 12.1491 12.3402 12.1217L12.4148 12.0681L12.9936 11.6001L12.9594 11.8095C12.9124 12.0973 12.8658 12.3827 12.8162 12.6682C12.7838 12.7947 12.7839 12.9269 12.8164 13.0533C12.8305 13.1245 12.8663 13.1901 12.9194 13.2416C12.9729 13.2935 13.0415 13.3288 13.1162 13.3429C13.1909 13.357 13.2683 13.3492 13.3383 13.3205C13.4073 13.2923 13.466 13.2451 13.507 13.1849C13.6024 13.0712 13.6618 12.9336 13.6782 12.7885C13.7027 12.5835 13.7305 12.3757 13.7582 12.168C13.7902 11.9285 13.8222 11.6891 13.8492 11.4544L13.8493 11.4537C13.8753 11.1967 13.8879 10.9386 13.887 10.6804C13.8927 10.5988 13.8716 10.5175 13.8265 10.4481C13.7812 10.3783 13.7142 10.3241 13.635 10.2931C13.5526 10.2572 13.4603 10.2476 13.3718 10.2657C13.2838 10.2838 13.2042 10.3283 13.1445 10.3927C13.0377 10.4875 12.9376 10.5889 12.8447 10.6963L12.844 10.6971C12.7426 10.8184 12.6419 10.9421 12.5418 11.065C12.4809 11.1397 12.4202 11.2142 12.3599 11.2876Z" fill="#3A3B7B"/>
</g>
<defs>
<clipPath id="clip0_212_1596">
<rect width="15.6917" height="9.68213" fill="white" transform="translate(0.435059 4.06616)"/>
</clipPath>
</defs>
</svg>
