<svg width="148" height="111" viewBox="0 0 148 111" fill="none" xmlns="http://www.w3.org/2000/svg">
<path d="M74.0404 110.287C105.611 110.287 131.204 108.793 131.204 106.95C131.204 105.107 105.611 103.612 74.0404 103.612C42.4697 103.612 16.8766 105.107 16.8766 106.95C16.8766 108.793 42.4697 110.287 74.0404 110.287Z" fill="#F5F5F5"/>
<path d="M103.302 32.4148L100.377 31.2355C100.377 31.2355 96.518 38.273 95.4124 38.6297C93.9088 39.1132 90.7954 40.4576 88.9498 40.6935C88.6992 40.9883 88.2894 41.9052 88.3277 42.2384C90.8072 43.0668 96.2556 41.9671 97.4231 41.1004C100.079 39.1339 103.302 32.4148 103.302 32.4148Z" fill="#E58A7B"/>
<path d="M104.201 30.8139C104.747 32.8275 101.792 36.8785 101.792 36.8785L97.9214 34.7085C97.9214 34.7085 98.6467 33.0428 99.5311 31.3475C100.949 28.6086 103.579 28.5172 104.201 30.8139Z" fill="#4CAF4F"/>
<path opacity="0.2" d="M104.201 30.8139C104.747 32.8275 101.792 36.8785 101.792 36.8785L97.9214 34.7085C97.9214 34.7085 98.6467 33.0428 99.5311 31.3475C100.949 28.6086 103.579 28.5172 104.201 30.8139Z" fill="black"/>
<path opacity="0.2" d="M99.4574 35.5752L100.982 36.4302L101.25 31.7513C100.363 32.4324 99.7375 34.4844 99.4574 35.5752Z" fill="black"/>
<path d="M101.654 29.2985C101.654 29.2985 98.6408 36.0028 100.398 48.4857H112.271C112.459 46.6637 111.834 37.7718 114.096 29.1864C112.793 28.9319 111.475 28.7635 110.151 28.6823C108.471 28.5849 106.786 28.5849 105.106 28.6823C103.942 28.8005 102.788 29.0065 101.654 29.2985Z" fill="#4CAF4F"/>
<path opacity="0.2" d="M101.654 29.2985C101.654 29.2985 98.6408 36.0028 100.398 48.4857H112.271C112.459 46.6637 111.834 37.7718 114.096 29.1864C112.793 28.9319 111.475 28.7635 110.151 28.6823C108.471 28.5849 106.786 28.5849 105.106 28.6823C103.942 28.8005 102.788 29.0065 101.654 29.2985Z" fill="black"/>
<g style="mix-blend-mode:multiply">
<path d="M98.9002 107.215C98.8825 107.533 103.385 107.79 108.954 107.79C114.523 107.79 119.057 107.533 119.075 107.215C119.093 106.897 114.594 106.643 109.022 106.643C103.449 106.643 98.9208 106.9 98.9002 107.215Z" fill="#E8ECF1"/>
</g>
<path d="M106.825 98.8487L104.719 99.6638L106.533 104.35L108.639 103.535L106.825 98.8487Z" fill="#E58A7B"/>
<path d="M116.215 104.948H113.995L113.182 99.8091H115.402L116.215 104.948Z" fill="#E58A7B"/>
<path d="M113.842 104.691H116.336C116.38 104.692 116.421 104.707 116.454 104.735C116.487 104.763 116.509 104.802 116.516 104.845L116.837 106.817C116.844 106.867 116.84 106.917 116.826 106.965C116.811 107.013 116.787 107.057 116.754 107.094C116.721 107.132 116.68 107.162 116.635 107.182C116.589 107.202 116.54 107.213 116.49 107.212C115.62 107.197 115.201 107.144 114.104 107.144C113.429 107.144 112.041 107.215 111.103 107.215C110.166 107.215 110.104 106.295 110.49 106.21C112.223 105.835 112.896 105.325 113.474 104.83C113.575 104.74 113.706 104.691 113.842 104.691Z" fill="#263238"/>
<path d="M106.471 103.931L108.83 103.241C108.872 103.229 108.917 103.232 108.957 103.249C108.997 103.266 109.03 103.297 109.051 103.335L109.935 105.104C109.956 105.149 109.967 105.198 109.966 105.247C109.966 105.297 109.955 105.345 109.934 105.39C109.913 105.435 109.882 105.474 109.844 105.506C109.806 105.537 109.762 105.56 109.714 105.573C108.856 105.809 108.281 105.953 107.208 106.266C106.468 106.481 105.714 106.832 104.982 107.065C104.475 107.227 103.284 107.233 102.668 107.233C101.757 107.233 101.554 106.272 101.946 106.227C102.933 106.118 103.066 106.168 103.611 105.894C104.504 105.504 105.313 104.946 105.994 104.249C106.122 104.103 106.287 103.993 106.471 103.931Z" fill="#263238"/>
<path d="M89.3213 40.6816L86.8801 39.6586L85.8748 42.3651C86.8753 42.5175 87.8932 42.5175 88.8938 42.3651L89.3213 40.6816Z" fill="#E58A7B"/>
<path d="M85.064 39.5879L84.9991 41.3863L85.8748 42.3593L86.8801 39.6528L85.064 39.5879Z" fill="#E58A7B"/>
<path d="M107.114 99.2466L105.002 100.062L105.937 102.485L108.05 101.67L107.114 99.2466Z" fill="#CF6F64"/>
<path d="M115.402 99.8091H113.182L113.603 102.46H115.823L115.402 99.8091Z" fill="#CF6F64"/>
<path opacity="0.2" d="M100.021 45.11C100.065 45.6436 100.115 46.189 100.18 46.7492L109.007 43.8835C110.385 43.4749 111.583 42.6087 112.403 41.4276C112.439 40.6404 112.483 39.8119 112.551 38.9481C112.58 38.5294 112.615 38.099 112.654 37.6627C112.692 37.2263 112.745 36.7428 112.801 36.277L100.021 45.11Z" fill="black"/>
<path d="M102.904 35.4397L102.609 35.4043C102.783 33.9302 103.883 32.7686 105.041 32.798V33.0929C104.027 33.0722 103.06 34.1189 102.904 35.4397Z" fill="white"/>
<path d="M104.475 38.1609H104.425V37.866C105.439 37.9044 106.392 36.8459 106.548 35.5281L106.843 35.5635C106.687 37.0052 105.622 38.1609 104.475 38.1609Z" fill="white"/>
<path d="M109.986 23.001C109.57 24.6255 109.081 27.6003 110.151 28.6823C110.151 28.6823 109.402 30.3304 106.386 30.3304C103.629 30.3304 105.106 28.6823 105.106 28.6823C106.94 28.2518 106.973 26.9133 106.731 25.6456L109.986 23.001Z" fill="#E58A7B"/>
<path d="M108.659 24.0801L106.734 25.6456C106.793 25.9369 106.828 26.2328 106.837 26.5301C107.4 27.0903 108.529 25.6721 108.644 24.9469C108.703 24.6613 108.708 24.3674 108.659 24.0801Z" fill="#CF6F64"/>
<path d="M103.423 22.9803C103.557 23.2125 103.737 23.4145 103.953 23.5738C104.168 23.7331 104.415 23.8462 104.676 23.906C105.383 24.0623 105.737 23.4107 105.543 22.7562C105.369 22.1666 104.788 21.3735 104.069 21.5091C103.914 21.5408 103.77 21.609 103.648 21.708C103.526 21.8069 103.429 21.9338 103.365 22.0778C103.302 22.2219 103.274 22.379 103.284 22.536C103.294 22.693 103.342 22.8454 103.423 22.9803Z" fill="#CF6F64"/>
<path d="M104.593 17.7825C103.491 18.2866 103.102 22.6678 104.487 23.3164C105.873 23.965 106.681 16.8243 104.593 17.7825Z" fill="#263238"/>
<path d="M110.322 20.5569C110.056 22.7563 110.027 24.0506 108.848 25.1768C108.482 25.5505 108.021 25.816 107.514 25.9439C107.007 26.0718 106.475 26.0572 105.976 25.9016C105.477 25.7461 105.03 25.4556 104.686 25.0624C104.342 24.6691 104.113 24.1884 104.024 23.6732C103.668 21.6979 104.16 18.4341 106.365 17.5585C106.829 17.3541 107.338 17.2774 107.841 17.3363C108.344 17.3952 108.822 17.5875 109.226 17.8934C109.629 18.1992 109.944 18.6075 110.137 19.0758C110.329 19.5442 110.393 20.0555 110.322 20.5569Z" fill="#E58A7B"/>
<path d="M106.698 18.9206C108.332 18.5049 109.532 18.2219 109.101 19.581C108.532 21.3971 107.848 23.1543 108.765 23.2339C109.325 23.284 111.802 22.2345 111.486 21.1701C111.212 20.2444 112.371 19.9908 112.577 19.522C113.341 17.8239 111.156 18.0479 111.545 17.016C111.934 15.9841 109.776 14.3213 108.597 15.1498C106.678 16.4883 103.384 16.4677 105.115 14.2653C106.356 12.6939 104.142 13.0152 104.142 13.0152C104.142 13.0152 105.481 13.8083 103.228 15.0348C100.846 16.3438 103.031 19.8611 106.698 18.9206Z" fill="#263238"/>
<path d="M111.188 22.9803C110.866 23.4469 110.382 23.7768 109.829 23.906C109.101 24.0623 108.821 23.4107 109.095 22.7562C109.34 22.1666 110.012 21.3735 110.708 21.5091C111.404 21.6447 111.563 22.4024 111.188 22.9803Z" fill="#E58A7B"/>
<path d="M100.398 48.4857C100.398 48.4857 98.4048 66.3227 98.2486 73.0919C98.0894 80.1323 105.003 102.1 105.003 102.1L108.541 100.626C108.541 100.626 104.413 80.554 105.003 73.6403C105.628 66.1016 108.211 48.4975 108.211 48.4975L100.398 48.4857Z" fill="#4CAF4F"/>
<path opacity="0.2" d="M105.351 53.3828C103.762 56.679 104.832 63.1976 105.693 67.0598C106.02 64.3326 106.409 61.3726 106.778 58.6337C106.743 54.4235 106.415 51.1716 105.351 53.3828Z" fill="black"/>
<path d="M108.385 99.4583C108.402 99.4583 108.803 100.584 108.803 100.584L104.723 102.3L104.08 101.103L108.385 99.4583Z" fill="#4CAF4F"/>
<path d="M104.611 48.4857C104.611 48.4857 106.135 65.45 107.144 71.8035C108.252 78.7644 112.598 101.947 112.598 101.947H116.663C116.663 101.947 114.228 79.3275 113.768 72.4344C113.267 64.9577 112.271 48.4857 112.271 48.4857H104.611Z" fill="#4CAF4F"/>
<path d="M116.725 100.888C116.743 100.888 116.861 102.023 116.861 102.023H112.391L112.073 100.72L116.725 100.888Z" fill="#4CAF4F"/>
<path opacity="0.2" d="M115.169 99.5438C115.159 99.5439 115.151 99.5407 115.143 99.5347C115.136 99.5287 115.132 99.5204 115.13 99.5113C115.107 99.305 112.91 78.8735 112.498 72.6822C112.049 65.966 111.147 51.0685 111.138 50.9181C111.138 50.9132 111.139 50.9083 111.14 50.9036C111.142 50.899 111.144 50.8947 111.148 50.8911C111.151 50.8875 111.155 50.8847 111.16 50.8827C111.164 50.8807 111.169 50.8797 111.174 50.8798C111.183 50.8797 111.193 50.8834 111.2 50.8899C111.207 50.8965 111.211 50.9055 111.212 50.9151C111.212 51.0655 112.123 65.9513 112.571 72.6792C112.984 78.8706 115.18 99.2873 115.201 99.5084C115.202 99.5133 115.202 99.5183 115.201 99.523C115.199 99.5278 115.197 99.5323 115.194 99.5362C115.191 99.5401 115.187 99.5433 115.183 99.5456C115.178 99.5479 115.174 99.5493 115.169 99.5497V99.5438Z" fill="black"/>
<path d="M106.949 21.1701C106.949 21.35 106.837 21.4944 106.719 21.4944C106.601 21.4944 106.516 21.35 106.527 21.1701C106.539 20.9903 106.639 20.8458 106.757 20.8458C106.875 20.8458 106.961 20.9932 106.949 21.1701Z" fill="#263238"/>
<path d="M104.927 21.1701C104.927 21.35 104.812 21.4944 104.697 21.4944C104.582 21.4944 104.493 21.35 104.502 21.1701C104.511 20.9903 104.617 20.8458 104.735 20.8458C104.853 20.8458 104.938 20.9932 104.927 21.1701Z" fill="#263238"/>
<path d="M105.563 21.2615C105.317 21.8106 105 22.3251 104.62 22.7916C104.915 23.0864 105.466 22.9508 105.466 22.9508L105.563 21.2615Z" fill="#DF5753"/>
<path d="M105.616 23.7027C105.61 23.7027 105.603 23.7013 105.596 23.6986C105.59 23.6959 105.585 23.6919 105.58 23.687C105.575 23.682 105.572 23.6761 105.569 23.6697C105.567 23.6633 105.566 23.6564 105.566 23.6496C105.567 23.6353 105.573 23.6218 105.584 23.6119C105.594 23.602 105.608 23.5965 105.622 23.5965C105.848 23.5981 106.071 23.5491 106.275 23.4532C106.479 23.3573 106.659 23.2169 106.802 23.0423C106.812 23.0334 106.825 23.0284 106.838 23.0284C106.852 23.0284 106.865 23.0334 106.875 23.0423C106.885 23.0522 106.89 23.0654 106.89 23.0791C106.89 23.0929 106.885 23.1061 106.875 23.116C106.723 23.3015 106.53 23.4506 106.312 23.5521C106.095 23.6536 105.857 23.7051 105.616 23.7027Z" fill="#263238"/>
<path d="M107.309 20.6276C107.294 20.6348 107.279 20.6386 107.263 20.6386C107.247 20.6386 107.231 20.6348 107.217 20.6276C107.107 20.5563 106.981 20.5119 106.851 20.4981C106.72 20.4843 106.588 20.5014 106.465 20.548C106.453 20.554 106.44 20.5575 106.427 20.5584C106.414 20.5592 106.4 20.5574 106.388 20.553C106.375 20.5486 106.363 20.5417 106.353 20.5328C106.344 20.5238 106.335 20.5129 106.33 20.5008C106.319 20.4746 106.319 20.4451 106.329 20.4187C106.34 20.3922 106.36 20.3709 106.386 20.3593C106.54 20.2963 106.707 20.2715 106.873 20.2869C107.039 20.3023 107.198 20.3575 107.338 20.4477C107.349 20.4554 107.359 20.4653 107.367 20.4767C107.374 20.4882 107.379 20.501 107.382 20.5144C107.384 20.5279 107.384 20.5417 107.381 20.555C107.378 20.5684 107.372 20.581 107.365 20.5922C107.35 20.6091 107.33 20.6214 107.309 20.6276Z" fill="#263238"/>
<path d="M104.145 20.0379C104.129 20.0341 104.115 20.0259 104.104 20.0143C104.094 20.0047 104.086 19.9933 104.081 19.9806C104.076 19.9679 104.073 19.9544 104.073 19.9406C104.073 19.9269 104.076 19.9133 104.081 19.9006C104.086 19.888 104.094 19.8765 104.104 19.8669C104.217 19.7402 104.358 19.6412 104.515 19.5778C104.673 19.5144 104.843 19.4882 105.012 19.5013C105.025 19.5034 105.038 19.5083 105.05 19.5156C105.062 19.5229 105.072 19.5325 105.079 19.5439C105.087 19.5552 105.092 19.568 105.095 19.5815C105.098 19.595 105.097 19.6088 105.094 19.6222C105.088 19.6495 105.072 19.6736 105.049 19.6898C105.026 19.7061 104.999 19.7135 104.971 19.7107C104.837 19.7022 104.703 19.7244 104.578 19.7755C104.454 19.8265 104.343 19.9052 104.254 20.0055C104.241 20.0204 104.223 20.0313 104.204 20.0371C104.185 20.0428 104.165 20.0431 104.145 20.0379Z" fill="#263238"/>
<path d="M115.237 32.0874L112.17 31.2708C112.17 31.2708 109.163 38.6738 108.099 39.1544C106.654 39.8148 102.995 42.1027 101.439 43.1847C101.353 43.5532 101.421 44.5291 101.616 44.7974C104.269 44.3139 109.349 42.3592 110.41 41.3656C112.831 39.0984 115.237 32.0874 115.237 32.0874Z" fill="#E58A7B"/>
<path d="M113.096 105.081C112.946 105.092 112.797 105.052 112.674 104.966C112.637 104.931 112.608 104.888 112.592 104.839C112.576 104.791 112.573 104.739 112.583 104.688C112.585 104.657 112.595 104.627 112.613 104.601C112.631 104.575 112.655 104.554 112.683 104.541C112.931 104.414 113.624 104.854 113.703 104.904C113.712 104.909 113.719 104.917 113.723 104.927C113.726 104.936 113.727 104.947 113.724 104.957C113.722 104.967 113.716 104.977 113.709 104.984C113.702 104.992 113.693 104.998 113.683 105.001C113.491 105.048 113.294 105.075 113.096 105.081ZM112.801 104.621C112.779 104.616 112.756 104.616 112.733 104.621C112.722 104.626 112.713 104.635 112.707 104.646C112.7 104.657 112.697 104.67 112.698 104.683C112.69 104.717 112.692 104.753 112.702 104.786C112.712 104.82 112.731 104.85 112.757 104.874C112.872 104.977 113.161 104.989 113.541 104.915C113.315 104.766 113.06 104.666 112.792 104.621H112.801Z" fill="#4CAF4F"/>
<path d="M113.668 105.001C113.66 105.003 113.652 105.003 113.644 105.001C113.423 104.877 113.008 104.391 113.07 104.143C113.079 104.104 113.101 104.069 113.133 104.044C113.164 104.018 113.203 104.005 113.244 104.004C113.283 103.999 113.323 104.002 113.361 104.014C113.4 104.026 113.435 104.046 113.465 104.072C113.709 104.282 113.724 104.924 113.724 104.957C113.726 104.966 113.724 104.976 113.719 104.985C113.714 104.993 113.707 105 113.698 105.004C113.688 105.006 113.677 105.005 113.668 105.001ZM113.273 104.102H113.252C113.185 104.102 113.176 104.14 113.173 104.155C113.137 104.299 113.4 104.668 113.618 104.842C113.617 104.593 113.54 104.35 113.397 104.146C113.363 104.116 113.318 104.1 113.273 104.102Z" fill="#4CAF4F"/>
<path d="M105.268 104.712C105.088 104.775 104.892 104.775 104.711 104.712C104.67 104.69 104.635 104.658 104.61 104.618C104.585 104.579 104.57 104.534 104.567 104.488C104.563 104.459 104.567 104.429 104.578 104.402C104.588 104.374 104.606 104.35 104.629 104.332C104.864 104.119 105.829 104.332 105.938 104.373C105.948 104.376 105.957 104.382 105.964 104.39C105.97 104.399 105.973 104.409 105.973 104.42C105.973 104.431 105.971 104.442 105.965 104.452C105.959 104.461 105.951 104.469 105.941 104.473C105.724 104.571 105.499 104.651 105.268 104.712ZM104.788 104.361C104.754 104.368 104.723 104.383 104.696 104.405C104.687 104.412 104.68 104.422 104.676 104.433C104.671 104.444 104.671 104.456 104.673 104.467C104.675 104.498 104.684 104.528 104.701 104.554C104.717 104.581 104.74 104.602 104.767 104.618C104.923 104.7 105.286 104.635 105.755 104.438C105.439 104.358 105.112 104.332 104.788 104.361Z" fill="#4CAF4F"/>
<path d="M105.932 104.473H105.908C105.613 104.42 105.024 104.081 105.006 103.828C105.006 103.769 105.033 103.686 105.174 103.639C105.222 103.622 105.273 103.615 105.323 103.618C105.374 103.621 105.423 103.634 105.469 103.657C105.787 103.813 105.955 104.379 105.964 104.405C105.966 104.414 105.966 104.424 105.963 104.432C105.961 104.441 105.956 104.449 105.949 104.455C105.945 104.463 105.939 104.469 105.932 104.473ZM105.233 103.727H105.204C105.112 103.76 105.112 103.798 105.112 103.81C105.112 103.963 105.54 104.243 105.837 104.338C105.769 104.101 105.624 103.893 105.425 103.748C105.365 103.718 105.297 103.71 105.233 103.727Z" fill="#4CAF4F"/>
<path d="M101.689 43.0107L98.6142 44.4259L98.2574 45.3104L99.3925 46.074C99.3925 46.074 101.515 45.844 102.12 44.479L101.689 43.0107Z" fill="#E58A7B"/>
<path d="M101.819 44.8475C101.75 44.2567 101.555 43.6876 101.247 43.1788L101.734 42.8132C102.099 43.3994 102.333 44.0585 102.418 44.7443L101.819 44.8475Z" fill="#263238"/>
<path d="M102.344 43.4294C102.409 43.5317 102.441 43.6515 102.435 43.7725C102.43 43.8936 102.387 44.01 102.313 44.1059C102.239 44.2019 102.137 44.2727 102.022 44.3088C101.906 44.3448 101.782 44.3444 101.667 44.3075C101.551 44.2706 101.45 44.199 101.377 44.1026C101.303 44.0061 101.262 43.8894 101.257 43.7683C101.252 43.6472 101.285 43.5277 101.351 43.4259C101.417 43.3241 101.512 43.2451 101.624 43.1995C101.75 43.1353 101.897 43.1234 102.031 43.1665C102.166 43.2095 102.278 43.304 102.344 43.4294Z" fill="#263238"/>
<path d="M96.5356 45.5698L96.9455 45.9826L99.705 44.8033L98.6142 44.4259L96.5356 45.5698Z" fill="#E58A7B"/>
<path opacity="0.2" d="M108.385 99.4583C108.402 99.4583 108.803 100.584 108.803 100.584L104.723 102.3L104.08 101.103L108.385 99.4583Z" fill="black"/>
<path opacity="0.2" d="M116.725 100.888C116.743 100.888 116.861 102.023 116.861 102.023H112.391L112.073 100.72L116.725 100.888Z" fill="black"/>
<path d="M116.035 31.2384C116.846 33.8535 113.677 37.4297 113.677 37.4297L109.299 35.6431C109.818 34.1316 110.416 32.6485 111.091 31.2C112.436 28.3019 115.216 28.5997 116.035 31.2384Z" fill="#4CAF4F"/>
<path opacity="0.2" d="M116.035 31.2384C116.846 33.8535 113.677 37.4297 113.677 37.4297L109.299 35.6431C109.818 34.1316 110.416 32.6485 111.091 31.2C112.436 28.3019 115.216 28.5997 116.035 31.2384Z" fill="black"/>
<path d="M72.5309 5.03723H70.647V5.3409H72.5309V5.03723Z" fill="#4CAF4F"/>
<path d="M96.9184 17.0562L96.6904 22.1162L96.9938 22.1299L97.2218 17.0699L96.9184 17.0562Z" fill="#4CAF4F"/>
<path d="M96.3322 6.39929H61.5427L58.3055 78.844H93.095L96.3322 6.39929Z" fill="#4CAF4F"/>
<path opacity="0.56" d="M95.2945 7.39575H60.505L57.2678 79.8404H92.0573L95.2945 7.39575Z" fill="#FAFAFA"/>
<path opacity="0.07" d="M94.2567 8.3894H59.4672L56.2271 80.8341H91.0165L94.2567 8.3894Z" fill="#4CAF4F"/>
<path d="M90.2972 39.9858H60.6023L60.3546 45.5286H90.0495L90.2972 39.9858Z" fill="white"/>
<path d="M76.9328 35.9409H60.7822L60.6731 38.4204H76.8237L76.9328 35.9409Z" fill="#4CAF4F"/>
<path d="M89.628 54.9453H59.9331L59.6854 60.488H89.3803L89.628 54.9453Z" fill="white"/>
<path opacity="0.47" d="M84.1825 67.9738H64.2139L63.9161 74.6162H83.8847L84.1825 67.9738Z" fill="#4CAF4F"/>
<path d="M82.8469 75.648H62.8783C62.8696 75.6503 62.8605 75.6503 62.8518 75.648C62.8489 75.6394 62.8489 75.6301 62.8518 75.6215L63.1466 68.9761C63.1466 68.9716 63.1475 68.9671 63.1493 68.963C63.1512 68.9588 63.1538 68.9551 63.1571 68.9521C63.1605 68.949 63.1644 68.9467 63.1687 68.9453C63.173 68.9438 63.1775 68.9433 63.182 68.9437H83.1506C83.1542 68.9419 83.1583 68.9409 83.1624 68.9409C83.1665 68.9409 83.1705 68.9419 83.1742 68.9437C83.1762 68.9473 83.1773 68.9513 83.1773 68.9555C83.1773 68.9596 83.1762 68.9637 83.1742 68.9673L82.8852 75.6274C82.8817 75.6343 82.8761 75.64 82.8693 75.6437C82.8624 75.6474 82.8546 75.6489 82.8469 75.648ZM62.9137 75.5773H82.8115L83.1064 69.0026H63.2085L62.9137 75.5773Z" fill="white"/>
<path d="M73.4449 50.9003H60.1129L60.0038 53.3827H73.3329L73.4449 50.9003Z" fill="#4CAF4F"/>
<path d="M83.8021 22.0811C83.7259 23.6942 83.1523 25.2442 82.1599 26.5182C81.4254 27.4806 80.48 28.2618 79.3966 28.802C78.3131 29.3423 77.1203 29.627 75.9096 29.6345C74.9313 29.642 73.9618 29.4491 73.0608 29.0677C72.1599 28.6863 71.3466 28.1244 70.671 27.4168C69.9954 26.7092 69.4718 25.8707 69.1325 24.9531C68.7932 24.0354 68.6454 23.058 68.6982 22.0811C68.8019 20.0539 69.6761 18.1428 71.142 16.7388C72.608 15.3348 74.555 14.5438 76.5848 14.5277C77.5638 14.5185 78.5344 14.7103 79.4364 15.091C80.3385 15.4718 81.1528 16.0334 81.8292 16.7414C82.5057 17.4493 83.0297 18.2883 83.369 19.2068C83.7084 20.1252 83.8558 21.1035 83.8021 22.0811Z" fill="white"/>
<path d="M84.5126 16.1079C84.4934 16.5368 84.3409 16.9491 84.0763 17.2872C83.8805 17.5428 83.629 17.7503 83.3408 17.8939C83.0526 18.0375 82.7354 18.1133 82.4135 18.1157C82.1016 18.1176 81.7939 18.0431 81.5174 17.8987C81.2409 17.7542 81.004 17.5443 80.8273 17.2872C80.5934 16.9398 80.4776 16.5263 80.4971 16.1079C80.5256 15.5697 80.7584 15.0626 81.1479 14.6901C81.5374 14.3175 82.0544 14.1076 82.5933 14.1031C82.8533 14.1007 83.1111 14.1516 83.3507 14.2527C83.5903 14.3537 83.8067 14.5027 83.9865 14.6905C84.1663 14.8783 84.3057 15.101 84.3962 15.3448C84.4867 15.5885 84.5263 15.8483 84.5126 16.1079Z" fill="#4CAF4F"/>
<path d="M63.8012 42.7572C63.787 42.9948 63.6833 43.2181 63.511 43.3823C63.3386 43.5464 63.1105 43.6391 62.8725 43.6417C62.7576 43.643 62.6436 43.6208 62.5376 43.5764C62.4316 43.532 62.3359 43.4663 62.2563 43.3834C62.1767 43.3005 62.115 43.2021 62.0749 43.0944C62.0349 42.9867 62.0173 42.8719 62.0234 42.7572C62.0362 42.5191 62.1394 42.2949 62.3121 42.1305C62.4847 41.9661 62.7137 41.8739 62.9521 41.8727C63.0669 41.8718 63.1806 41.8943 63.2864 41.9389C63.3922 41.9834 63.4878 42.0491 63.5673 42.1319C63.6468 42.2147 63.7085 42.3129 63.7487 42.4204C63.789 42.5279 63.8068 42.6425 63.8012 42.7572Z" fill="#263238"/>
<path d="M67.7754 42.7572C67.7619 42.995 67.6584 43.2188 67.486 43.3831C67.3135 43.5474 67.0849 43.6398 66.8467 43.6417C66.732 43.6427 66.6184 43.6201 66.5128 43.5755C66.4071 43.5309 66.3118 43.4652 66.2325 43.3823C66.1532 43.2995 66.0918 43.2013 66.0519 43.0938C66.012 42.9863 65.9945 42.8717 66.0006 42.7572C66.0133 42.5197 66.1162 42.2959 66.2882 42.1316C66.4602 41.9672 66.6884 41.8746 66.9263 41.8727C67.0412 41.8714 67.1552 41.8936 67.2612 41.938C67.3671 41.9824 67.4629 42.0481 67.5425 42.131C67.6221 42.2139 67.6838 42.3123 67.7239 42.42C67.7639 42.5277 67.7815 42.6425 67.7754 42.7572Z" fill="#263238"/>
<path d="M71.7527 42.7572C71.7392 42.995 71.6357 43.2188 71.4632 43.3831C71.2907 43.5474 71.0622 43.6398 70.824 43.6417C70.7092 43.6426 70.5954 43.6201 70.4896 43.5756C70.3839 43.531 70.2883 43.4653 70.2088 43.3825C70.1293 43.2997 70.0676 43.2015 70.0273 43.094C69.9871 42.9865 69.9693 42.8719 69.9749 42.7572C69.9884 42.5194 70.0919 42.2956 70.2643 42.1313C70.4368 41.9671 70.6654 41.8746 70.9036 41.8727C71.0185 41.8714 71.1325 41.8936 71.2384 41.938C71.3444 41.9824 71.4402 42.0481 71.5198 42.131C71.5993 42.2139 71.6611 42.3123 71.7011 42.42C71.7412 42.5277 71.7587 42.6425 71.7527 42.7572Z" fill="#263238"/>
<path d="M63.1318 57.7167C63.1177 57.9542 63.014 58.1776 62.8416 58.3417C62.6693 58.5059 62.4411 58.5986 62.2031 58.6011C62.0884 58.6021 61.9746 58.5796 61.8688 58.535C61.763 58.4904 61.6674 58.4247 61.588 58.3419C61.5085 58.2591 61.4467 58.1609 61.4065 58.0534C61.3663 57.9459 61.3484 57.8313 61.354 57.7167C61.3675 57.4788 61.471 57.2551 61.6435 57.0908C61.816 56.9265 62.0445 56.834 62.2827 56.8322C62.3975 56.8312 62.5113 56.8537 62.6171 56.8983C62.7229 56.9429 62.8184 57.0086 62.8979 57.0914C62.9774 57.1742 63.0392 57.2724 63.0794 57.3799C63.1196 57.4874 63.1375 57.602 63.1318 57.7167Z" fill="#263238"/>
<path d="M67.1062 57.7167C67.0928 57.954 66.9897 58.1773 66.8178 58.3415C66.646 58.5057 66.4181 58.5985 66.1805 58.6011C66.0656 58.6025 65.9516 58.5803 65.8456 58.5359C65.7396 58.4914 65.6439 58.4257 65.5643 58.3428C65.4847 58.2599 65.423 58.1616 65.3829 58.0539C65.3429 57.9462 65.3253 57.8314 65.3314 57.7167C65.3448 57.4788 65.4483 57.2551 65.6208 57.0908C65.7933 56.9265 66.0219 56.834 66.2601 56.8322C66.3747 56.8312 66.4884 56.8537 66.594 56.8983C66.6996 56.9429 66.795 57.0087 66.8743 57.0916C66.9536 57.1744 67.015 57.2726 67.0549 57.3801C67.0948 57.4876 67.1123 57.6022 67.1062 57.7167Z" fill="#263238"/>
<path d="M71.0923 57.7167C71.0788 57.9545 70.9753 58.1783 70.8028 58.3426C70.6303 58.5068 70.4018 58.5993 70.1636 58.6012C70.0489 58.6017 69.9353 58.5789 69.8297 58.5342C69.7242 58.4894 69.6288 58.4237 69.5493 58.341C69.4699 58.2583 69.4082 58.1603 69.3678 58.053C69.3274 57.9456 69.3093 57.8312 69.3145 57.7167C69.3286 57.4791 69.4323 57.2557 69.6047 57.0916C69.777 56.9275 70.0052 56.8348 70.2432 56.8322C70.3581 56.8308 70.472 56.8531 70.578 56.8975C70.684 56.9419 70.7797 57.0076 70.8593 57.0905C70.9389 57.1734 71.0006 57.2717 71.0407 57.3795C71.0808 57.4872 71.0983 57.6019 71.0923 57.7167Z" fill="#263238"/>
<path d="M75.0605 57.7167C75.0464 57.9542 74.9427 58.1776 74.7703 58.3417C74.598 58.5059 74.3698 58.5986 74.1318 58.6011C74.0172 58.6017 73.9036 58.5789 73.798 58.5341C73.6924 58.4894 73.597 58.4237 73.5176 58.341C73.4382 58.2583 73.3764 58.1603 73.3361 58.0529C73.2957 57.9456 73.2775 57.8312 73.2827 57.7167C73.2969 57.4791 73.4006 57.2557 73.5729 57.0916C73.7453 56.9274 73.9734 56.8347 74.2114 56.8322C74.3262 56.8312 74.44 56.8537 74.5458 56.8983C74.6516 56.9429 74.7471 57.0086 74.8266 57.0914C74.9061 57.1742 74.9679 57.2724 75.0081 57.3799C75.0483 57.4874 75.0662 57.602 75.0605 57.7167Z" fill="#263238"/>
<path d="M79.0525 57.7167C79.0384 57.9542 78.9347 58.1776 78.7623 58.3417C78.59 58.5059 78.3618 58.5986 78.1238 58.6011C78.0089 58.6025 77.895 58.5803 77.789 58.5359C77.683 58.4914 77.5872 58.4257 77.5077 58.3428C77.4281 58.2599 77.3663 58.1616 77.3263 58.0539C77.2862 57.9462 77.2687 57.8314 77.2747 57.7167C77.2882 57.4788 77.3917 57.2551 77.5642 57.0908C77.7367 56.9265 77.9652 56.834 78.2034 56.8322C78.3182 56.8312 78.432 56.8537 78.5378 56.8983C78.6436 56.9429 78.7391 57.0086 78.8186 57.0914C78.8981 57.1742 78.9599 57.2724 79.0001 57.3799C79.0403 57.4874 79.0582 57.602 79.0525 57.7167Z" fill="#263238"/>
<path d="M78.4492 21.6876C79.6832 20.4809 79.7487 18.5466 78.5954 17.3673C77.4422 16.1881 75.5069 16.2103 74.2729 17.4171C73.0389 18.6238 72.9735 20.5581 74.1267 21.7373C75.2799 22.9166 77.2152 22.8944 78.4492 21.6876Z" fill="#4CAF4F"/>
<path d="M82.16 26.5182C81.4254 27.4805 80.4801 28.2618 79.3966 28.802C78.3131 29.3422 77.1203 29.627 75.9097 29.6345C74.7357 29.6444 73.5773 29.3654 72.5366 28.8219C71.496 28.2784 70.6051 27.4873 69.9424 26.5182C71.3752 25.0912 73.6425 24.1595 76.1544 24.1595C78.6663 24.1595 80.8539 25.0912 82.16 26.5182Z" fill="#4CAF4F"/>
<path opacity="0.1" d="M78.4492 21.6876C79.6832 20.4809 79.7487 18.5466 78.5954 17.3673C77.4422 16.1881 75.5069 16.2103 74.2729 17.4171C73.0389 18.6238 72.9735 20.5581 74.1267 21.7373C75.2799 22.9166 77.2152 22.8944 78.4492 21.6876Z" fill="white"/>
<path opacity="0.1" d="M82.16 26.5182C81.4254 27.4805 80.4801 28.2618 79.3966 28.802C78.3131 29.3422 77.1203 29.627 75.9097 29.6345C74.7357 29.6444 73.5773 29.3654 72.5366 28.8219C71.496 28.2784 70.6051 27.4873 69.9424 26.5182C71.3752 25.0912 73.6425 24.1595 76.1544 24.1595C78.6663 24.1595 80.8539 25.0912 82.16 26.5182Z" fill="white"/>
<path d="M38.7822 46.8641C38.5021 47.4773 38.2073 48.1525 37.9508 48.807C37.6943 49.4615 37.4319 50.1367 37.2049 50.8089C36.7414 52.1336 36.3883 53.4945 36.1494 54.8775L36.0845 55.3109C36.0783 55.3852 36.0853 55.4601 36.1052 55.532C36.1747 55.7763 36.2843 56.0075 36.4295 56.216C36.8081 56.7557 37.2473 57.2503 37.7385 57.6901C38.2564 58.1718 38.7996 58.6255 39.3659 59.0493C39.932 59.4856 40.5276 59.9101 41.1143 60.3111L40.5629 61.3459C39.162 60.7355 37.8322 59.9733 36.5975 59.0728C35.9388 58.5924 35.3443 58.0297 34.8286 57.3982C34.5229 57.0224 34.2845 56.5964 34.1239 56.1393C34.0306 55.8538 33.9828 55.5553 33.9824 55.2548C33.9824 55.1841 33.9824 55.0809 33.9824 55.0308V54.8863L34.0119 54.5915C34.1809 53.0554 34.5039 51.5403 34.976 50.0688C35.206 49.3436 35.4507 48.6212 35.7307 47.9166C36.0108 47.212 36.2998 46.5221 36.6565 45.8057L38.7822 46.8641Z" fill="#E58A7B"/>
<path d="M40.6985 60.1283L42.7829 59.0729L42.2434 61.3607C42.2434 61.3607 40.8135 61.7617 40.1501 61.0659L40.6985 60.1283Z" fill="#E58A7B"/>
<path d="M44.6905 59.4473L44.1362 61.3401L42.2434 61.3607L42.7829 59.0729L44.6905 59.4473Z" fill="#E58A7B"/>
<path d="M47.6328 35.8258C47.7443 36.2344 47.8995 36.6298 48.0957 37.0051C48.0384 37.0701 47.9646 37.1184 47.8821 37.1449C47.7995 37.1713 47.7114 37.175 47.627 37.1555L47.6328 35.8258Z" fill="#DF5753"/>
<path d="M47.571 35.8435C47.6931 35.8435 47.7921 35.6917 47.7921 35.5045C47.7921 35.3172 47.6931 35.1654 47.571 35.1654C47.4489 35.1654 47.3499 35.3172 47.3499 35.5045C47.3499 35.6917 47.4489 35.8435 47.571 35.8435Z" fill="#263238"/>
<path d="M47.5061 35.1772L47.9542 35.0504C47.9542 35.0504 47.7361 35.3983 47.5061 35.1772Z" fill="#263238"/>
<path d="M41.8749 37.9899C42.1432 39.3608 42.4115 41.8757 41.4503 42.7926C41.4503 42.7926 41.8277 44.1842 44.3779 44.1842C47.1817 44.1842 45.7164 42.7926 45.7164 42.7926C44.1863 42.427 44.2246 41.2919 44.4929 40.2247L41.8749 37.9899Z" fill="#E58A7B"/>
<path d="M41.129 34.8648C41.2705 37.1556 41.2823 38.1285 42.438 39.3048C44.1805 41.0738 46.9636 40.4016 47.509 38.1255C48.0014 36.0618 47.6889 32.6654 45.4453 31.7543C44.9528 31.5515 44.4167 31.4776 43.8877 31.5397C43.3586 31.6017 42.8542 31.7978 42.4221 32.1092C41.99 32.4206 41.6444 32.8371 41.4182 33.3192C41.1919 33.8014 41.0924 34.3334 41.129 34.8648Z" fill="#E58A7B"/>
<path d="M41.356 32.2879C40.2061 32.7066 38.673 32.3941 39.2745 35.9408C39.9113 39.6969 38.9325 40.9322 38.9325 40.9322C38.9325 40.9322 43.293 41.8609 47.7448 40.8762C47.7448 40.8762 46.3857 38.4999 46.766 36.7487C47.2525 34.5375 46.8692 33.7208 46.8692 33.7208C46.8692 33.7208 42.9716 31.6983 41.356 32.2879Z" fill="#263238"/>
<path d="M46.2206 36.0587C46.2218 36.4943 46.3465 36.9206 46.5803 37.2882C46.8928 37.7658 47.2613 37.583 47.3527 37.0759C47.4353 36.6307 47.3734 35.8435 46.9753 35.5369C46.5773 35.2303 46.2265 35.531 46.2206 36.0587Z" fill="#E58A7B"/>
<path d="M40.3565 32.6742C40.0263 31.7455 41.6007 30.3156 44.9322 30.9053C48.2637 31.4949 48.4082 34.2692 48.4082 34.2692L47.736 33.4673L47.7655 34.3105L44.3426 34.968L40.3565 32.6742Z" fill="#263238"/>
<path d="M40.6395 42.9488C40.6199 42.8142 40.6535 42.6772 40.7334 42.5671C40.8132 42.4569 40.933 42.3823 41.067 42.3592C42.1048 42.1882 44.4634 41.8403 45.6486 42.0054C46.5331 42.1292 46.7631 42.6422 46.8014 43.0638C46.8074 43.1376 46.7975 43.2119 46.7724 43.2816C46.7473 43.3512 46.7076 43.4148 46.656 43.4678C46.6043 43.5209 46.5419 43.5623 46.4729 43.5892C46.4039 43.6161 46.3299 43.628 46.2559 43.624L41.1319 43.394C41.0111 43.3879 40.8961 43.3403 40.8064 43.2591C40.7166 43.178 40.6577 43.0684 40.6395 42.9488Z" fill="#4CAF4F"/>
<path opacity="0.6" d="M40.6395 42.9488C40.6199 42.8142 40.6535 42.6772 40.7334 42.5671C40.8132 42.4569 40.933 42.3823 41.067 42.3592C42.1048 42.1882 44.4634 41.8403 45.6486 42.0054C46.5331 42.1292 46.7631 42.6422 46.8014 43.0638C46.8074 43.1376 46.7975 43.2119 46.7724 43.2816C46.7473 43.3512 46.7076 43.4148 46.656 43.4678C46.6043 43.5209 46.5419 43.5623 46.4729 43.5892C46.4039 43.6161 46.3299 43.628 46.2559 43.624L41.1319 43.394C41.0111 43.3879 40.8961 43.3403 40.8064 43.2591C40.7166 43.178 40.6577 43.0684 40.6395 42.9488Z" fill="black"/>
<path d="M43.6025 94.455L45.5042 95.7758L48.6853 91.4625L46.7837 90.1447L43.6025 94.455Z" fill="#E58A7B"/>
<path d="M39.1683 94.3694L41.1761 95.5134L43.9917 90.9524L41.9839 89.8085L39.1683 94.3694Z" fill="#E58A7B"/>
<path d="M48.6825 91.4625L47.0432 93.6855L45.1416 92.3676L46.7808 90.1447L48.6825 91.4625Z" fill="#CF6F64"/>
<path d="M41.9811 89.8085L43.9918 90.9553L42.5412 93.3051L40.5305 92.1582L41.9811 89.8085Z" fill="#CF6F64"/>
<path d="M45.2064 57.3481C45.2064 57.3481 52.6301 66.703 51.2356 75.6509C50.1123 82.8771 43.5966 92.6624 43.5966 92.6624L40.5334 91.1411C42.6925 86.8146 44.5351 82.3372 46.0466 77.7442C46.5127 76.3182 46.6488 74.805 46.4445 73.3188C46.2402 71.8325 45.7009 70.4121 44.8673 69.1648C41.1053 63.6722 35.0791 66.9418 39.1329 57.3481H45.2064Z" fill="#4CAF4F"/>
<path opacity="0.6" d="M45.2064 57.3481C45.2064 57.3481 52.6301 66.703 51.2356 75.6509C50.1123 82.8771 43.5966 92.6624 43.5966 92.6624L40.5334 91.1411C42.6925 86.8146 44.5351 82.3372 46.0466 77.7442C46.5127 76.3182 46.6488 74.805 46.4445 73.3188C46.2402 71.8325 45.7009 70.4121 44.8673 69.1648C41.1053 63.6722 35.0791 66.9418 39.1329 57.3481H45.2064Z" fill="black"/>
<path opacity="0.4" d="M48.8475 63.3567L47.7684 62.2836C47.7684 62.3691 49.8588 75.2736 50.4455 78.9C50.7917 77.8406 51.0568 76.7565 51.2385 75.6569C51.9284 71.2669 50.4867 66.7826 48.8475 63.3567Z" fill="black"/>
<path d="M48.5203 57.3481C48.5203 57.3481 57.4594 69.1058 57.7129 76.1551C57.9223 82.0516 47.9837 93.4761 47.9837 93.4761L45.0944 91.6069C45.0944 91.6069 50.9113 83.4933 52.3766 76.8656C51.8105 70.2969 39.8406 57.3481 39.8406 57.3481H48.5203Z" fill="#4CAF4F"/>
<path opacity="0.6" d="M48.5203 57.3481C48.5203 57.3481 57.4594 69.1058 57.7129 76.1551C57.9223 82.0516 47.9837 93.4761 47.9837 93.4761L45.0944 91.6069C45.0944 91.6069 50.9113 83.4933 52.3766 76.8656C51.8105 70.2969 39.8406 57.3481 39.8406 57.3481H48.5203Z" fill="black"/>
<path d="M37.4614 43.3174C36.5061 43.5444 35.5892 47.0175 35.5892 47.0175L39.3247 49.5117C39.3247 49.5117 40.5688 46.7639 40.1325 45.561C39.6814 44.308 38.6613 43.0314 37.4614 43.3174Z" fill="#4CAF4F"/>
<path opacity="0.2" d="M38.1926 45.5552L37.9331 48.583L39.3217 49.5147C39.7052 48.6515 39.989 47.7474 40.1679 46.82L38.1926 45.5552Z" fill="black"/>
<path d="M49.6258 43.3852C49.6258 43.3852 50.7285 43.7714 48.5202 57.3452H39.1271C39.2863 53.5124 39.2892 51.1538 37.4613 43.3174C38.7765 43.0463 40.1097 42.8709 41.4503 42.7926C42.8705 42.6907 44.2962 42.6907 45.7164 42.7926C47.5503 42.9606 49.6258 43.3852 49.6258 43.3852Z" fill="#4CAF4F"/>
<path d="M50.5811 45.5551C50.7934 46.1447 51.0174 46.7786 51.2533 47.3889C51.4892 47.9992 51.7132 48.6272 51.952 49.2463L52.6744 51.0978L52.8571 51.5607L52.9515 51.7906L52.9957 51.9056C52.9957 51.9263 52.9957 51.9263 52.9957 51.9233C52.9418 51.8474 52.8712 51.7848 52.7893 51.7405C52.6727 51.6719 52.5412 51.6324 52.4061 51.6255C52.2938 51.622 52.1821 51.6432 52.0788 51.6875C51.9432 51.7494 51.9432 51.7759 51.9461 51.773C51.9706 51.7533 51.9925 51.7305 52.011 51.7051C52.1742 51.4909 52.3154 51.2607 52.4326 51.0182C52.5712 50.747 52.7038 50.458 52.8365 50.1662C53.096 49.5765 53.3348 48.9662 53.5736 48.35C53.8124 47.7338 54.0394 47.1118 54.2605 46.4838L54.9327 44.6028L56.0678 44.8976C55.8437 46.242 55.5548 47.551 55.2069 48.8837C55.0389 49.547 54.8413 50.2045 54.6173 50.8678C54.5052 51.201 54.3814 51.5312 54.2399 51.8702C54.0924 52.2382 53.9108 52.5916 53.6974 52.9257C53.619 53.0382 53.5323 53.1446 53.438 53.2441C53.2874 53.4067 53.1047 53.5363 52.9014 53.6245C52.721 53.7019 52.5256 53.7382 52.3294 53.7306C52.1097 53.7224 51.8956 53.6585 51.7073 53.5449C51.4852 53.4062 51.3009 53.2148 51.1707 52.9876C51.1265 52.911 51.0882 52.8343 51.0617 52.7783L51.0056 52.6663L50.8936 52.4363L50.6695 51.9793C50.3747 51.3661 50.0799 50.747 49.8234 50.1249C49.5669 49.5028 49.2957 48.8719 49.0421 48.238C48.7886 47.6041 48.5615 46.9702 48.3463 46.2862L50.5811 45.5551Z" fill="#E58A7B"/>
<path d="M49.6259 43.3852C50.7551 43.6535 52.0258 46.9909 52.0258 46.9909L48.6677 49.8478C48.6677 49.8478 46.4948 46.2096 46.9341 45.0097C47.3911 43.7596 48.1518 43.0344 49.6259 43.3852Z" fill="#4CAF4F"/>
<path d="M55.4664 43.5473L56.6457 42.5626L57.4653 43.8392L56.8609 44.9035C56.8609 44.9035 55.8998 45.788 55.0507 45.3369C54.9159 45.034 54.8836 44.6954 54.9586 44.3725C55.0336 44.0495 55.2119 43.7598 55.4664 43.5473Z" fill="#E58A7B"/>
<path d="M58.7743 42.5656L58.6859 42.8869L56.8196 43.1994L56.6368 42.5626L58.7743 42.5656Z" fill="#E58A7B"/>
<path d="M48.2136 93.6265L44.8467 91.4507L45.4511 90.4011L49.2337 92.7273L48.2136 93.6265Z" fill="#4CAF4F"/>
<path d="M42.494 95.3601C42.1986 95.324 41.9147 95.2234 41.6626 95.0653C41.6522 95.0617 41.6432 95.0549 41.6368 95.0459C41.6304 95.0369 41.627 95.0262 41.627 95.0152C41.627 95.0042 41.6304 94.9934 41.6368 94.9844C41.6432 94.9754 41.6522 94.9687 41.6626 94.965C41.754 94.9356 42.5471 94.6909 42.777 94.8795C42.8029 94.901 42.8225 94.929 42.8339 94.9606C42.8453 94.9923 42.8481 95.0264 42.8419 95.0594C42.8378 95.1125 42.8202 95.1636 42.7908 95.208C42.7614 95.2524 42.7211 95.2885 42.6738 95.3129C42.6186 95.3431 42.5569 95.3593 42.494 95.3601ZM41.8306 95.0358C42.1992 95.2245 42.494 95.2923 42.6355 95.2215C42.6663 95.2045 42.6923 95.1798 42.7108 95.1499C42.7294 95.1199 42.74 95.0857 42.7416 95.0506C42.7416 95.0034 42.7416 94.9827 42.7151 94.9709C42.5913 94.8707 42.149 94.9474 41.8247 95.0358H41.8306Z" fill="#263238"/>
<path d="M41.6832 95.0858C41.6677 95.0856 41.6528 95.0793 41.6419 95.0682C41.6376 95.06 41.6353 95.0509 41.6353 95.0416C41.6353 95.0324 41.6376 95.0232 41.6419 95.0151C41.6419 94.9886 41.8336 94.3488 42.1343 94.2043C42.1727 94.1868 42.2144 94.1777 42.2567 94.1777C42.2989 94.1777 42.3406 94.1868 42.379 94.2043C42.4204 94.2174 42.4562 94.2439 42.4808 94.2797C42.5054 94.3155 42.5173 94.3585 42.5146 94.4019C42.494 94.6672 41.9545 95.0328 41.7068 95.0947L41.6832 95.0858ZM42.2552 94.281C42.2265 94.2819 42.1984 94.2889 42.1726 94.3016C41.9898 94.3901 41.8395 94.735 41.7658 94.9443C42.0252 94.8352 42.382 94.5463 42.3937 94.3842C42.3937 94.3576 42.3937 94.3252 42.3259 94.2957C42.3039 94.2839 42.2799 94.2759 42.2552 94.2721V94.281Z" fill="#263238"/>
<path d="M46.7011 96.6338C46.368 96.6338 45.9051 96.2063 45.6516 95.9439C45.6451 95.9349 45.6416 95.924 45.6416 95.9129C45.6416 95.9018 45.6451 95.891 45.6516 95.882C45.6574 95.8725 45.6657 95.8647 45.6755 95.8595C45.6854 95.8543 45.6965 95.8519 45.7076 95.8525C45.8255 95.8525 46.8486 96.0058 46.993 96.2947C47.0083 96.3206 47.0164 96.3502 47.0164 96.3802C47.0164 96.4103 47.0083 96.4398 46.993 96.4657C46.9714 96.5107 46.9386 96.5495 46.8979 96.5784C46.8571 96.6072 46.8097 96.6253 46.7601 96.6308L46.7011 96.6338ZM45.8461 95.9852C46.2176 96.3449 46.5449 96.5453 46.7306 96.5218C46.7632 96.5175 46.7941 96.5053 46.8209 96.4863C46.8476 96.4673 46.8693 96.442 46.8839 96.4127C46.8905 96.4026 46.894 96.3908 46.894 96.3788C46.894 96.3667 46.8905 96.3549 46.8839 96.3449C46.8073 96.1856 46.2619 96.05 45.8461 95.9852Z" fill="#263238"/>
<path d="M45.8787 95.9703C45.8125 95.9722 45.7463 95.9673 45.6812 95.9556C45.6721 95.9542 45.6635 95.9505 45.6562 95.9448C45.649 95.9392 45.6434 95.9317 45.6399 95.9232C45.6355 95.9145 45.6332 95.9049 45.6332 95.8952C45.6332 95.8854 45.6355 95.8758 45.6399 95.8671C45.6576 95.8465 46.0556 95.3659 46.433 95.3335C46.5398 95.3252 46.6456 95.3591 46.7278 95.4279C46.8428 95.5281 46.8369 95.6165 46.8074 95.6726C46.7337 95.873 46.2236 95.9703 45.8787 95.9703ZM45.802 95.8613C46.1322 95.8789 46.66 95.7698 46.7278 95.6254C46.7278 95.6254 46.7514 95.5782 46.6747 95.5134C46.6442 95.4868 46.6086 95.4669 46.57 95.4547C46.5315 95.4425 46.4909 95.4384 46.4506 95.4426C46.1964 95.5135 45.9701 95.6607 45.802 95.8642V95.8613Z" fill="#263238"/>
<path d="M41.7629 94.7674L39.2627 94.0599C39.2196 94.0468 39.1732 94.0501 39.1324 94.0692C39.0916 94.0882 39.0593 94.1216 39.0416 94.163L38.1984 96.0588C38.1786 96.1073 38.1693 96.1595 38.1711 96.2119C38.1729 96.2643 38.1858 96.3158 38.2089 96.3628C38.2321 96.4099 38.2649 96.4515 38.3052 96.485C38.3456 96.5185 38.3926 96.543 38.4431 96.557C39.3276 96.787 39.7521 96.8519 40.8518 97.1673C41.5299 97.356 42.497 97.7069 43.4316 97.9722C44.3662 98.2375 44.6787 97.3265 44.316 97.1319C42.6768 96.2652 42.5471 95.6578 42.099 95.0092C42.0187 94.8917 41.8997 94.8062 41.7629 94.7674Z" fill="#4CAF4F"/>
<path d="M45.7194 95.5989L43.5848 94.1248C43.5486 94.0984 43.504 94.0862 43.4595 94.0906C43.4149 94.0949 43.3735 94.1155 43.3431 94.1483L41.9279 95.6697C41.8934 95.709 41.8677 95.7552 41.8524 95.8052C41.8372 95.8552 41.8328 95.9079 41.8395 95.9598C41.8461 96.0117 41.8638 96.0615 41.8913 96.1061C41.9187 96.1506 41.9553 96.1887 41.9987 96.218C42.7505 96.7222 43.1396 96.9256 44.0801 97.5772C44.6698 97.9781 45.8108 98.8685 46.6068 99.4228C47.4028 99.9771 47.9954 99.2164 47.7124 98.9157C46.4446 97.5624 46.1675 96.7133 45.9582 95.9438C45.9218 95.8042 45.8372 95.682 45.7194 95.5989Z" fill="#4CAF4F"/>
<path d="M43.9888 92.857L40.1414 90.9436L40.5394 89.8999L44.6492 91.9165L43.9888 92.857Z" fill="#4CAF4F"/>
<path d="M38.9856 56.7939L38.6613 57.643C38.6289 57.7079 38.7055 57.7757 38.8146 57.7757H48.5675C48.653 57.7757 48.7237 57.7344 48.7296 57.6813L48.8122 56.8381C48.8122 56.7821 48.7444 56.732 48.653 56.732H39.1389C39.1103 56.7293 39.0814 56.7335 39.0547 56.7443C39.0281 56.7551 39.0044 56.7721 38.9856 56.7939Z" fill="#4CAF4F"/>
<path opacity="0.4" d="M38.9856 56.7939L38.6613 57.643C38.6289 57.7079 38.7055 57.7757 38.8146 57.7757H48.5675C48.653 57.7757 48.7237 57.7344 48.7296 57.6813L48.8122 56.8381C48.8122 56.7821 48.7444 56.732 48.653 56.732H39.1389C39.1103 56.7293 39.0814 56.7335 39.0547 56.7443C39.0281 56.7551 39.0044 56.7721 38.9856 56.7939Z" fill="white"/>
<path d="M40.5216 57.8582H40.2651C40.215 57.8582 40.1767 57.8317 40.1796 57.7992L40.3005 56.7054C40.3005 56.6759 40.3477 56.6494 40.3978 56.6494H40.6543C40.7044 56.6494 40.7427 56.6759 40.7398 56.7054L40.6189 57.7992C40.6159 57.8317 40.5717 57.8582 40.5216 57.8582Z" fill="#4CAF4F"/>
<path d="M46.5361 57.8582H46.2826C46.2324 57.8582 46.1941 57.8317 46.1971 57.7992L46.315 56.7054C46.315 56.6759 46.3651 56.6494 46.4152 56.6494H46.6688C46.7189 56.6494 46.7602 56.6759 46.7543 56.7054L46.6364 57.7992C46.6216 57.8317 46.5892 57.8582 46.5361 57.8582Z" fill="#4CAF4F"/>
<g style="mix-blend-mode:multiply">
<path d="M40.2976 107.787C44.6597 107.787 48.196 107.531 48.196 107.215C48.196 106.899 44.6597 106.643 40.2976 106.643C35.9354 106.643 32.3992 106.899 32.3992 107.215C32.3992 107.531 35.9354 107.787 40.2976 107.787Z" fill="#F5F5F5"/>
</g>
<path d="M45.1091 106.407C43.7117 106 42.1609 105.479 41.2233 104.933C41.1968 104.915 41.1673 104.907 41.1408 104.892V98.5648H43.9682C44.1828 98.5521 44.3845 98.4579 44.5319 98.3015C44.6794 98.145 44.7615 97.9381 44.7615 97.7231C44.7615 97.5081 44.6794 97.3012 44.5319 97.1448C44.3845 96.9883 44.1828 96.8941 43.9682 96.8814H41.1555V68.0415H39.4573V96.8814H36.6476C36.5329 96.8746 36.418 96.8913 36.31 96.9306C36.202 96.9698 36.1031 97.0307 36.0195 97.1095C35.9358 97.1884 35.8692 97.2834 35.8236 97.389C35.7781 97.4945 35.7546 97.6082 35.7546 97.7231C35.7546 97.8381 35.7781 97.9518 35.8236 98.0573C35.8692 98.1628 35.9358 98.2579 36.0195 98.3367C36.1031 98.4156 36.202 98.4765 36.31 98.5157C36.418 98.5549 36.5329 98.5716 36.6476 98.5648H39.4573V104.883C39.4308 104.883 39.4043 104.907 39.3777 104.924C38.4254 105.479 36.8864 106 35.489 106.398C35.3946 106.427 35.3135 106.488 35.2605 106.571C35.2074 106.655 35.1859 106.754 35.1998 106.852C35.2137 106.949 35.2621 107.039 35.3362 107.104C35.4104 107.169 35.5053 107.205 35.604 107.206H44.9942C45.0884 107.2 45.1776 107.161 45.2468 107.097C45.3161 107.033 45.3612 106.947 45.3747 106.853C45.3881 106.76 45.3691 106.664 45.3208 106.583C45.2724 106.502 45.1978 106.44 45.1091 106.407Z" fill="#E0E0E0"/>
<path d="M45.5425 65.105H35.0584C34.215 65.105 33.5312 65.7887 33.5312 66.6322V69.7485C33.5312 70.5919 34.215 71.2757 35.0584 71.2757H45.5425C46.3859 71.2757 47.0697 70.5919 47.0697 69.7485V66.6322C47.0697 65.7887 46.3859 65.105 45.5425 65.105Z" fill="#4CAF4F"/>
<path d="M34.9612 71.2787V71.8153C34.9612 72.2575 35.4417 72.6172 36.0314 72.6172H44.5814C45.171 72.6172 45.6516 72.2575 45.6516 71.8153V71.2787H34.9612Z" fill="#4CAF4F"/>
<path opacity="0.3" d="M34.9612 71.2787V71.8153C34.9612 72.2575 35.4417 72.6172 36.0314 72.6172H44.5814C45.171 72.6172 45.6516 72.2575 45.6516 71.8153V71.2787H34.9612Z" fill="white"/>
</svg>
