<svg width="32" height="32" viewBox="0 0 32 32" fill="none" xmlns="http://www.w3.org/2000/svg">
<rect width="32" height="32" rx="8" fill="#FFF2E2"/>
<path d="M22.1042 13.8896C22.1042 13.8896 21.6517 19.5021 21.3892 21.8663C21.2642 22.9955 20.5667 23.6571 19.4242 23.678C17.25 23.7171 15.0733 23.7196 12.9 23.6738C11.8008 23.6513 11.115 22.9813 10.9925 21.8721C10.7283 19.4871 10.2783 13.8896 10.2783 13.8896" stroke="#130F26" stroke-width="1.5" stroke-linecap="round" stroke-linejoin="round"/>
<path d="M23.2567 11.1999H9.125" stroke="#130F26" stroke-width="1.5" stroke-linecap="round" stroke-linejoin="round"/>
<path d="M20.5335 11.1995C19.8793 11.1995 19.316 10.737 19.1877 10.0962L18.9852 9.08283C18.8602 8.61533 18.4368 8.29199 17.9543 8.29199H14.4268C13.9443 8.29199 13.521 8.61533 13.396 9.08283L13.1935 10.0962C13.0652 10.737 12.5018 11.1995 11.8477 11.1995" stroke="#130F26" stroke-width="1.5" stroke-linecap="round" stroke-linejoin="round"/>
</svg>
