<svg width="501" height="57" viewBox="0 0 501 57" fill="none" xmlns="http://www.w3.org/2000/svg">
<g filter="url(#filter0_d_22_777)">
<rect x="4" y="0.399048" width="48" height="48" rx="8" fill="#E8F5E9" shape-rendering="crispEdges"/>
<g clip-path="url(#clip0_22_777)">
<path fill-rule="evenodd" clip-rule="evenodd" d="M14.3533 0.593567C19.8761 0.593567 24.3533 5.07072 24.3533 10.5936V0.593567H34.3533C39.8761 0.593567 44.3533 5.07072 44.3533 10.5936C44.3533 16.1164 39.8761 20.5936 34.3533 20.5936C39.8761 20.5936 44.3533 25.0708 44.3533 30.5936C44.3533 33.3359 43.2494 35.8204 41.4618 37.627L41.4244 37.6647L41.3912 37.6977C39.5842 39.4879 37.0979 40.5936 34.3533 40.5936C31.6274 40.5936 29.1562 39.5029 27.3523 37.7341C27.3289 37.7111 27.3055 37.6879 27.2822 37.6647C27.2603 37.6428 27.2385 37.6208 27.2168 37.5987C25.4457 35.7945 24.3533 33.3216 24.3533 30.5936C24.3533 36.1164 19.8761 40.5936 14.3533 40.5936C8.83048 40.5936 4.35333 36.1164 4.35333 30.5936V20.5936H14.3533C8.83048 20.5936 4.35333 16.1164 4.35333 10.5936C4.35333 5.07072 8.83048 0.593567 14.3533 0.593567ZM22.3533 10.5936C22.3533 15.0119 18.7716 18.5936 14.3533 18.5936V2.59357C18.7716 2.59357 22.3533 6.17529 22.3533 10.5936ZM42.3533 30.5936C42.3533 26.1753 38.7716 22.5936 34.3533 22.5936C29.935 22.5936 26.3533 26.1753 26.3533 30.5936H42.3533ZM6.35333 22.5936V30.5936C6.35333 35.0119 9.93505 38.5936 14.3533 38.5936C18.7716 38.5936 22.3533 35.0119 22.3533 30.5936V22.5936H6.35333ZM26.3533 18.5936V2.59357H34.3533C38.7716 2.59357 42.3533 6.17529 42.3533 10.5936C42.3533 15.0119 38.7716 18.5936 34.3533 18.5936H26.3533Z" fill="#5417D7"/>
</g>
</g>
<rect x="93" y="0.399048" width="48" height="48" rx="8" fill="#F5F7FA"/>
<g clip-path="url(#clip1_22_777)">
<path fill-rule="evenodd" clip-rule="evenodd" d="M103.098 14.3605L93.1123 24.2458C95.1096 26.2231 97.3913 27.8895 99.8789 29.1932C100.567 30.9988 101.644 32.6921 103.112 34.1453C108.635 39.6126 117.59 39.6126 123.112 34.1453C124.58 32.6921 125.658 30.9988 126.346 29.1931C128.833 27.8895 131.115 26.2231 133.112 24.2458L123.135 14.3685C123.127 14.3611 123.12 14.3537 123.112 14.3463C117.59 8.87902 108.635 8.87902 103.112 14.3463C103.108 14.3511 103.103 14.3558 103.098 14.3605ZM122.157 30.9767C119.247 31.9489 116.192 32.4468 113.112 32.4468C110.033 32.4468 106.978 31.9489 104.068 30.9767C104.383 31.3908 104.731 31.7882 105.112 32.1654C109.531 36.5393 116.694 36.5393 121.112 32.1654C121.493 31.7882 121.842 31.3908 122.157 30.9767ZM105.317 16.1282C106.068 16.619 106.866 17.0389 107.7 17.3812C109.416 18.0848 111.255 18.4469 113.112 18.4469C114.97 18.4469 116.809 18.0848 118.524 17.3812C119.359 17.0389 120.157 16.6189 120.907 16.1282C116.544 12.0184 109.681 12.0184 105.317 16.1282Z" fill="#3B4158"/>
</g>
<rect x="182" y="0.399048" width="48" height="48" rx="8" fill="#F5F7FA"/>
<g clip-path="url(#clip2_22_777)">
<path d="M236.996 19.9155C237.001 19.8738 237.001 19.8316 236.996 19.7899C237.001 19.756 237.001 19.7213 236.996 19.6873L236.588 16.7546C236.53 16.4038 236.372 16.0758 236.134 15.8075L236.064 15.7276L235.937 15.6021L228.883 9.64552L229.081 9.83953C228.919 9.64964 228.716 9.49776 228.486 9.39507C228.256 9.29238 228.006 9.24149 227.754 9.24615H225.612C225.264 9.23938 224.924 9.34794 224.646 9.55425C224.355 9.34918 224.004 9.24118 223.645 9.24615H221.503C221.222 9.24168 220.945 9.31002 220.7 9.44428C220.455 9.57853 220.25 9.77393 220.107 10.0107C219.885 10.3488 219.802 10.7563 219.874 11.1518L220.142 13.0004C219.964 12.9018 219.763 12.8507 219.56 12.8521H209.189C208.817 12.8543 208.453 12.9613 208.141 13.1601C207.839 13.3453 207.597 13.6103 207.443 13.9247L206.64 13.2514C206.324 12.9647 205.906 12.8093 205.476 12.8178H189.204C188.83 12.8245 188.465 12.9268 188.144 13.1145C187.706 13.3662 187.384 13.7755 187.248 14.2556L182.08 31.201C181.984 31.4803 181.974 31.7814 182.053 32.0659C182.132 32.3504 182.295 32.6056 182.522 32.7986C182.582 32.8478 182.644 32.8936 182.709 32.9355C182.709 32.9355 182.604 32.867 182.546 32.81L189.599 38.778C189.898 39.0473 190.288 39.1978 190.693 39.2002H207.094C207.468 39.1906 207.833 39.0844 208.153 38.8921C208.333 38.7953 208.495 38.6678 208.63 38.5155L208.688 38.4356L208.781 38.3216L208.851 38.196L209.619 38.8465C209.913 39.1051 210.295 39.2473 210.69 39.2458H227.125C227.499 39.2336 227.864 39.1276 228.184 38.9377C228.361 38.8351 228.522 38.7083 228.662 38.5612L228.72 38.4813L228.813 38.3672C228.863 38.295 228.905 38.2187 228.941 38.1389C228.979 38.0698 229.01 37.9972 229.034 37.9222L233.748 22.4488V22.3118C233.754 22.2587 233.754 22.2052 233.748 22.1521V22.0494C233.754 22.0153 233.754 21.9807 233.748 21.9466C233.753 21.8745 233.753 21.802 233.748 21.7298H235.261C235.393 21.7417 235.525 21.7417 235.657 21.7298H235.762C235.847 21.7049 235.929 21.6704 236.006 21.6271H236.123L236.332 21.4674L236.425 21.3989L236.588 21.1935V21.1251L236.705 20.9311C236.698 20.8933 236.698 20.8547 236.705 20.817C236.698 20.7985 236.698 20.7785 236.705 20.7599C236.729 20.693 236.749 20.6243 236.763 20.5545C236.757 20.532 236.757 20.5085 236.763 20.486C236.757 20.4521 236.757 20.4173 236.763 20.3834C236.763 20.3834 236.996 19.9383 236.996 19.9155Z" fill="black"/>
<path d="M205.953 14.1187C206.015 14.1735 206.058 14.2455 206.077 14.3251C206.095 14.4047 206.089 14.4879 206.058 14.5637L200.901 31.4977C200.836 31.6826 200.704 31.8372 200.529 31.9314C200.387 32.0246 200.222 32.0797 200.052 32.0911H183.663C183.523 32.0845 183.391 32.0277 183.291 31.9314C183.231 31.8775 183.19 31.8074 183.171 31.7302C183.152 31.653 183.157 31.5721 183.186 31.4977L188.354 14.5637C188.413 14.3765 188.542 14.2178 188.715 14.1187C188.859 14.0322 189.023 13.9813 189.192 13.9703H205.58C205.719 13.9717 205.852 14.0247 205.953 14.1187ZM197.398 28.0858L200.482 17.9756H191.846L188.773 28.0858H197.398ZM221.597 14.2899C221.652 14.3536 221.722 14.4041 221.801 14.4377C221.88 14.4712 221.965 14.487 222.051 14.4838H224.181C224.262 14.4846 224.342 14.4651 224.413 14.4272C224.484 14.3893 224.544 14.3341 224.588 14.267C224.626 14.2146 224.652 14.1553 224.666 14.0926C224.68 14.0298 224.681 13.965 224.669 13.9019L224.25 10.8894C224.21 10.7499 224.139 10.6212 224.041 10.5128C223.985 10.4491 223.915 10.3986 223.836 10.365C223.758 10.3314 223.673 10.3156 223.587 10.3188H221.457C221.376 10.318 221.296 10.3375 221.225 10.3755C221.153 10.4134 221.093 10.4685 221.05 10.5356C220.968 10.6954 220.933 10.7981 220.968 10.8894L221.399 13.9019C221.421 14.0486 221.49 14.1845 221.597 14.2899ZM228.359 10.8665C228.319 10.7271 228.248 10.5984 228.15 10.49C228.096 10.4265 228.028 10.376 227.952 10.3423C227.875 10.3087 227.791 10.2928 227.707 10.296H225.566C225.486 10.2938 225.407 10.3127 225.337 10.3509C225.268 10.3891 225.21 10.445 225.17 10.5128C225.092 10.614 225.059 10.7412 225.077 10.8665L225.507 13.8791C225.534 14.0242 225.603 14.1588 225.705 14.267C225.762 14.3295 225.832 14.3792 225.911 14.4126C225.989 14.4461 226.074 14.4626 226.159 14.461H228.301C228.381 14.462 228.459 14.4426 228.528 14.4045C228.598 14.3665 228.656 14.3112 228.697 14.2442C228.737 14.1932 228.765 14.1339 228.78 14.0707C228.794 14.0075 228.793 13.942 228.778 13.8791L228.359 10.8665ZM219.723 15.431L219.513 13.9475H209.189C209.027 13.9563 208.87 14.0075 208.735 14.0959C208.649 14.1417 208.574 14.2052 208.516 14.2821C208.458 14.3589 208.417 14.4472 208.397 14.5409L207.536 17.3708C207.502 17.4415 207.49 17.5209 207.502 17.5983C207.515 17.6757 207.551 17.7475 207.606 17.8045C207.704 17.8949 207.832 17.9476 207.967 17.9528H220.514L217.43 28.063H204.917C204.756 28.0666 204.599 28.114 204.463 28.1999C204.299 28.3024 204.178 28.4609 204.126 28.645L203.253 31.4749C203.224 31.5475 203.217 31.6264 203.231 31.7029C203.245 31.7795 203.281 31.8506 203.334 31.9085C203.429 32.005 203.558 32.0622 203.695 32.0683H220.13C220.3 32.0539 220.464 31.9991 220.607 31.9085C220.779 31.8139 220.908 31.659 220.968 31.4749L225.694 16.0015H220.374C220.29 16.0031 220.206 15.9878 220.128 15.9564C220.05 15.925 219.979 15.8782 219.92 15.8189C219.824 15.7155 219.756 15.5899 219.723 15.4538V15.431Z" fill="white"/>
</g>
<rect x="271" y="0.399048" width="48" height="48" rx="8" fill="#F5F7FA"/>
<g clip-path="url(#clip3_22_777)">
<path d="M314.997 13.8106C314.997 13.8444 314.997 13.8866 314.988 13.912C314.944 14.2417 314.944 14.5714 314.97 14.9095C314.988 14.994 315.005 15.0786 315.076 15.1462C315.19 15.273 315.366 15.2476 315.437 15.0955C315.472 15.0194 315.472 14.9433 315.454 14.8672C315.366 14.546 315.349 14.2079 315.34 13.8782C315.34 13.8613 315.34 13.8359 315.34 13.8106C315.437 13.8021 315.525 13.7936 315.604 13.7936C315.666 13.7852 315.719 13.7767 315.763 13.7514C315.895 13.6838 315.895 13.54 315.754 13.4724C315.701 13.4471 315.631 13.4386 315.569 13.4386C315.349 13.4471 315.129 13.4471 314.908 13.4471C314.829 13.4471 314.75 13.4555 314.671 13.464C314.627 13.4724 314.574 13.4724 314.539 13.4978C314.477 13.5231 314.442 13.5654 314.442 13.6246C314.45 13.6838 314.477 13.7176 314.539 13.7429C314.574 13.7683 314.618 13.7767 314.662 13.7767C314.767 13.7852 314.882 13.8021 314.997 13.8106ZM317.419 14.1994C317.419 14.2079 317.427 14.2163 317.427 14.2163C317.463 14.4446 317.498 14.6644 317.524 14.8841C317.533 14.9602 317.542 15.0279 317.595 15.087C317.709 15.2307 317.885 15.2138 317.965 15.0617C318 14.9856 318.009 14.9095 317.991 14.825C317.938 14.5714 317.912 14.3178 317.859 14.0726C317.824 13.9204 317.78 13.7767 317.736 13.6415C317.709 13.557 317.648 13.4978 317.542 13.4893C317.436 13.4724 317.357 13.5231 317.313 13.5992C317.26 13.6668 317.216 13.7345 317.181 13.8106C317.119 13.9458 317.066 14.0811 316.996 14.2079C316.987 14.2417 316.978 14.267 316.961 14.2924C316.952 14.2755 316.943 14.267 316.943 14.267C316.829 14.0557 316.723 13.8444 316.608 13.6415C316.591 13.6246 316.582 13.6077 316.573 13.5908C316.52 13.5147 316.459 13.4724 316.362 13.4724C316.274 13.4809 316.203 13.5316 316.159 13.6077C316.142 13.6415 316.142 13.6668 316.133 13.7007C316.097 13.9712 316.053 14.2417 316.018 14.5122C316.001 14.6644 315.992 14.8165 315.992 14.9687C315.983 15.0025 315.992 15.0448 316.009 15.0786C316.027 15.1462 316.08 15.1885 316.15 15.1969C316.238 15.2054 316.3 15.18 316.326 15.1124C316.353 15.0617 316.362 15.0194 316.371 14.9771C316.406 14.825 316.432 14.6813 316.459 14.5376C316.476 14.453 316.485 14.3854 316.511 14.2924C316.529 14.3262 316.547 14.3516 316.564 14.3769C316.644 14.4784 316.723 14.5798 316.82 14.6644C316.917 14.732 316.996 14.7235 317.075 14.6474C317.093 14.6305 317.102 14.6221 317.119 14.6052C317.198 14.4868 317.295 14.3685 317.375 14.2501C317.392 14.2332 317.401 14.2163 317.419 14.1994Z" fill="#3A3B7B"/>
<path d="M297.124 13.9767C297.063 14.1373 297.052 14.253 297.08 14.3492C297.111 14.4801 297.192 14.5229 297.302 14.4896C298.337 14.2441 300.605 14.941 301.445 15.1353C301.643 15.176 301.804 14.9306 301.669 14.7106C301.472 14.4975 299.204 13.5852 298.339 13.5355C298 13.5171 297.394 13.4336 297.124 13.9767Z" fill="#3A3B7B"/>
<path d="M305.99 11.0235C306.101 11.0845 306.162 11.1428 306.193 11.2079C306.238 11.2933 306.214 11.3524 306.138 11.3825C305.454 11.7029 304.544 13.0819 304.177 13.5576C304.088 13.667 303.882 13.6034 303.851 13.4235C303.858 13.22 304.664 11.7234 305.115 11.3158C305.291 11.1566 305.584 10.8444 305.99 11.0235Z" fill="#3A3B7B"/>
<path d="M300.544 10.3446C300.677 10.2488 300.815 10.2152 300.885 10.2775C301.917 11.1244 302.464 12.4655 302.803 13.6933C302.815 13.7219 302.816 13.7629 302.806 13.8057C302.802 13.8423 302.774 13.881 302.73 13.9109C302.682 13.9439 302.642 13.954 302.623 13.9255C302.17 13.3352 299.588 11.0384 300.544 10.3446Z" fill="#3A3B7B"/>
<path d="M278.695 25.0277C278.943 24.8509 279.211 24.7038 279.496 24.5897C279.793 24.508 280.111 24.5215 280.4 24.6283C280.689 24.7351 280.933 24.9292 281.097 25.1814C281.244 25.4329 281.301 25.7233 281.26 26.0088C281.22 26.2942 281.084 26.5594 280.873 26.7643C280.709 26.9304 280.523 27.0751 280.321 27.1946C279.416 27.7556 278.503 28.2857 277.59 28.8467C277.404 28.9871 277.206 29.113 276.998 29.2232C276.682 29.3744 276.321 29.4148 275.978 29.3376C275.634 29.2605 275.33 29.0705 275.116 28.8006C274.957 28.6095 274.823 28.4005 274.716 28.1782C273.851 26.4339 272.955 24.6972 272.122 22.9222C271.738 22.1538 271.426 21.2701 271.121 20.4172C270.99 20.1694 270.964 19.8821 271.05 19.6163C271.135 19.3506 271.326 19.1274 271.58 18.9943C271.835 18.8611 272.133 18.8286 272.412 18.9034C272.692 18.9783 272.929 19.1548 273.075 19.3952C273.523 19.9664 273.919 20.5731 274.26 21.2087C275.124 22.7455 275.949 24.2823 276.782 25.773C276.83 25.8554 276.884 25.9349 276.942 26.0112C277.569 25.7583 278.158 25.4277 278.695 25.0277Z" fill="#3A3B7B"/>
<path d="M287.635 24.4916C285.658 26.7123 282.343 26.1513 280.678 23.2928C279.493 21.2642 279.285 17.9139 281.863 15.8008C282.413 15.3584 283.072 15.057 283.776 14.9248C284.64 14.8059 285.521 14.9522 286.294 15.3428C287.066 15.7333 287.689 16.3482 288.076 17.0994C289.485 19.5584 289.285 22.6935 287.635 24.4916ZM286.835 19.3124C286.625 18.7082 286.203 18.1923 285.642 17.8524C285.324 17.6351 284.938 17.5295 284.549 17.5533C284.16 17.5771 283.791 17.7288 283.504 17.9831C282.359 18.959 282.119 21.2719 282.952 22.6474C283.058 22.8717 283.214 23.071 283.409 23.2314C283.603 23.3918 283.832 23.5095 284.079 23.576C284.326 23.6427 284.586 23.6566 284.839 23.617C285.092 23.5774 285.333 23.4851 285.546 23.3466C286.166 22.8848 286.622 22.2489 286.848 21.5273C287.075 20.8057 287.062 20.0342 286.811 19.3202L286.835 19.3124Z" fill="#3A3B7B"/>
<path d="M295.706 20.2806C295.503 20.3224 295.294 20.3249 295.09 20.288C294.887 20.251 294.693 20.1754 294.521 20.0655C294.37 19.9826 294.24 19.8686 294.14 19.7318C294.04 19.5949 293.974 19.4385 293.945 19.2739C293.916 19.1093 293.925 18.9406 293.972 18.7798C294.019 18.6191 294.102 18.4703 294.216 18.3442C294.415 18.0909 294.697 17.9095 295.017 17.8294C295.852 17.5969 296.711 17.4551 297.579 17.4068C297.77 17.3855 297.963 17.401 298.147 17.4524C298.332 17.5038 298.503 17.5899 298.653 17.7059C298.802 17.8218 298.925 17.9653 299.016 18.1277C299.106 18.2901 299.162 18.4682 299.18 18.6516C299.43 19.5526 299.458 20.4973 299.26 21.4103C298.54 24.3609 296.058 25.3752 293.272 24.4301C292.49 24.1774 291.804 23.7065 291.302 23.0777C290.633 22.3204 290.159 21.4229 289.917 20.4574C289.721 19.5976 289.743 18.7055 289.98 17.8553C290.216 17.0052 290.662 16.2217 291.278 15.5703C291.863 14.8623 292.623 14.3051 293.488 13.9489C294.035 13.6597 294.674 13.5774 295.281 13.7184C295.419 13.755 295.544 13.8262 295.643 13.9248C295.742 14.0233 295.812 14.1456 295.846 14.2788C295.88 14.4121 295.875 14.5515 295.834 14.6827C295.792 14.8139 295.715 14.9319 295.61 15.0247C295.41 15.1984 295.192 15.3528 294.961 15.4858C294.249 15.9208 293.63 16.4814 293.136 17.1378C292.812 17.5626 292.588 18.0504 292.482 18.5668C292.375 19.0832 292.388 19.6158 292.519 20.127C292.701 20.8241 293.104 21.4497 293.672 21.9174C295.433 23.4542 297.723 21.9711 297.323 19.8734C296.738 20.0117 296.226 20.1577 295.706 20.2806Z" fill="#3A3B7B"/>
<path d="M306.466 24.6145C303.864 26.1514 300.902 24.6145 300.253 21.3872C299.781 19.082 300.678 15.8546 303.816 14.6251C304.484 14.3692 305.208 14.2793 305.922 14.3639C306.779 14.5145 307.565 14.9196 308.17 15.5221C308.775 16.1245 309.167 16.8939 309.292 17.7219C309.821 20.4651 308.62 23.3927 306.466 24.6145ZM307.371 19.4431C307.37 18.8047 307.135 18.187 306.706 17.6988C306.477 17.3968 306.146 17.1804 305.769 17.0865C305.393 16.9926 304.994 17.027 304.641 17.184C303.232 17.7679 302.239 19.8887 302.599 21.4487C302.627 21.6935 302.709 21.9296 302.842 22.1404C302.974 22.3512 303.153 22.5318 303.366 22.6694C303.579 22.8069 303.82 22.8983 304.074 22.937C304.327 22.9756 304.586 22.9607 304.833 22.8933C305.578 22.6436 306.222 22.1768 306.677 21.5583C307.132 20.9397 307.375 20.2002 307.371 19.4431Z" fill="#3A3B7B"/>
<path d="M311.924 25.26C311.884 25.5413 311.73 25.796 311.495 25.9682C311.26 26.1404 310.964 26.216 310.671 26.1783C310.378 26.1406 310.112 25.9927 309.933 25.7671C309.753 25.5417 309.675 25.2569 309.714 24.9757C309.753 24.6945 309.907 24.4397 310.142 24.2675C310.377 24.0953 310.674 24.0197 310.967 24.0574C311.26 24.0951 311.525 24.243 311.705 24.4685C311.884 24.6941 311.963 24.9788 311.924 25.26ZM311.227 14.8941C311.379 14.6709 311.603 14.5009 311.864 14.4095C312.125 14.3181 312.41 14.3102 312.676 14.3869C312.947 14.4519 313.186 14.6042 313.354 14.8182C313.521 15.0322 313.607 15.295 313.597 15.5626C313.562 15.9918 313.495 16.418 313.397 16.8382C313.133 18.2598 312.876 19.6813 312.596 21.0875C312.468 21.6485 312.3 22.1864 312.116 22.755C312.052 22.9327 311.945 23.0933 311.803 23.2237C311.716 23.3218 311.604 23.397 311.478 23.4424C311.351 23.4879 311.216 23.502 311.082 23.4836C310.949 23.4653 310.823 23.4149 310.715 23.3373C310.607 23.2596 310.522 23.1571 310.466 23.0393C310.371 22.828 310.32 22.6009 310.314 22.3708C310.314 21.4179 310.314 20.4574 310.378 19.4969C310.487 18.1261 310.701 16.7649 311.019 15.4243C311.056 15.2447 311.127 15.0729 311.227 14.9171V14.8941Z" fill="#3A3B7B"/>
<path fill-rule="evenodd" clip-rule="evenodd" d="M275.313 31.4349C275.218 31.6374 275.192 31.8632 275.238 32.0805C275.269 32.3669 275.337 32.6487 275.439 32.9193C275.568 33.2507 275.711 33.5784 275.888 33.9823C275.929 34.0752 275.971 34.1723 276.016 34.2744C276.254 34.8215 276.554 35.5208 276.953 36.5329C277.066 36.8204 277.167 37.1102 277.268 37.4021C277.309 37.52 277.35 37.6383 277.392 37.7569C277.542 38.1784 277.801 38.5571 278.144 38.8573C278.289 39.0222 278.482 39.1425 278.699 39.2026C278.92 39.2639 279.155 39.26 279.373 39.1914C279.592 39.1228 279.784 38.9927 279.924 38.818C280.062 38.6467 280.143 38.4403 280.159 38.2246C280.249 37.8045 280.218 37.3689 280.071 36.9639C279.837 36.2914 279.571 35.618 279.265 34.9593L279.263 34.9564C278.758 33.9258 278.245 32.9024 277.708 31.8786L277.704 31.8714C277.547 31.6046 277.342 31.3662 277.1 31.1667C276.942 30.9887 276.725 30.8686 276.486 30.8272C276.241 30.785 275.988 30.8276 275.773 30.9475C275.57 31.059 275.408 31.2296 275.313 31.4349Z" fill="#3A3B7B"/>
<path fill-rule="evenodd" clip-rule="evenodd" d="M283.022 28.8972C282.231 28.7004 281.404 28.6718 280.6 28.8132C279.977 28.8721 279.365 29.0099 278.939 29.2831C278.723 29.4221 278.548 29.6006 278.451 29.8274C278.353 30.0555 278.341 30.3164 278.421 30.6071C278.567 31.1395 278.757 31.6571 278.947 32.1731L278.977 32.2567L278.978 32.2585C279.548 33.7576 280.124 35.2515 280.705 36.7404C280.773 36.975 280.869 37.2013 280.991 37.4148L280.993 37.4188C281.154 37.684 281.361 37.9212 281.604 38.1204C281.726 38.23 281.876 38.3058 282.039 38.3396C282.204 38.3738 282.376 38.3639 282.535 38.3109C282.694 38.258 282.836 38.1641 282.943 38.0394C283.049 37.9167 283.118 37.7689 283.144 37.6117C283.249 37.1844 283.215 36.7366 283.047 36.3282C282.995 36.1908 282.954 36.0503 282.91 35.9025C282.896 35.8532 282.881 35.8031 282.866 35.752C284.196 35.253 285.611 34.5822 286.108 33.0214C286.303 32.4821 286.32 31.8981 286.155 31.3494C285.99 30.8002 285.652 30.3134 285.187 29.9561C284.555 29.4558 283.816 29.0944 283.022 28.8972ZM280.828 30.8115C280.855 30.8043 280.881 30.7975 280.907 30.7913C281.773 30.6606 282.659 30.8347 283.402 31.2813C283.729 31.4998 283.863 31.7425 283.886 31.9761C283.91 32.2166 283.819 32.4772 283.636 32.7277C283.29 33.201 282.659 33.5797 282.089 33.6503C281.673 32.7317 281.251 31.7759 280.828 30.8115Z" fill="#3A3B7B"/>
<path d="M288.299 27.2157C289.242 26.7979 290.409 26.7257 291.323 27.0194C291.553 27.0838 291.753 27.2229 291.888 27.4131C292.022 27.602 292.084 27.8297 292.063 28.0574C292.062 28.2052 292.024 28.3505 291.953 28.4817C291.88 28.6152 291.775 28.7301 291.647 28.8165C291.519 28.9029 291.371 28.9585 291.215 28.9783C291.06 28.9982 290.901 28.9819 290.754 28.9307L290.743 28.9268L290.732 28.9215C290.657 28.8836 290.577 28.855 290.494 28.8364L290.488 28.8353C289.846 28.6715 289.24 28.9429 289.018 29.2765C288.912 29.4355 288.899 29.5961 288.987 29.7422C289.082 29.8986 289.313 30.0741 289.78 30.1992C289.909 30.233 290.04 30.2657 290.174 30.299C290.544 30.3908 290.928 30.4863 291.3 30.6185L291.301 30.6191C293.015 31.2449 293.653 32.5412 293.435 33.7604C293.218 34.966 292.169 36.0633 290.592 36.3221C290.018 36.4442 289.42 36.4205 288.858 36.2531C288.295 36.0852 287.788 35.779 287.386 35.3645L287.376 35.3537C287.249 35.1976 287.164 35.0142 287.126 34.8195C287.091 34.6439 287.11 34.4624 287.179 34.2963C287.247 34.1313 287.364 33.9885 287.514 33.8844C287.672 33.7664 287.863 33.6956 288.063 33.6809C288.263 33.6662 288.462 33.7078 288.637 33.8004C288.812 33.8815 288.975 33.9849 289.121 34.1079L289.123 34.1101C289.382 34.3368 289.694 34.3959 289.994 34.3412C290.298 34.2857 290.584 34.113 290.767 33.884C290.95 33.6564 291.023 33.3861 290.936 33.1236C290.849 32.8593 290.585 32.5631 290.007 32.3154C289.856 32.2538 289.699 32.2041 289.536 32.1557C289.492 32.1427 289.447 32.1297 289.402 32.1165C289.281 32.0814 289.157 32.0452 289.036 32.0053C288.952 31.9779 288.869 31.952 288.786 31.9262C288.561 31.8559 288.342 31.7873 288.131 31.6954C287.672 31.5452 287.275 31.2569 286.999 30.8732C286.723 30.4878 286.584 30.0271 286.603 29.5596C286.604 28.4205 287.352 27.6358 288.299 27.2157Z" fill="#3A3B7B"/>
<path d="M300.249 27.0943C300.066 27.0086 299.864 26.968 299.661 26.976C299.457 26.984 299.26 27.0404 299.085 27.1403C298.911 27.2394 298.766 27.3782 298.661 27.5444C298.566 27.6843 298.5 27.8408 298.467 28.0051C298.434 28.1692 298.435 28.338 298.469 28.5018C298.503 28.7123 298.541 28.917 298.578 29.1189C298.64 29.453 298.7 29.7795 298.739 30.1125L298.741 30.1209C298.831 30.6431 298.878 31.1713 298.883 31.7005L298.883 31.708C298.914 32.2796 298.711 32.84 298.318 33.2704L298.311 33.2781C298.184 33.4354 298.013 33.5555 297.818 33.6249C297.623 33.6943 297.411 33.7102 297.207 33.6709C297.003 33.6317 296.815 33.5387 296.663 33.4025C296.511 33.2663 296.401 33.0916 296.347 32.8991C296.23 32.4933 296.162 32.0759 296.145 31.6552L296.345 28.6061C296.347 28.5663 296.351 28.5254 296.354 28.4842C296.362 28.3916 296.37 28.2972 296.373 28.2092C296.378 28.0798 296.374 27.9467 296.342 27.8206C296.31 27.6919 296.249 27.5693 296.14 27.465C296.033 27.3617 295.888 27.2855 295.705 27.2337C295.375 27.142 295.096 27.1449 294.864 27.2396C294.631 27.3343 294.472 27.5102 294.359 27.7133C294.247 27.9147 294.175 28.1532 294.121 28.392C294.08 28.5692 294.048 28.7553 294.017 28.9324C294.006 28.9934 293.996 29.0533 293.985 29.1115L293.985 29.1133C293.82 30.0845 293.771 31.0706 293.839 32.0525C293.852 32.5832 293.967 33.107 294.179 33.5971C294.418 34.2296 294.852 34.7776 295.422 35.1687C295.994 35.5607 296.676 35.7767 297.379 35.7881C298.081 35.7995 298.771 35.6058 299.356 35.2327C299.94 34.8601 300.393 34.3261 300.654 33.7013C301.02 32.9055 301.192 32.04 301.157 31.1707C301.135 30.5362 301.099 29.8967 301.063 29.2605C301.046 28.9484 301.028 28.637 301.012 28.3275C301.005 28.0171 300.898 27.7165 300.707 27.466C300.589 27.3076 300.431 27.1799 300.249 27.0943Z" fill="#3A3B7B"/>
<path d="M306.717 31.8754C306.699 31.898 306.679 31.9214 306.659 31.9458C306.51 31.1227 306.372 30.2999 306.234 29.4758C306.185 29.1801 306.135 28.8832 306.085 28.5872L306.08 28.5541L306.061 28.5256C306.027 28.4719 306.023 28.4192 306.023 28.3069V28.2939L306.021 28.2811C305.984 28.0491 305.875 27.8333 305.708 27.6618C305.541 27.4908 305.325 27.3717 305.087 27.3201C304.85 27.2638 304.6 27.2762 304.37 27.3557C304.14 27.435 303.94 27.5775 303.794 27.7653C303.673 27.9095 303.574 28.0694 303.499 28.2402C303.331 28.6082 303.16 28.9772 302.989 29.3472L302.987 29.3535C302.56 30.2771 302.131 31.2069 301.714 32.144L301.713 32.147C301.457 32.7547 301.246 33.3949 301.035 34.0332C300.993 34.1606 300.951 34.2879 300.909 34.4149C300.833 34.6163 300.799 34.8303 300.811 35.0441C300.797 35.2356 300.845 35.4266 300.948 35.5913C301.053 35.7594 301.21 35.8916 301.397 35.9694C301.596 36.053 301.818 36.0707 302.028 36.0199C302.238 35.969 302.425 35.8528 302.558 35.6893C302.729 35.488 302.876 35.2684 302.995 35.0357C303.348 34.3425 303.686 33.6408 304.022 32.9422C304.152 32.6719 304.278 32.4299 304.422 32.1664C304.431 32.1988 304.442 32.2305 304.452 32.2623C304.603 32.8987 304.857 33.5082 305.205 34.0686C305.271 34.1873 305.363 34.291 305.474 34.3727C305.587 34.4553 305.717 34.5133 305.856 34.5428C305.994 34.5722 306.138 34.5724 306.277 34.5432C306.415 34.514 306.546 34.456 306.658 34.3737L306.882 34.2132L308.616 32.8115L308.513 33.4387C308.372 34.3007 308.233 35.1555 308.084 36.0106C307.987 36.3895 307.987 36.7854 308.085 37.1642C308.127 37.3775 308.234 37.5737 308.393 37.7281C308.554 37.8837 308.759 37.9894 308.983 38.0316C309.206 38.0737 309.438 38.0504 309.648 37.9645C309.855 37.8799 310.03 37.7385 310.153 37.5582C310.439 37.2178 310.617 36.8057 310.666 36.3709C310.739 35.7569 310.823 35.1345 310.906 34.5123C311.002 33.7952 311.097 33.0782 311.178 32.375L311.179 32.3728C311.256 31.6031 311.294 30.8302 311.292 30.0568C311.309 29.8124 311.245 29.5689 311.11 29.3609C310.975 29.1521 310.774 28.9897 310.537 28.8969C310.29 28.7892 310.013 28.7604 309.748 28.8148C309.485 28.8689 309.246 29.0021 309.068 29.1952C308.748 29.479 308.448 29.7828 308.169 30.1045L308.168 30.1067C307.864 30.47 307.562 30.8405 307.262 31.2086C307.08 31.4324 306.898 31.6556 306.717 31.8754Z" fill="#3A3B7B"/>
</g>
<rect x="360" y="0.399048" width="48" height="48" rx="8" fill="#F5F7FA"/>
<g clip-path="url(#clip4_22_777)">
<path d="M398.438 12.0896C398.438 12.5556 398.82 12.9333 399.292 12.9333H400.146C400.618 12.9333 401 12.5556 401 12.0896C401 11.6236 400.618 11.2458 400.146 11.2458H399.292C398.82 11.2458 398.438 11.6236 398.438 12.0896Z" fill="#212326"/>
<path d="M373.667 38.2458H377.816L376.608 37.0526C376.288 36.7361 375.853 36.5583 375.4 36.5583H373.667C367.062 36.5583 361.708 31.2697 361.708 24.7458C361.708 18.222 367.062 12.9334 373.667 12.9333H387.333C393.938 12.9333 399.292 18.222 399.292 24.7458C399.292 31.2697 393.938 36.5583 387.333 36.5583H382.221C381.541 36.5583 380.889 36.2917 380.409 35.817L378.994 34.419C378.193 33.6278 377.106 33.1833 375.974 33.1833H373.667C368.949 33.1833 365.125 29.4058 365.125 24.7458C365.125 20.0859 368.949 16.3083 373.667 16.3083H387.333C392.051 16.3083 395.875 20.0859 395.875 24.7458C395.875 29.4058 392.051 33.1833 387.333 33.1833H384.051C383.371 33.1833 382.719 32.9167 382.239 32.442L380.823 31.044C380.022 30.2528 378.936 29.8083 377.803 29.8083H373.667C370.836 29.8083 368.542 27.5418 368.542 24.7458C368.542 21.9499 370.836 19.6833 373.667 19.6833H387.333C390.164 19.6833 392.458 21.9499 392.458 24.7458C392.458 27.5077 390.219 29.753 387.437 29.8073L387.436 29.8083H386.186C385.506 29.8083 384.855 29.5417 384.374 29.067L382.959 27.669C382.302 27.0198 381.452 26.6041 380.543 26.4757L380.5 26.4333H373.667C372.723 26.4333 371.958 25.6778 371.958 24.7458C371.958 23.8139 372.723 23.0583 373.667 23.0583H387.333C388.277 23.0583 389.042 23.8139 389.042 24.7458C389.042 25.6778 388.277 26.4333 387.333 26.4333H383.917L385.125 27.6266C385.445 27.9431 385.88 28.1208 386.333 28.1208H387.333C389.22 28.1208 390.75 26.6098 390.75 24.7458C390.75 22.8819 389.22 21.3708 387.333 21.3708H373.667C371.78 21.3708 370.25 22.8819 370.25 24.7458C370.25 26.6098 371.78 28.1208 373.667 28.1208H379.939C380.619 28.1208 381.27 28.3875 381.751 28.8622L383.166 30.2602C383.967 31.0514 385.053 31.4958 386.186 31.4958H387.76V31.4829C391.335 31.2651 394.167 28.3321 394.167 24.7458C394.167 21.018 391.107 17.9958 387.333 17.9958H373.667C369.893 17.9958 366.833 21.018 366.833 24.7458C366.833 28.4738 369.893 31.4958 373.667 31.4958H377.803C378.483 31.4958 379.135 31.7625 379.615 32.2372L381.031 33.6352C381.832 34.4264 382.918 34.8708 384.051 34.8708H387.333C392.994 34.8708 397.583 30.3378 397.583 24.7458C397.583 19.1539 392.994 14.6208 387.333 14.6208H373.667C368.006 14.6208 363.417 19.1539 363.417 24.7458C363.417 30.3378 368.006 34.8708 373.667 34.8708H375.974C376.653 34.8708 377.305 35.1375 377.786 35.6122L379.201 37.0102C380.002 37.8014 381.088 38.2458 382.221 38.2458H387.333C394.881 38.2458 401 32.2017 401 24.7458C401 17.29 394.881 11.2458 387.333 11.2458L373.667 11.2459C366.119 11.2459 360 17.29 360 24.7458C360 32.2017 366.119 38.2458 373.667 38.2458Z" fill="#212326"/>
</g>
<rect x="449" y="0.399048" width="48" height="48" rx="8" fill="#F5F7FA"/>
<g clip-path="url(#clip5_22_777)">
<path d="M461.343 14.2458C459.312 14.2458 457.365 15.0525 455.929 16.4885L451.243 21.1748C449.807 22.6107 449 24.5582 449 26.589C449 30.8178 452.428 34.2458 456.657 34.2458C458.688 34.2458 460.635 33.4391 462.071 32.0032L465.313 28.7617C465.313 28.7616 465.313 28.7617 465.313 28.7617L474.757 19.3169C475.443 18.6311 476.373 18.2458 477.343 18.2458C478.967 18.2458 480.343 19.3041 480.821 20.7686L483.801 17.7878C482.442 15.6581 480.057 14.2458 477.343 14.2458C475.312 14.2458 473.365 15.0525 471.929 16.4885L459.243 29.1748C458.557 29.8606 457.627 30.2458 456.657 30.2458C454.637 30.2458 453 28.6087 453 26.589C453 25.6191 453.385 24.689 454.071 24.0032L458.757 19.3169C459.443 18.6311 460.373 18.2458 461.343 18.2458C462.967 18.2458 464.343 19.3042 464.821 20.7687L467.802 17.7879C466.442 15.6581 464.057 14.2458 461.343 14.2458Z" fill="#394149"/>
<path d="M475.243 29.1748C474.557 29.8606 473.627 30.2458 472.657 30.2458C471.033 30.2458 469.657 29.1878 469.18 27.7236L466.199 30.7043C467.559 32.8338 469.943 34.2458 472.657 34.2458C474.688 34.2458 476.635 33.4391 478.071 32.0032L490.757 19.3169C491.443 18.6311 492.373 18.2458 493.343 18.2458C495.363 18.2458 497 19.8831 497 21.9027C497 22.8726 496.615 23.8027 495.929 24.4885L491.243 29.1748C490.557 29.8606 489.627 30.2458 488.657 30.2458C487.033 30.2458 485.657 29.1876 485.179 27.7233L482.199 30.7041C483.559 32.8337 485.943 34.2458 488.657 34.2458C490.688 34.2458 492.635 33.4391 494.071 32.0032L498.757 27.3169C500.193 25.881 501 23.9334 501 21.9027C501 17.6739 497.572 14.2458 493.343 14.2458C491.312 14.2458 489.365 15.0525 487.929 16.4885L475.243 29.1748Z" fill="#394149"/>
</g>
<defs>
<filter id="filter0_d_22_777" x="0" y="0.399048" width="56" height="56" filterUnits="userSpaceOnUse" color-interpolation-filters="sRGB">
<feFlood flood-opacity="0" result="BackgroundImageFix"/>
<feColorMatrix in="SourceAlpha" type="matrix" values="0 0 0 0 0 0 0 0 0 0 0 0 0 0 0 0 0 0 127 0" result="hardAlpha"/>
<feOffset dy="4"/>
<feGaussianBlur stdDeviation="2"/>
<feComposite in2="hardAlpha" operator="out"/>
<feColorMatrix type="matrix" values="0 0 0 0 0 0 0 0 0 0 0 0 0 0 0 0 0 0 0.25 0"/>
<feBlend mode="normal" in2="BackgroundImageFix" result="effect1_dropShadow_22_777"/>
<feBlend mode="normal" in="SourceGraphic" in2="effect1_dropShadow_22_777" result="shape"/>
</filter>
<clipPath id="clip0_22_777">
<rect width="40" height="40" fill="white" transform="translate(4.35333 0.593567)"/>
</clipPath>
<clipPath id="clip1_22_777">
<rect width="40" height="28" fill="white" transform="translate(93.1123 10.2458)"/>
</clipPath>
<clipPath id="clip2_22_777">
<rect width="55" height="30" fill="white" transform="translate(182 9.24585)"/>
</clipPath>
<clipPath id="clip3_22_777">
<rect width="47" height="29" fill="white" transform="translate(271 10.2458)"/>
</clipPath>
<clipPath id="clip4_22_777">
<rect width="41" height="27" fill="white" transform="translate(360 11.2458)"/>
</clipPath>
<clipPath id="clip5_22_777">
<rect width="52" height="20" fill="white" transform="translate(449 14.2458)"/>
</clipPath>
</defs>
</svg>
