<svg width="34" height="30" viewBox="0 0 34 30" fill="none" xmlns="http://www.w3.org/2000/svg">
<path d="M17.9036 9.39388L17.9033 14.4168V14.4168V14.4752C17.9033 14.5918 17.9184 14.7048 17.9466 14.8125L17.8988 15.6303L17.8962 15.6742C17.885 15.8659 17.8103 16.0335 17.6842 16.1598L19.1268 15.2149C19.0445 15.2014 18.9624 15.1722 18.8806 15.1277L18.4844 14.9119V14.4752V14.4168V9.39388M17.9036 9.39388V9.39385L18.194 9.39386L18.4844 9.39388M17.9036 9.39388C17.9036 9.55431 18.0338 9.6843 18.194 9.6843C18.3544 9.6843 18.4844 9.554 18.4844 9.39388M17.9036 9.39388H18.194H18.4844M12.2833 8.9449L12.2833 8.94493L12.2833 8.9449ZM12.2833 8.9449C12.0703 9.31596 11.5586 9.45449 11.1849 9.23986L12.2833 8.9449ZM10.8522 9.81759L10.8516 9.81723C10.5772 9.65885 10.3794 9.3994 10.2976 9.09536L10.2974 9.09491L10.2974 9.09481L10.297 9.09327C10.2304 8.84275 10.2473 8.58066 10.3431 8.3432V8.14863C10.1722 8.44362 10.1265 8.78783 10.2149 9.11696C10.3028 9.44588 10.5141 9.72083 10.8095 9.8921L10.8522 9.81759ZM18.0957 16.571L18.1558 16.631L18.0957 16.571L18.095 16.5717C17.8442 16.822 17.5077 16.9601 17.1545 16.9601C17.1545 16.9601 17.1545 16.9601 17.1545 16.9601C16.6743 16.9601 16.2532 16.7049 16.0194 16.323C15.9954 16.3353 15.9711 16.3471 15.9465 16.3586L18.0957 16.571ZM10.9195 8.48356C10.8377 8.62527 10.8166 8.78674 10.8587 8.94399C10.8587 8.94403 10.8588 8.94408 10.8588 8.94413L10.8588 8.94426L10.859 8.94487C10.9007 9.10123 10.9992 9.23079 11.142 9.31423C11.142 9.31426 11.1421 9.31429 11.1421 9.31432L10.9195 8.48356Z" fill="#4CAF4F" stroke="#4CAF4F" stroke-width="1.33333"/>
<path d="M16.1066 20.8009C16.1035 20.7956 16.1003 20.7904 16.0971 20.7853C16.0746 20.8028 16.0517 20.82 16.0285 20.8366C16.0301 20.8392 16.0316 20.8417 16.0331 20.8443L16.1066 20.8009ZM16.1066 20.8009C16.3012 21.1255 16.358 21.5058 16.2666 21.8726C16.2315 22.0127 16.1764 22.1444 16.1034 22.2646L16.1066 20.8009ZM16.0645 19.8146C16.041 19.7987 16.0173 19.7833 15.9933 19.7685C16.0414 19.6764 16.0789 19.578 16.1047 19.4749L16.0645 19.8146ZM16.0645 19.8146C16.118 19.7151 16.1595 19.6083 16.1877 19.4956C16.2793 19.1292 16.2225 18.7488 16.0279 18.4241M16.0645 19.8146L16.1047 19.4748C16.1905 19.1313 16.1364 18.7717 15.9548 18.4687L15.9546 18.4683C15.9546 18.4682 15.9545 18.4682 15.9545 18.4681L16.0279 18.4241M16.0279 18.4241L15.9545 18.4681L16.0279 18.4241ZM15.5698 20.3843C15.6279 20.4185 15.6836 20.4573 15.7364 20.5005L15.6102 20.3158L15.7242 20.1226C15.6748 20.1687 15.6217 20.2113 15.5652 20.2499C15.5435 20.2648 15.5213 20.279 15.4986 20.2927L15.4983 20.2928L15.4501 20.3217C15.4909 20.3405 15.5309 20.3614 15.5698 20.3843ZM15.4563 18.7672C15.4563 18.7671 15.4562 18.7671 15.4562 18.767L15.197 19.7906L15.1971 19.7906L15.2343 19.7652C15.3928 19.6569 15.4977 19.5069 15.5408 19.3343L15.5409 19.3341L15.4579 19.3133L15.5409 19.334L15.5409 19.3339C15.5895 19.1396 15.5602 18.9407 15.4564 18.7673C15.4564 18.7673 15.4563 18.7673 15.4563 18.7672ZM9.85174 23.0027L9.8519 23.0026L9.85174 23.0027ZM10.748 25.228C10.6411 25.0499 10.6988 24.8187 10.8769 24.7118L10.748 25.228ZM4.82572 17.4615C4.87079 17.3803 4.91673 17.2976 4.96355 17.2132L4.88776 17.1733C4.87382 17.1984 4.83912 17.2609 4.78786 17.3532C4.77518 17.3761 4.76149 17.4007 4.74685 17.4271C4.77297 17.4402 4.79932 17.4516 4.82572 17.4615Z" fill="#4CAF4F" stroke="#4CAF4F" stroke-width="1.33333"/>
<path d="M20.8527 19.0933C20.7587 19.035 20.6732 18.966 20.5976 18.888L19.8782 18.5117L19.8782 18.5116L19.8381 18.4907C19.7243 18.4311 19.6083 18.4029 19.4965 18.4026L20.8527 19.0933ZM19.1717 17.862C19.1718 17.862 19.1719 17.8619 19.1721 17.8619L19.2275 18.0842L19.2275 18.0842L19.3126 18.4256L19.3125 18.4256L19.1717 17.862ZM23.3872 24.7857C23.387 24.7856 23.3869 24.7855 23.3867 24.7854L23.3872 24.7857ZM18.845 21.1872L18.8464 21.188L18.845 21.1872Z" fill="#4CAF4F" stroke="#4CAF4F" stroke-width="1.33333"/>
</svg>
