<svg width="48" height="48" viewBox="0 0 48 48" fill="none" xmlns="http://www.w3.org/2000/svg">
<g filter="url(#filter0_d_16_1455)">
<path d="M24.9036 18.3939L24.9033 23.4168V23.4168V23.4752C24.9033 23.5918 24.9184 23.7048 24.9466 23.8125L24.8988 24.6303L24.8962 24.6742C24.885 24.8659 24.8103 25.0335 24.6842 25.1598L26.1268 24.2149C26.0445 24.2014 25.9624 24.1722 25.8806 24.1277L25.4844 23.9119V23.4752V23.4168V18.3939M24.9036 18.3939V18.3938L25.194 18.3939L25.4844 18.3939M24.9036 18.3939C24.9036 18.5543 25.0338 18.6843 25.194 18.6843C25.3544 18.6843 25.4844 18.554 25.4844 18.3939M24.9036 18.3939H25.194H25.4844M19.2833 17.9449L19.2833 17.9449L19.2833 17.9449ZM19.2833 17.9449C19.0703 18.316 18.5586 18.4545 18.1849 18.2399L19.2833 17.9449ZM17.8522 18.8176L17.8516 18.8172C17.5772 18.6588 17.3794 18.3994 17.2976 18.0954L17.2974 18.0949L17.2974 18.0948L17.297 18.0933C17.2304 17.8428 17.2473 17.5807 17.3431 17.3432V17.1486C17.1722 17.4436 17.1265 17.7878 17.2149 18.117C17.3028 18.4459 17.5141 18.7208 17.8095 18.8921L17.8522 18.8176ZM25.0957 25.571L25.1558 25.631L25.0957 25.571L25.095 25.5717C24.8442 25.822 24.5077 25.9601 24.1545 25.9601C24.1545 25.9601 24.1545 25.9601 24.1545 25.9601C23.6743 25.9601 23.2532 25.7049 23.0194 25.323C22.9954 25.3353 22.9711 25.3471 22.9465 25.3586L25.0957 25.571ZM17.9195 17.4836C17.8377 17.6253 17.8166 17.7867 17.8587 17.944C17.8587 17.944 17.8588 17.9441 17.8588 17.9441L17.8588 17.9443L17.859 17.9449C17.9007 18.1012 17.9992 18.2308 18.142 18.3142C18.142 18.3143 18.1421 18.3143 18.1421 18.3143L17.9195 17.4836Z" fill="#4CAF4F" stroke="#4CAF4F" stroke-width="1.33333"/>
<mask id="path-2-inside-1_16_1455" fill="white">
<path d="M13.5291 29.0481L18.9888 25.7728C19.6471 25.3775 20.4941 25.5455 20.9162 26.1554C21.0703 26.3776 21.149 26.6365 21.1613 26.9002C21.3648 26.7939 21.5863 26.7362 21.8117 26.7362C21.9272 26.7362 22.0431 26.7506 22.1576 26.7791C22.5244 26.8707 22.8335 27.0999 23.0279 27.4241C23.2225 27.7488 23.2793 28.1292 23.1877 28.4956C23.1031 28.8347 22.8969 29.12 22.6102 29.3158C22.8107 29.434 22.9836 29.5954 23.1066 29.8009C23.3012 30.1255 23.358 30.5058 23.2666 30.8726C23.1749 31.239 22.9457 31.5481 22.621 31.7429L22.6192 31.7441C22.8161 31.8622 22.986 32.0219 23.1076 32.2243C23.3024 32.5489 23.3592 32.9294 23.2675 33.2962C23.1756 33.6628 22.9464 33.9719 22.6222 34.1665L15.9558 38.1658C14.7116 38.912 13.2733 39.1695 11.9064 38.8903C10.5272 38.6085 9.38497 37.8158 8.69046 36.658C7.59138 34.8262 7.75609 32.662 9.11949 31.0102C9.18192 30.9348 9.24341 30.858 9.29925 30.7784C9.35839 30.6943 9.42742 30.5953 9.45098 30.5614C9.5921 30.3093 11.8949 26.1604 11.8946 26.1609C12.1272 25.7413 12.563 25.5038 13.0125 25.504C13.2222 25.504 13.4349 25.5556 13.6312 25.6645C13.8682 25.7969 14.0673 25.9898 14.2065 26.2224C14.4928 26.6995 14.5029 27.2965 14.2334 27.7797L13.5291 29.0481ZM13.5618 26.6092C13.4888 26.4874 13.3884 26.3903 13.2657 26.3215C13.012 26.1811 12.6925 26.2725 12.5528 26.5253C10.905 29.4938 10.3434 30.5055 10.1266 30.8655L10.1315 30.8667C10.1134 30.927 10.1134 30.927 9.91502 31.2104C9.84764 31.3063 9.77437 31.3984 9.69969 31.4891C8.52732 32.9095 8.39119 34.697 9.33521 36.271C9.91997 37.2459 10.8864 37.9143 12.0566 38.1532C13.2395 38.3938 14.4863 38.1699 15.5684 37.5207L22.2355 33.5212C22.3876 33.43 22.4951 33.2851 22.538 33.1134C22.5808 32.9418 22.5542 32.7635 22.4628 32.6113C22.2748 32.298 21.8665 32.195 21.5532 32.3837L18.2642 34.3569C18.0861 34.4638 17.8548 34.4063 17.748 34.228C17.6411 34.0499 17.6988 33.8187 17.8769 33.7118L21.1661 31.7386L22.2343 31.0978C22.3865 31.0064 22.4941 30.8615 22.537 30.6902C22.5799 30.5185 22.5533 30.3399 22.4619 30.1879C22.2736 29.8744 21.8653 29.7723 21.5522 29.9604L17.1948 32.5743C17.0163 32.6815 16.7856 32.6236 16.6787 32.4455C16.5717 32.2673 16.6296 32.0362 16.8075 31.9293L22.1554 28.7211C22.3076 28.6297 22.415 28.4851 22.4579 28.3133C22.5007 28.1418 22.4741 27.9635 22.3829 27.8113C22.2918 27.6593 22.1469 27.5519 21.9751 27.509C21.8024 27.4661 21.6248 27.4927 21.4731 27.5837L20.4831 28.1776C20.4833 28.1776 20.4829 28.1776 20.4831 28.1776L16.1252 30.7918C15.9467 30.8993 15.7158 30.8413 15.6091 30.663C15.5021 30.4849 15.5601 30.2537 15.7379 30.1468L20.0953 27.5328C20.2475 27.4414 20.3552 27.2965 20.398 27.1252C20.4452 26.9372 20.4094 26.745 20.2977 26.5838C20.104 26.3037 19.6898 26.2292 19.3758 26.4179L12.7136 30.4147C12.5678 30.5018 12.3809 30.4806 12.2587 30.3626C12.1362 30.2443 12.1086 30.0584 12.1911 29.9098L13.5764 27.4138C13.7154 27.1643 13.71 26.8561 13.5618 26.6092Z"/>
</mask>
<path d="M13.5291 29.0481L18.9888 25.7728C19.6471 25.3775 20.4941 25.5455 20.9162 26.1554C21.0703 26.3776 21.149 26.6365 21.1613 26.9002C21.3648 26.7939 21.5863 26.7362 21.8117 26.7362C21.9272 26.7362 22.0431 26.7506 22.1576 26.7791C22.5244 26.8707 22.8335 27.0999 23.0279 27.4241C23.2225 27.7488 23.2793 28.1292 23.1877 28.4956C23.1031 28.8347 22.8969 29.12 22.6102 29.3158C22.8107 29.434 22.9836 29.5954 23.1066 29.8009C23.3012 30.1255 23.358 30.5058 23.2666 30.8726C23.1749 31.239 22.9457 31.5481 22.621 31.7429L22.6192 31.7441C22.8161 31.8622 22.986 32.0219 23.1076 32.2243C23.3024 32.5489 23.3592 32.9294 23.2675 33.2962C23.1756 33.6628 22.9464 33.9719 22.6222 34.1665L15.9558 38.1658C14.7116 38.912 13.2733 39.1695 11.9064 38.8903C10.5272 38.6085 9.38497 37.8158 8.69046 36.658C7.59138 34.8262 7.75609 32.662 9.11949 31.0102C9.18192 30.9348 9.24341 30.858 9.29925 30.7784C9.35839 30.6943 9.42742 30.5953 9.45098 30.5614C9.5921 30.3093 11.8949 26.1604 11.8946 26.1609C12.1272 25.7413 12.563 25.5038 13.0125 25.504C13.2222 25.504 13.4349 25.5556 13.6312 25.6645C13.8682 25.7969 14.0673 25.9898 14.2065 26.2224C14.4928 26.6995 14.5029 27.2965 14.2334 27.7797L13.5291 29.0481ZM13.5618 26.6092C13.4888 26.4874 13.3884 26.3903 13.2657 26.3215C13.012 26.1811 12.6925 26.2725 12.5528 26.5253C10.905 29.4938 10.3434 30.5055 10.1266 30.8655L10.1315 30.8667C10.1134 30.927 10.1134 30.927 9.91502 31.2104C9.84764 31.3063 9.77437 31.3984 9.69969 31.4891C8.52732 32.9095 8.39119 34.697 9.33521 36.271C9.91997 37.2459 10.8864 37.9143 12.0566 38.1532C13.2395 38.3938 14.4863 38.1699 15.5684 37.5207L22.2355 33.5212C22.3876 33.43 22.4951 33.2851 22.538 33.1134C22.5808 32.9418 22.5542 32.7635 22.4628 32.6113C22.2748 32.298 21.8665 32.195 21.5532 32.3837L18.2642 34.3569C18.0861 34.4638 17.8548 34.4063 17.748 34.228C17.6411 34.0499 17.6988 33.8187 17.8769 33.7118L21.1661 31.7386L22.2343 31.0978C22.3865 31.0064 22.4941 30.8615 22.537 30.6902C22.5799 30.5185 22.5533 30.3399 22.4619 30.1879C22.2736 29.8744 21.8653 29.7723 21.5522 29.9604L17.1948 32.5743C17.0163 32.6815 16.7856 32.6236 16.6787 32.4455C16.5717 32.2673 16.6296 32.0362 16.8075 31.9293L22.1554 28.7211C22.3076 28.6297 22.415 28.4851 22.4579 28.3133C22.5007 28.1418 22.4741 27.9635 22.3829 27.8113C22.2918 27.6593 22.1469 27.5519 21.9751 27.509C21.8024 27.4661 21.6248 27.4927 21.4731 27.5837L20.4831 28.1776C20.4833 28.1776 20.4829 28.1776 20.4831 28.1776L16.1252 30.7918C15.9467 30.8993 15.7158 30.8413 15.6091 30.663C15.5021 30.4849 15.5601 30.2537 15.7379 30.1468L20.0953 27.5328C20.2475 27.4414 20.3552 27.2965 20.398 27.1252C20.4452 26.9372 20.4094 26.745 20.2977 26.5838C20.104 26.3037 19.6898 26.2292 19.3758 26.4179L12.7136 30.4147C12.5678 30.5018 12.3809 30.4806 12.2587 30.3626C12.1362 30.2443 12.1086 30.0584 12.1911 29.9098L13.5764 27.4138C13.7154 27.1643 13.71 26.8561 13.5618 26.6092Z" fill="#4CAF4F"/>
<path d="M13.5291 29.0481L14.215 30.1915L9.94774 32.7514L12.3634 28.4008L13.5291 29.0481ZM18.9888 25.7728L19.6753 26.9158L19.6747 26.9162L18.9888 25.7728ZM20.9162 26.1554L19.8206 26.9153L19.8199 26.9143L20.9162 26.1554ZM21.1613 26.9002L21.7782 28.0822L19.9263 29.0488L19.8294 26.962L21.1613 26.9002ZM22.1576 26.7791L22.4797 25.4852L22.4808 25.4855L22.1576 26.7791ZM23.0279 27.4241L24.1714 26.7384L24.1715 26.7386L23.0279 27.4241ZM23.1877 28.4956L21.894 28.1729L21.8942 28.1721L23.1877 28.4956ZM22.6102 29.3158L21.9328 30.4642L20.1253 29.398L21.8583 28.2146L22.6102 29.3158ZM23.1066 29.8009L21.963 30.4864L21.9626 30.4857L23.1066 29.8009ZM23.2666 30.8726L24.5603 31.195L24.5601 31.1962L23.2666 30.8726ZM22.621 31.7429L21.9146 30.6121L21.9247 30.6058L21.9348 30.5998L22.621 31.7429ZM22.6192 31.7441L21.9338 32.8878L20.0647 31.7677L21.9128 30.6133L22.6192 31.7441ZM23.1076 32.2243L24.2505 31.5377L24.2508 31.5381L23.1076 32.2243ZM23.2675 33.2962L24.5611 33.6194L24.5609 33.6204L23.2675 33.2962ZM22.6222 34.1665L23.3086 35.3097L23.3082 35.3099L22.6222 34.1665ZM15.9558 38.1658L16.6418 39.3092L16.6416 39.3093L15.9558 38.1658ZM11.9064 38.8903L11.6395 40.1967L11.6395 40.1967L11.9064 38.8903ZM8.69046 36.658L9.83378 35.972L9.83386 35.9721L8.69046 36.658ZM9.11949 31.0102L8.09119 30.1615L8.09259 30.1598L9.11949 31.0102ZM9.29925 30.7784L8.20753 30.0129L8.20853 30.0115L9.29925 30.7784ZM9.45098 30.5614L10.6144 31.2127L10.5829 31.269L10.5462 31.3219L9.45098 30.5614ZM11.8946 26.1609L13.0608 26.8072L10.7021 25.5646L11.8946 26.1609ZM13.0125 25.504L13.0125 26.8374L13.0118 26.8374L13.0125 25.504ZM13.6312 25.6645L14.2779 24.4985L14.2815 24.5005L13.6312 25.6645ZM14.2065 26.2224L13.0632 26.9084L13.0626 26.9073L14.2065 26.2224ZM14.2334 27.7797L13.0677 27.1324L13.069 27.1301L14.2334 27.7797ZM13.5618 26.6092L12.4186 27.2953L12.4183 27.2948L13.5618 26.6092ZM13.2657 26.3215L13.9113 25.1549L13.9176 25.1584L13.2657 26.3215ZM12.5528 26.5253L13.7198 27.1702L13.7186 27.1724L12.5528 26.5253ZM10.1266 30.8655L9.81756 32.1625L8.04373 31.7399L8.98433 30.1777L10.1266 30.8655ZM10.1315 30.8667L10.4406 29.5696L11.8155 29.8972L11.4084 31.2507L10.1315 30.8667ZM9.91502 31.2104L11.0074 31.9749L11.0059 31.977L9.91502 31.2104ZM9.69969 31.4891L10.729 32.3366L10.728 32.3378L9.69969 31.4891ZM9.33521 36.271L8.19179 36.9569L8.19177 36.9568L9.33521 36.271ZM12.0566 38.1532L11.7909 39.4598L11.7899 39.4596L12.0566 38.1532ZM15.5684 37.5207L14.8824 36.3773L14.8825 36.3773L15.5684 37.5207ZM22.2355 33.5212L21.5495 32.3778L21.5502 32.3774L22.2355 33.5212ZM22.538 33.1134L21.2443 32.7904L21.2444 32.79L22.538 33.1134ZM22.4628 32.6113L21.3198 33.2978L21.3195 33.2973L22.4628 32.6113ZM21.5532 32.3837L22.241 33.5259L22.2391 33.5271L21.5532 32.3837ZM18.2642 34.3569L17.5778 33.2138L17.5783 33.2135L18.2642 34.3569ZM17.748 34.228L18.8911 33.5415L18.8922 33.5433L17.748 34.228ZM17.8769 33.7118L17.1905 32.5687L17.191 32.5684L17.8769 33.7118ZM21.1661 31.7386L21.852 32.882L21.852 32.882L21.1661 31.7386ZM22.2343 31.0978L22.9208 32.2408L22.9202 32.2412L22.2343 31.0978ZM22.537 30.6902L23.8307 31.0132L23.8304 31.014L22.537 30.6902ZM22.4619 30.1879L21.3193 30.8752L21.3187 30.8742L22.4619 30.1879ZM21.5522 29.9604L22.2386 31.1035L22.2381 31.1037L21.5522 29.9604ZM17.1948 32.5743L16.5086 31.4311L16.5089 31.4309L17.1948 32.5743ZM16.6787 32.4455L17.8217 31.759L17.8217 31.759L16.6787 32.4455ZM16.8075 31.9293L16.1204 30.7866L16.1216 30.7859L16.8075 31.9293ZM22.1554 28.7211L22.8419 29.8642L22.8413 29.8645L22.1554 28.7211ZM22.4579 28.3133L21.1642 27.9904L21.1643 27.99L22.4579 28.3133ZM22.3829 27.8113L23.5263 27.1253L23.5267 27.126L22.3829 27.8113ZM21.9751 27.509L22.2964 26.215L22.2981 26.2154L21.9751 27.509ZM21.4731 27.5837L20.7871 26.4403L20.7876 26.4401L21.4731 27.5837ZM16.1252 30.7918L15.4379 29.6493L15.4394 29.6485L16.1252 30.7918ZM15.6091 30.663L16.7521 29.9765L16.7532 29.9783L15.6091 30.663ZM15.7379 30.1468L15.0508 29.0041L15.052 29.0034L15.7379 30.1468ZM20.0953 27.5328L20.7818 28.6758L20.7812 28.6762L20.0953 27.5328ZM20.398 27.1252L19.1046 26.8014L19.1047 26.8011L20.398 27.1252ZM20.2977 26.5838L19.2018 27.3433L19.2009 27.342L20.2977 26.5838ZM19.3758 26.4179L20.0625 27.5608L20.0617 27.5613L19.3758 26.4179ZM12.7136 30.4147L13.3995 31.558L13.3977 31.5591L12.7136 30.4147ZM12.2587 30.3626L11.3326 31.3219L11.3326 31.3218L12.2587 30.3626ZM12.1911 29.9098L11.0251 29.263L11.0253 29.2627L12.1911 29.9098ZM13.5764 27.4138L12.4106 26.7668L12.4116 26.7649L13.5764 27.4138ZM12.8432 27.9047L18.3029 24.6294L19.6747 26.9162L14.215 30.1915L12.8432 27.9047ZM18.3023 24.6298C19.5288 23.8932 21.1678 24.1761 22.0126 25.3966L19.8199 26.9143C19.8183 26.9119 19.8107 26.9008 19.7815 26.895C19.7515 26.889 19.7135 26.8929 19.6753 26.9158L18.3023 24.6298ZM22.0119 25.3956C22.3235 25.8449 22.4706 26.3517 22.4932 26.8383L19.8294 26.962C19.8275 26.9213 19.8171 26.9102 19.8206 26.9153L22.0119 25.3956ZM20.5443 25.7182C20.9244 25.5198 21.3562 25.4028 21.8117 25.4028V28.0695C21.8132 28.0695 21.8118 28.0693 21.8069 28.0705C21.8017 28.0718 21.792 28.075 21.7782 28.0822L20.5443 25.7182ZM21.8117 25.4028C22.0382 25.4028 22.2622 25.4311 22.4797 25.4852L21.8355 28.0729C21.824 28.07 21.8162 28.0695 21.8117 28.0695V25.4028ZM22.4808 25.4855C23.1912 25.663 23.7952 26.1111 24.1714 26.7384L21.8844 28.1098C21.8767 28.097 21.8693 28.0899 21.8634 28.0855C21.8575 28.0812 21.8487 28.0762 21.8344 28.0726L22.4808 25.4855ZM24.1715 26.7386C24.5473 27.3655 24.6588 28.1088 24.4811 28.8192L21.8942 28.1721C21.8977 28.1581 21.8975 28.1482 21.8964 28.1409C21.8953 28.1335 21.8924 28.1232 21.8843 28.1096L24.1715 26.7386ZM24.4813 28.8184C24.3138 29.4901 23.9051 30.0461 23.3621 30.4169L21.8583 28.2146C21.8752 28.2031 21.8834 28.1934 21.887 28.1884C21.8902 28.1837 21.8924 28.1794 21.894 28.1729L24.4813 28.8184ZM23.2876 28.1674C23.657 28.3852 24.0003 28.6979 24.2506 29.116L21.9626 30.4857C21.964 30.488 21.9643 30.4877 21.9612 30.4847C21.9577 30.4813 21.949 30.4738 21.9328 30.4642L23.2876 28.1674ZM24.2502 29.1154C24.6261 29.7424 24.7373 30.4851 24.5603 31.195L21.9728 30.5502C21.9765 30.5355 21.9762 30.5252 21.9751 30.5178C21.974 30.5104 21.9712 30.5 21.963 30.4864L24.2502 29.1154ZM24.5601 31.1962C24.3824 31.9064 23.9341 32.5099 23.3073 32.8861L21.9348 30.5998C21.9484 30.5916 21.9558 30.5838 21.9603 30.5778C21.9647 30.5718 21.9696 30.563 21.9731 30.5491L24.5601 31.1962ZM23.3275 32.8738L23.3256 32.8749L21.9128 30.6133L21.9146 30.6121L23.3275 32.8738ZM23.3045 30.6004C23.6672 30.8178 24.0037 31.1269 24.2505 31.5377L21.9646 32.9109C21.9656 32.9126 21.9657 32.9119 21.9623 32.9086C21.9585 32.905 21.9498 32.8974 21.9338 32.8878L23.3045 30.6004ZM24.2508 31.5381C24.6273 32.1655 24.7386 32.909 24.5611 33.6194L21.974 32.973C21.9776 32.9586 21.9773 32.9484 21.9762 32.9412C21.9752 32.934 21.9724 32.9238 21.9643 32.9104L24.2508 31.5381ZM24.5609 33.6204C24.383 34.33 23.9352 34.9334 23.3086 35.3097L21.9359 33.0234C21.949 33.0155 21.9564 33.0078 21.961 33.0017C21.9655 32.9956 21.9706 32.9865 21.9742 32.9721L24.5609 33.6204ZM23.3082 35.3099L16.6418 39.3092L15.2699 37.0225L21.9363 33.0232L23.3082 35.3099ZM16.6416 39.3093C15.1241 40.2193 13.3475 40.5455 11.6395 40.1967L12.1732 37.5839C13.1991 37.7935 14.2991 37.6046 15.2701 37.0223L16.6416 39.3093ZM11.6395 40.1967C9.91181 39.8437 8.44298 38.8374 7.54707 37.3439L9.83386 35.9721C10.327 36.7941 11.1425 37.3734 12.1733 37.584L11.6395 40.1967ZM7.54715 37.344C6.15629 35.026 6.36972 32.2471 8.09119 30.1615L10.1478 31.859C9.14246 33.077 9.02647 34.6265 9.83378 35.972L7.54715 37.344ZM8.09259 30.1598C8.14776 30.0932 8.18249 30.0487 8.20753 30.0129L10.391 31.5439C10.3043 31.6674 10.2161 31.7765 10.1464 31.8607L8.09259 30.1598ZM8.20853 30.0115C8.26616 29.9296 8.3337 29.8327 8.35579 29.8009L10.5462 31.3219C10.5211 31.3579 10.4506 31.459 10.39 31.5453L8.20853 30.0115ZM8.28754 29.9101C8.35657 29.7868 8.96558 28.6901 9.56008 27.6193C9.85671 27.085 10.1489 26.5585 10.367 26.1657C10.476 25.9693 10.5665 25.8063 10.6297 25.6924C10.6613 25.6355 10.6861 25.5908 10.703 25.5604C10.7114 25.5452 10.7179 25.5335 10.7223 25.5256C10.7245 25.5217 10.7261 25.5187 10.7273 25.5167C10.7278 25.5156 10.7283 25.5148 10.7286 25.5142C10.7288 25.514 10.7289 25.5136 10.7291 25.5133C10.7292 25.5131 10.7295 25.5127 10.7296 25.5124C10.7301 25.5116 12.518 24.9823 13.0872 26.7572L10.7021 25.5646C11.2712 27.3395 13.0591 26.8103 13.0596 26.8095C13.0597 26.8093 13.0599 26.8089 13.0599 26.8089C13.0599 26.8088 13.0599 26.8089 13.0598 26.8091C13.0596 26.8095 13.0592 26.8102 13.0587 26.8111C13.0576 26.8131 13.056 26.816 13.0538 26.8199C13.0494 26.8277 13.043 26.8394 13.0345 26.8546C13.0177 26.885 12.9929 26.9297 12.9613 26.9866C12.898 27.1005 12.8076 27.2635 12.6985 27.4599C12.4805 27.8528 12.1882 28.3793 11.8915 28.9136C11.2994 29.9802 10.6865 31.0839 10.6144 31.2127L8.28754 29.9101ZM10.7284 25.5146C11.2057 24.6533 12.0991 24.1702 13.0132 24.1707L13.0118 26.8374C13.0213 26.8374 13.0295 26.8351 13.0374 26.8306C13.0471 26.825 13.0561 26.8158 13.0608 26.8072L10.7284 25.5146ZM13.0125 24.1707C13.442 24.1707 13.8782 24.2768 14.2779 24.4985L12.9845 26.8305C12.9873 26.832 12.9918 26.834 12.9974 26.8354C13.0028 26.8368 13.008 26.8374 13.0125 26.8374V24.1707ZM14.2815 24.5005C14.7215 24.7463 15.091 25.1041 15.3505 25.5374L13.0626 26.9073C13.0436 26.8756 13.015 26.8475 12.9809 26.8285L14.2815 24.5005ZM15.3499 25.5364C15.8802 26.4204 15.9013 27.5267 15.3978 28.4292L13.069 27.1301C13.1046 27.0663 13.1053 26.9786 13.0632 26.9084L15.3499 25.5364ZM15.3991 28.4269L14.6948 29.6954L12.3634 28.4008L13.0677 27.1324L15.3991 28.4269ZM12.4183 27.2948C12.4652 27.373 12.5346 27.4402 12.6138 27.4846L13.9176 25.1584C14.2423 25.3404 14.5124 25.6017 14.7054 25.9235L12.4183 27.2948ZM12.6201 27.4881C13.0071 27.7023 13.5011 27.566 13.7198 27.1702L11.3858 25.8804C11.8839 24.979 13.0168 24.6599 13.9113 25.1549L12.6201 27.4881ZM13.7186 27.1724C12.0819 30.1209 11.5016 31.1667 11.2688 31.5532L8.98433 30.1777C9.18509 29.8443 9.72816 28.8667 11.387 25.8782L13.7186 27.1724ZM10.4356 29.5684L10.4406 29.5696L9.82251 32.1637L9.81756 32.1625L10.4356 29.5684ZM11.4084 31.2507C11.4065 31.257 11.382 31.3431 11.3394 31.4406C11.2965 31.5387 11.2503 31.6158 11.219 31.6655C11.1697 31.7438 11.0937 31.8517 11.0074 31.9749L8.82267 30.4458C8.84759 30.4102 8.86881 30.3799 8.88729 30.3534C8.90581 30.3269 8.92068 30.3055 8.9329 30.2878C8.94524 30.27 8.95347 30.2579 8.959 30.2497C8.96472 30.2412 8.96519 30.2403 8.96268 30.2442C8.95848 30.2509 8.92814 30.299 8.89649 30.3713C8.8888 30.3889 8.88189 30.4059 8.87571 30.4221C8.8696 30.4382 8.86475 30.452 8.86115 30.4628C8.85767 30.4732 8.85527 30.4809 8.85437 30.4838C8.85368 30.486 8.85326 30.4874 8.85471 30.4826L11.4084 31.2507ZM11.0059 31.977C10.9097 32.114 10.8115 32.2364 10.729 32.3366L8.67038 30.6416C8.73722 30.5604 8.7856 30.4986 8.82411 30.4438L11.0059 31.977ZM10.728 32.3378C9.91347 33.3247 9.8264 34.4977 10.4787 35.5852L8.19177 36.9568C6.95599 34.8964 7.14117 32.4944 8.67137 30.6404L10.728 32.3378ZM10.4786 35.5852C10.8603 36.2216 11.4985 36.6784 12.3233 36.8468L11.7899 39.4596C10.2743 39.1502 8.97958 38.2703 8.19179 36.9569L10.4786 35.5852ZM12.3223 36.8466C13.1636 37.0177 14.0725 36.8633 14.8824 36.3773L16.2544 38.664C14.9001 39.4766 13.3154 39.7698 11.7909 39.4598L12.3223 36.8466ZM14.8825 36.3773L21.5495 32.3778L22.9214 34.6646L16.2544 38.664L14.8825 36.3773ZM21.5502 32.3774C21.3992 32.4679 21.2874 32.618 21.2443 32.7904L23.8316 33.4363C23.7028 33.9522 23.3761 34.3921 22.9207 34.665L21.5502 32.3774ZM21.2444 32.79C21.2012 32.9627 21.2295 33.1476 21.3198 33.2978L23.6058 31.9248C23.8789 32.3794 23.9604 32.9209 23.8315 33.4367L21.2444 32.79ZM21.3195 33.2973C21.5087 33.6127 21.9194 33.7196 22.241 33.5259L20.8653 31.2415C21.8136 30.6704 23.0409 30.9832 23.6061 31.9253L21.3195 33.2973ZM22.2391 33.5271L18.9502 35.5002L17.5783 33.2135L20.8672 31.2404L22.2391 33.5271ZM18.9507 35.4999C18.1429 35.985 17.0905 35.7259 16.6039 34.9126L18.8922 33.5433C18.619 33.0868 18.0294 32.9426 17.5778 33.2138L18.9507 35.4999ZM16.605 34.9144C16.1188 34.1048 16.3812 33.0547 17.1905 32.5687L18.5633 34.8548C19.0163 34.5828 19.1633 33.9949 18.8911 33.5415L16.605 34.9144ZM17.191 32.5684L20.4802 30.5953L21.852 32.882L18.5628 34.8552L17.191 32.5684ZM20.4802 30.5953L21.5484 29.9544L22.9202 32.2412L21.852 32.882L20.4802 30.5953ZM21.5478 29.9548C21.3993 30.044 21.2871 30.1926 21.2436 30.3664L23.8304 31.014C23.7012 31.5304 23.3737 31.9688 22.9208 32.2408L21.5478 29.9548ZM21.2434 30.3673C21.2006 30.5388 21.2282 30.7237 21.3193 30.8752L23.6044 29.5006C23.8784 29.9561 23.9592 30.4981 23.8307 31.0132L21.2434 30.3673ZM21.3187 30.8742C21.509 31.1912 21.9196 31.295 22.2386 31.1035L20.8658 28.8173C21.8111 28.2497 23.0382 28.5575 23.605 29.5017L21.3187 30.8742ZM22.2381 31.1037L17.8808 33.7177L16.5089 31.4309L20.8663 28.817L22.2381 31.1037ZM17.8811 33.7175C17.0703 34.2042 16.0211 33.9403 15.5356 33.1319L17.8217 31.759C17.5502 31.3068 16.9623 31.1588 16.5086 31.4311L17.8811 33.7175ZM15.5356 33.1319C15.0488 32.3213 15.3132 31.272 16.1204 30.7866L17.4946 33.0719C17.9461 32.8004 18.0946 32.2134 17.8217 31.759L15.5356 33.1319ZM16.1216 30.7859L21.4695 27.5778L22.8413 29.8645L17.4934 33.0726L16.1216 30.7859ZM21.4688 27.5781C21.3197 27.6677 21.2075 27.8171 21.1642 27.9904L23.7515 28.6363C23.6225 29.1531 23.2954 29.5918 22.8419 29.8642L21.4688 27.5781ZM21.1643 27.99C21.1212 28.1626 21.1495 28.3469 21.2392 28.4965L23.5267 27.126C23.7987 27.5801 23.8803 28.121 23.7514 28.6367L21.1643 27.99ZM21.2396 28.4973C21.3301 28.648 21.48 28.7596 21.6522 28.8026L22.2981 26.2154C22.8138 26.3441 23.2535 26.6706 23.5263 27.1253L21.2396 28.4973ZM21.6538 28.803C21.8228 28.845 22.0072 28.818 22.1586 28.7273L20.7876 26.4401C21.2424 26.1675 21.7821 26.0873 22.2964 26.215L21.6538 28.803ZM22.159 28.727L21.1691 29.321L19.7971 27.0343L20.7871 26.4403L22.159 28.727ZM20.4831 29.511C20.4831 29.511 20.4831 29.511 20.4831 29.511C20.4831 29.511 20.4831 29.511 20.4831 29.511C20.4831 29.511 20.4831 29.511 20.4831 29.511C20.4831 29.511 20.4831 29.511 20.4831 29.511C20.4831 29.511 20.4831 29.511 20.4831 29.511C20.4831 29.511 20.4831 29.511 20.4831 29.511C20.4831 29.511 20.4831 29.511 20.4831 29.511C20.4831 29.511 20.4831 29.511 20.4831 29.511C20.4831 29.511 20.4831 29.511 20.4831 29.511C20.4831 29.511 20.4831 29.511 20.4831 29.511C20.4831 29.511 20.4831 29.511 20.4831 29.511C20.4831 29.511 20.4831 29.511 20.4831 29.511C20.4831 29.511 20.4831 29.511 20.4831 29.511C20.4831 29.511 20.4831 29.511 20.4831 29.511C20.4831 29.511 20.4831 29.511 20.4831 29.511C20.4831 29.511 20.4831 29.511 20.4831 29.511C20.4831 29.511 20.4831 29.511 20.4831 29.511C20.4831 29.511 20.4831 29.511 20.4831 29.511C20.4831 29.511 20.4831 29.511 20.4831 29.511C20.4831 29.511 20.4831 29.511 20.4831 29.511C20.4831 29.511 20.4831 29.511 20.4831 29.511C20.4831 29.511 20.4831 29.511 20.4831 29.511C20.4831 29.511 20.4831 29.511 20.4831 29.511C20.4831 29.511 20.4831 29.511 20.4831 29.511C20.4831 29.511 20.4831 29.511 20.4831 29.511C20.4831 29.511 20.4831 29.511 20.4831 29.511C20.4831 29.511 20.4831 29.511 20.4831 29.511C20.4831 29.511 20.4831 29.511 20.4831 29.511C20.4831 29.511 20.4831 29.511 20.4831 29.511C20.4831 29.511 20.4831 29.511 20.4831 29.511C20.4831 29.511 20.4831 29.511 20.4831 29.511C20.4831 29.511 20.4831 29.511 20.4831 29.511C20.4831 29.511 20.4831 29.511 20.4831 29.511C20.4831 29.511 20.4831 29.511 20.4831 29.511C20.4831 29.511 20.4831 29.511 20.4831 29.511C20.4831 29.511 20.4831 29.511 20.4831 29.511C20.4831 29.511 20.4831 29.511 20.4831 29.511C20.4831 29.511 20.4831 29.511 20.4831 29.511C20.483 29.511 20.483 29.511 20.483 29.511C20.483 29.511 20.483 29.511 20.483 29.511C20.483 29.511 20.483 29.511 20.483 29.511C20.483 29.511 20.483 29.511 20.483 29.511C20.483 29.511 20.483 29.511 20.483 29.511C20.483 29.511 20.483 29.511 20.483 29.511C20.483 29.511 20.483 29.511 20.483 29.511C20.483 29.511 20.483 29.511 20.483 29.511C20.483 29.511 20.483 29.511 20.483 29.511C20.483 29.511 20.483 29.511 20.483 29.511C20.483 29.511 20.483 29.511 20.483 29.511C20.483 29.511 20.483 29.511 20.483 29.511C20.483 29.511 20.483 29.511 20.483 29.511C20.483 29.511 20.483 29.511 20.483 29.511C20.483 29.511 20.483 29.511 20.483 29.511C20.483 29.511 20.483 29.511 20.483 29.511C20.483 29.511 20.483 29.511 20.483 29.511C20.483 29.511 20.483 29.511 20.483 29.511C20.483 29.511 20.483 29.511 20.483 29.511C20.483 29.511 20.483 29.511 20.483 29.511C20.483 29.511 20.483 29.511 20.483 29.511C20.483 29.511 20.483 29.511 20.483 29.511C20.483 29.511 20.483 29.511 20.483 29.511C20.483 29.511 20.483 29.511 20.483 29.511C20.483 29.511 20.483 29.511 20.483 29.511C20.483 29.511 20.483 29.511 20.483 29.511C20.483 29.511 20.483 29.511 20.483 29.511C20.483 29.511 20.483 29.511 20.483 29.511C20.483 29.511 20.483 29.511 20.483 29.511C20.483 29.511 20.483 29.511 20.483 29.511C20.483 29.511 20.483 29.511 20.483 29.511C20.483 29.511 20.483 29.511 20.483 29.511C20.483 29.511 20.483 29.511 20.483 29.511C20.483 29.511 20.483 29.511 20.483 29.511C20.483 29.511 20.483 29.511 20.483 29.511C20.483 29.511 20.483 29.511 20.483 29.511C20.483 29.511 20.483 29.511 20.483 29.511C20.483 29.511 20.483 29.511 20.483 29.511C20.483 29.511 20.483 29.511 20.483 29.511C20.483 29.511 20.483 29.511 20.483 29.511C20.483 29.511 20.483 29.511 20.483 29.511C20.483 29.511 20.483 29.511 20.483 29.511C20.483 29.511 20.483 29.511 20.483 29.511C20.483 29.511 20.483 29.511 20.483 29.511C20.483 29.511 20.483 29.511 20.483 29.511C20.483 29.511 20.483 29.511 20.483 29.511C20.483 29.511 20.483 29.511 20.483 29.511C20.483 29.511 20.483 29.511 20.483 29.511C20.483 29.511 20.483 29.511 20.483 29.511C20.483 29.511 20.483 29.511 20.483 29.511C20.483 29.511 20.483 29.511 20.483 29.511C20.483 29.511 20.483 29.511 20.483 29.511C20.483 29.511 20.483 29.511 20.483 29.511C20.483 29.511 20.483 29.511 20.483 29.511C20.483 29.511 20.483 29.511 20.483 29.511C20.483 29.511 20.483 29.511 20.483 29.511C20.483 29.511 20.483 29.511 20.483 29.511C20.483 29.511 20.483 29.511 20.483 29.511C20.483 29.511 20.483 29.511 20.483 29.511C20.483 29.511 20.483 29.511 20.483 29.511C20.483 29.511 20.483 29.511 20.483 29.511C20.483 29.511 20.483 29.511 20.483 29.511C20.483 29.511 20.483 29.511 20.483 29.511C20.483 29.511 20.483 29.511 20.483 29.511C20.483 29.511 20.483 29.511 20.483 29.511C20.483 29.511 20.483 29.511 20.483 29.511C20.483 29.511 20.483 29.511 20.483 29.511C20.483 29.511 20.483 29.511 20.483 29.511C20.483 29.511 20.483 29.511 20.483 29.511C20.483 29.511 20.483 29.511 20.483 29.511C20.483 28.1776 20.483 26.8443 20.483 26.8443C20.483 26.8443 20.483 26.8443 20.483 26.8443C20.483 26.8443 20.483 26.8443 20.483 26.8443C20.483 26.8443 20.483 26.8443 20.483 26.8443C20.483 26.8443 20.483 26.8443 20.483 26.8443C20.483 26.8443 20.483 26.8443 20.483 26.8443C20.483 26.8443 20.483 26.8443 20.483 26.8443C20.483 26.8443 20.483 26.8443 20.483 26.8443C20.483 26.8443 20.483 26.8443 20.483 26.8443C20.483 26.8443 20.483 26.8443 20.483 26.8443C20.483 26.8443 20.483 26.8443 20.483 26.8443C20.483 26.8443 20.483 26.8443 20.483 26.8443C20.483 26.8443 20.483 26.8443 20.483 26.8443C20.483 26.8443 20.483 26.8443 20.483 26.8443C20.483 26.8443 20.483 26.8443 20.483 26.8443C20.483 26.8443 20.483 26.8443 20.483 26.8443C20.483 26.8443 20.483 26.8443 20.483 26.8443C20.483 26.8443 20.483 26.8443 20.483 26.8443C20.483 26.8443 20.483 26.8443 20.483 26.8443C20.483 26.8443 20.483 26.8443 20.483 26.8443C20.483 26.8443 20.483 26.8443 20.483 26.8443C20.483 26.8443 20.483 26.8443 20.483 26.8443C20.483 26.8443 20.483 26.8443 20.483 26.8443C20.483 26.8443 20.483 26.8443 20.483 26.8443C20.483 26.8443 20.483 26.8443 20.483 26.8443C20.483 26.8443 20.483 26.8443 20.483 26.8443C20.483 26.8443 20.483 26.8443 20.483 26.8443C20.483 26.8443 20.483 26.8443 20.483 26.8443C20.483 26.8443 20.483 26.8443 20.483 26.8443C20.483 26.8443 20.483 26.8443 20.483 26.8443C20.483 26.8443 20.483 26.8443 20.483 26.8443C20.483 26.8443 20.483 26.8443 20.483 26.8443C20.483 26.8443 20.483 26.8443 20.483 26.8443C20.483 26.8443 20.483 26.8443 20.483 26.8443C20.483 26.8443 20.483 26.8443 20.483 26.8443C20.483 26.8443 20.483 26.8443 20.483 26.8443C20.483 26.8443 20.483 26.8443 20.483 26.8443C20.483 26.8443 20.483 26.8443 20.483 26.8443C20.483 26.8443 20.483 26.8443 20.483 26.8443C20.483 26.8443 20.483 26.8443 20.483 26.8443C20.483 26.8443 20.483 26.8443 20.483 26.8443C20.483 26.8443 20.483 26.8443 20.483 26.8443C20.483 26.8443 20.483 26.8443 20.483 26.8443C20.483 26.8443 20.483 26.8443 20.483 26.8443C20.483 26.8443 20.483 26.8443 20.483 26.8443C20.483 26.8443 20.483 26.8443 20.483 26.8443C20.483 26.8443 20.483 26.8443 20.483 26.8443C20.483 26.8443 20.483 26.8443 20.483 26.8443C20.483 26.8443 20.483 26.8443 20.483 26.8443C20.483 26.8443 20.483 26.8443 20.483 26.8443C20.483 26.8443 20.483 26.8443 20.483 26.8443C20.483 26.8443 20.483 26.8443 20.483 26.8443C20.483 26.8443 20.483 26.8443 20.483 26.8443C20.483 26.8443 20.483 26.8443 20.483 26.8443C20.483 26.8443 20.483 26.8443 20.483 26.8443C20.483 26.8443 20.483 26.8443 20.483 26.8443C20.483 26.8443 20.483 26.8443 20.483 26.8443C20.483 26.8443 20.483 26.8443 20.483 26.8443C20.483 26.8443 20.483 26.8443 20.483 26.8443C20.483 26.8443 20.483 26.8443 20.483 26.8443C20.483 26.8443 20.483 26.8443 20.483 26.8443C20.483 26.8443 20.483 26.8443 20.483 26.8443C20.483 26.8443 20.483 26.8443 20.483 26.8443C20.483 26.8443 20.483 26.8443 20.483 26.8443C20.483 26.8443 20.483 26.8443 20.483 26.8443C20.483 26.8443 20.483 26.8443 20.483 26.8443C20.483 26.8443 20.483 26.8443 20.483 26.8443C20.483 26.8443 20.483 26.8443 20.483 26.8443C20.483 26.8443 20.483 26.8443 20.483 26.8443C20.483 26.8443 20.483 26.8443 20.483 26.8443C20.483 26.8443 20.483 26.8443 20.483 26.8443C20.483 26.8443 20.483 26.8443 20.483 26.8443C20.483 26.8443 20.483 26.8443 20.483 26.8443C20.483 26.8443 20.483 26.8443 20.483 26.8443C20.483 26.8443 20.483 26.8443 20.483 26.8443C20.483 26.8443 20.483 26.8443 20.483 26.8443C20.483 26.8443 20.483 26.8443 20.483 26.8443C20.483 26.8443 20.483 26.8443 20.483 26.8443C20.483 26.8443 20.483 26.8443 20.483 26.8443C20.483 26.8443 20.483 26.8443 20.483 26.8443C20.483 26.8443 20.483 26.8443 20.483 26.8443C20.483 26.8443 20.483 26.8443 20.483 26.8443C20.483 26.8443 20.483 26.8443 20.483 26.8443C20.483 26.8443 20.483 26.8443 20.483 26.8443C20.4831 26.8443 20.4831 26.8443 20.4831 26.8443C20.4831 26.8443 20.4831 26.8443 20.4831 26.8443C20.4831 26.8443 20.4831 26.8443 20.4831 26.8443C20.4831 26.8443 20.4831 26.8443 20.4831 26.8443C20.4831 26.8443 20.4831 26.8443 20.4831 26.8443C20.4831 26.8443 20.4831 26.8443 20.4831 26.8443C20.4831 26.8443 20.4831 26.8443 20.4831 26.8443C20.4831 26.8443 20.4831 26.8443 20.4831 26.8443C20.4831 26.8443 20.4831 26.8443 20.4831 26.8443C20.4831 26.8443 20.4831 26.8443 20.4831 26.8443C20.4831 26.8443 20.4831 26.8443 20.4831 26.8443C20.4831 26.8443 20.4831 26.8443 20.4831 26.8443C20.4831 26.8443 20.4831 26.8443 20.4831 26.8443C20.4831 26.8443 20.4831 26.8443 20.4831 26.8443C20.4831 26.8443 20.4831 26.8443 20.4831 26.8443C20.4831 26.8443 20.4831 26.8443 20.4831 26.8443C20.4831 26.8443 20.4831 26.8443 20.4831 26.8443C20.4831 26.8443 20.4831 26.8443 20.4831 26.8443C20.4831 26.8443 20.4831 26.8443 20.4831 26.8443C20.4831 26.8443 20.4831 26.8443 20.4831 26.8443C20.4831 26.8443 20.4831 26.8443 20.4831 26.8443C20.4831 26.8443 20.4831 26.8443 20.4831 26.8443C20.4831 26.8443 20.4831 26.8443 20.4831 26.8443C20.4831 26.8443 20.4831 26.8443 20.4831 26.8443C20.4831 26.8443 20.4831 26.8443 20.4831 26.8443C20.4831 26.8443 20.4831 26.8443 20.4831 26.8443C20.4831 26.8443 20.4831 26.8443 20.4831 26.8443C20.4831 26.8443 20.4831 26.8443 20.4831 26.8443C20.4831 26.8443 20.4831 26.8443 20.4831 26.8443C20.4831 26.8443 20.4831 26.8443 20.4831 26.8443C20.4831 26.8443 20.4831 26.8443 20.4831 26.8443C20.4831 26.8443 20.4831 26.8443 20.4831 26.8443C20.4831 26.8443 20.4831 26.8443 20.4831 26.8443C20.4831 26.8443 20.4831 26.8443 20.4831 26.8443C20.4831 26.8443 20.4831 26.8443 20.4831 26.8443C20.4831 26.8443 20.4831 26.8443 20.4831 26.8443C20.4831 26.8443 20.4831 26.8443 20.4831 26.8443C20.4831 26.8443 20.4831 26.8443 20.4831 26.8443C20.4831 26.8443 20.4831 26.8443 20.4831 26.8443C20.4831 26.8443 20.4831 26.8443 20.4831 26.8443C20.4831 26.8443 20.4831 26.8443 20.4831 26.8443C20.4831 26.8443 20.4831 26.8443 20.4831 26.8443C20.4831 26.8443 20.4831 26.8443 20.4831 26.8443C20.4831 26.8443 20.4831 26.8443 20.4831 26.8443C20.4831 26.8443 20.4831 26.8443 20.4831 26.8443C20.4831 26.8443 20.4831 26.8443 20.4831 26.8443C20.4831 26.8443 20.4831 26.8443 20.4831 26.8443C20.4831 26.8443 20.4831 26.8443 20.4831 26.8443C20.4831 26.8443 20.4831 26.8443 20.4831 26.8443C20.4831 26.8443 20.4831 26.8443 20.4831 26.8443C20.4831 26.8443 20.4831 26.8443 20.4831 26.8443C20.4831 26.8443 20.4831 26.8443 20.4831 26.8443C20.4831 26.8443 20.4831 26.8443 20.4831 26.8443C20.4831 26.8443 20.4831 26.8443 20.4831 26.8443C20.4831 26.8443 20.4831 26.8443 20.4831 26.8443C20.4831 26.8443 20.4831 26.8443 20.4831 26.8443C20.4831 26.8443 20.4831 26.8443 20.4831 26.8443C20.4831 26.8443 20.4831 26.8443 20.4831 26.8443C20.4831 26.8443 20.4831 26.8443 20.4831 26.8443C20.4831 26.8443 20.4831 26.8443 20.4831 26.8443C20.4831 26.8443 20.4831 26.8443 20.4831 26.8443C20.4831 26.8443 20.4831 26.8443 20.4831 26.8443C20.4831 26.8443 20.4831 26.8443 20.4831 26.8443C20.4831 26.8443 20.4831 26.8443 20.4831 26.8443C20.4831 26.8443 20.4831 26.8443 20.4831 26.8443C20.4831 26.8443 20.4831 26.8443 20.4831 26.8443C20.4831 26.8443 20.4831 26.8443 20.4831 26.8443C20.4831 26.8443 20.4831 26.8443 20.4831 26.8443C20.4831 26.8443 20.4831 26.8443 20.4831 26.8443C20.4831 26.8443 20.4831 26.8443 20.4831 26.8443C20.4831 26.8443 20.4831 26.8443 20.4831 26.8443C20.4831 26.8443 20.4831 26.8443 20.4831 26.8443C20.4831 26.8443 20.4831 26.8443 20.4831 26.8443C20.4831 26.8443 20.4831 26.8443 20.4831 26.8443C20.4831 26.8443 20.4831 26.8443 20.4831 26.8443C20.4831 26.8443 20.4831 26.8443 20.4831 26.8443C20.4831 26.8443 20.4831 26.8443 20.4831 26.8443C20.4831 26.8443 20.4831 26.8443 20.4831 26.8443C20.4831 26.8443 20.4831 26.8443 20.4831 26.8443C20.4831 26.8443 20.4831 26.8443 20.4831 26.8443C20.4831 26.8443 20.4831 26.8443 20.4831 26.8443C20.4831 26.8443 20.4831 26.8443 20.4831 26.8443C20.4831 26.8443 20.4831 26.8443 20.4831 26.8443C20.4831 26.8443 20.4831 26.8443 20.4831 26.8443C20.4831 26.8443 20.4831 26.8443 20.4831 26.8443C20.4831 26.8443 20.4831 26.8443 20.4831 26.8443C20.4831 26.8443 20.4831 26.8443 20.4831 26.8443C20.4831 26.8443 20.4831 26.8443 20.4831 26.8443C20.4831 26.8443 20.4831 26.8443 20.4831 26.8443C20.4831 26.8443 20.4831 26.8443 20.4831 26.8443C20.4831 26.8443 20.4831 26.8443 20.4831 26.8443C20.4831 26.8443 20.4831 26.8443 20.4831 26.8443C20.4831 26.8443 20.4831 26.8443 20.4831 26.8443C20.4831 26.8443 20.4831 26.8443 20.4831 26.8443C20.4831 26.8443 20.4831 26.8443 20.4831 26.8443C20.4831 26.8443 20.4831 26.8443 20.4831 26.8443C20.4831 26.8443 20.4831 26.8443 20.4831 26.8443C20.4831 26.8443 20.4831 26.8443 20.4831 26.8443C20.4831 26.8443 20.4831 26.8443 20.4831 26.8443C20.4831 26.8443 20.4831 26.8443 20.4831 26.8443C20.4831 26.8443 20.4831 26.8443 20.4831 26.8443C20.4831 26.8443 20.4831 26.8443 20.4831 26.8443C20.4831 26.8443 20.4831 26.8443 20.4831 26.8443C20.4831 26.8443 20.4831 26.8443 20.4831 26.8443C20.4831 26.8443 20.4831 26.8443 20.4831 26.8443C20.4831 26.8443 20.4831 26.8443 20.4831 26.8443C20.4831 26.8443 20.4831 26.8443 20.4831 26.8443C20.4831 26.8443 20.4831 26.8443 20.4831 26.8443C20.4831 26.8443 20.4831 26.8443 20.4831 26.8443C20.4831 26.8443 20.4831 26.8443 20.4831 26.8443C20.4831 26.8443 20.4831 26.8443 20.4831 26.8443C20.4831 26.8443 20.4831 26.8443 20.4831 26.8443C20.4831 26.8443 20.4831 26.8443 20.4831 26.8443C20.4831 26.8443 20.4831 26.8443 20.4831 26.8443C20.4831 26.8443 20.4831 26.8443 20.4831 26.8443C20.4831 26.8443 20.4831 26.8443 20.4831 26.8443C20.4831 26.8443 20.4831 26.8443 20.4831 26.8443C20.4831 26.8443 20.4831 26.8443 20.4831 26.8443C20.4831 26.8443 20.4831 26.8443 20.4831 26.8443C20.4831 26.8443 20.4831 26.8443 20.4831 26.8443C20.4831 26.8443 20.4831 26.8443 20.4831 26.8443C20.4831 26.8443 20.4831 26.8443 20.4831 26.8443C20.4831 26.8443 20.4831 26.8443 20.4831 26.8443C20.4831 26.8443 20.4831 26.8443 20.4831 26.8443C20.4831 26.8443 20.4831 26.8443 20.4831 26.8443C20.4831 26.8443 20.4831 26.8443 20.4831 26.8443C20.4831 26.8443 20.4831 26.8443 20.4831 26.8443C20.4831 26.8443 20.4831 26.8443 20.4831 26.8443C20.4831 26.8443 20.4831 26.8443 20.4831 26.8443C20.4831 26.8443 20.4831 26.8443 20.4831 26.8443C20.4831 26.8443 20.4831 26.8443 20.4831 26.8443C20.4831 26.8443 20.4831 26.8443 20.4831 26.8443C20.4831 26.8443 20.4831 26.8443 20.4831 26.8443C20.4831 26.8443 20.4831 26.8443 20.4831 26.8443C20.4831 26.8443 20.4831 26.8443 20.4831 26.8443C20.4831 26.8443 20.4831 26.8443 20.4831 26.8443C20.4831 26.8443 20.4831 26.8443 20.4831 26.8443C20.4831 26.8443 20.4831 26.8443 20.4831 26.8443C20.4831 26.8443 20.4831 26.8443 20.4831 26.8443C20.4831 26.8443 20.4831 26.8443 20.4831 26.8443C20.4831 26.8443 20.4831 26.8443 20.4831 26.8443C20.4831 26.8443 20.4831 26.8443 20.4831 26.8443C20.4831 26.8443 20.4831 26.8443 20.4831 26.8443C20.4831 26.8443 20.4831 26.8443 20.4831 26.8443C20.4831 26.8443 20.4831 26.8443 20.4831 26.8443C20.4831 26.8443 20.4831 26.8443 20.4831 26.8443C20.4831 26.8443 20.4831 26.8443 20.4831 26.8443C20.4831 26.8443 20.4831 26.8443 20.4831 26.8443C20.4831 26.8443 20.4831 26.8443 20.4831 26.8443C20.4831 26.8443 20.4831 26.8443 20.4831 26.8443C20.4831 26.8443 20.4831 26.8443 20.4831 26.8443C20.4831 26.8443 20.4831 26.8443 20.4831 26.8443C20.4831 26.8443 20.4831 26.8443 20.4831 26.8443C20.4831 26.8443 20.4831 26.8443 20.4831 26.8443C20.4831 26.8443 20.4831 26.8443 20.4831 26.8443C20.4831 26.8443 20.4831 26.8443 20.4831 26.8443C20.4831 26.8443 20.4831 26.8443 20.4831 26.8443C20.4831 26.8443 20.4831 26.8443 20.4831 26.8443C20.4831 26.8443 20.4831 26.8443 20.4831 26.8443C20.4831 26.8443 20.4831 26.8443 20.4831 26.8443C20.4831 26.8443 20.4831 26.8443 20.4831 26.8443C20.4831 26.8443 20.4831 26.8443 20.4831 26.8443C20.4831 26.8443 20.4831 26.8443 20.4831 26.8443C20.4831 26.8443 20.4831 26.8443 20.4831 26.8443C20.4831 26.8443 20.4832 26.8443 20.4832 26.8443C20.4832 26.8443 20.4832 26.8443 20.4832 26.8443C20.4832 26.8443 20.4832 26.8443 20.4832 26.8443C20.4832 26.8443 20.4832 26.8443 20.4832 26.8443C20.4832 26.8443 20.4832 26.8443 20.4832 26.8443C20.4832 26.8443 20.4832 26.8443 20.4832 26.8443C20.4832 26.8443 20.4832 26.8443 20.4832 26.8443C20.4832 26.8443 20.4832 26.8443 20.4832 26.8443C20.4832 26.8443 20.4832 26.8443 20.4832 26.8443C20.4832 26.8443 20.4832 26.8443 20.4832 26.8443C20.4832 26.8443 20.4832 26.8443 20.4832 26.8443C20.4832 26.8443 20.4832 26.8443 20.4832 26.8443C20.4832 26.8443 20.4832 26.8443 20.4832 26.8443C20.4832 26.8443 20.4832 26.8443 20.4832 26.8443C20.4832 26.8443 20.4832 26.8443 20.4832 26.8443C20.4832 26.8443 20.4832 26.8443 20.4832 26.8443C20.4832 26.8443 20.4832 26.8443 20.4832 26.8443C20.4832 26.8443 20.4832 26.8443 20.4832 26.8443C20.4832 26.8443 20.4832 26.8443 20.4832 26.8443C20.4832 26.8443 20.4832 26.8443 20.4832 26.8443C20.4832 26.8443 20.4832 26.8443 20.4832 26.8443C20.4832 26.8443 20.4832 26.8443 20.4832 26.8443C20.4832 26.8443 20.4832 26.8443 20.4832 26.8443C20.4832 26.8443 20.4832 26.8443 20.4832 26.8443C20.4832 26.8443 20.4832 26.8443 20.4832 26.8443C20.4832 26.8443 20.4832 26.8443 20.4832 26.8443C20.4832 26.8443 20.4832 26.8443 20.4832 26.8443C20.4832 26.8443 20.4832 26.8443 20.4832 26.8443C20.4832 26.8443 20.4832 26.8443 20.4832 26.8443C20.4832 26.8443 20.4832 26.8443 20.4832 26.8443C20.4832 26.8443 20.4832 26.8443 20.4832 26.8443C20.4832 26.8443 20.4832 26.8443 20.4832 26.8443C20.4832 26.8443 20.4832 26.8443 20.4832 26.8443C20.4832 26.8443 20.4832 26.8443 20.4832 26.8443C20.4832 26.8443 20.4832 26.8443 20.4832 26.8443C20.4832 26.8443 20.4832 26.8443 20.4832 26.8443C20.4832 26.8443 20.4832 26.8443 20.4832 26.8443C20.4832 26.8443 20.4832 26.8443 20.4832 26.8443C20.4832 26.8443 20.4832 26.8443 20.4832 26.8443C20.4832 26.8443 20.4832 26.8443 20.4832 26.8443C20.4832 26.8443 20.4832 26.8443 20.4832 26.8443C20.4832 26.8443 20.4832 26.8443 20.4832 26.8443C20.4832 26.8443 20.4832 26.8443 20.4832 26.8443C20.4832 26.8443 20.4832 26.8443 20.4832 26.8443C20.4832 26.8443 20.4832 26.8443 20.4832 26.8443C20.4832 26.8443 20.4832 26.8443 20.4832 26.8443C20.4832 26.8443 20.4832 26.8443 20.4832 26.8443C20.4832 26.8443 20.4832 28.1776 20.4832 29.511C20.4832 29.511 20.4832 29.511 20.4832 29.511C20.4832 29.511 20.4832 29.511 20.4832 29.511C20.4832 29.511 20.4832 29.511 20.4832 29.511C20.4832 29.511 20.4832 29.511 20.4832 29.511C20.4832 29.511 20.4832 29.511 20.4832 29.511C20.4832 29.511 20.4832 29.511 20.4832 29.511C20.4832 29.511 20.4832 29.511 20.4832 29.511C20.4832 29.511 20.4832 29.511 20.4832 29.511C20.4832 29.511 20.4832 29.511 20.4832 29.511C20.4832 29.511 20.4832 29.511 20.4832 29.511C20.4832 29.511 20.4832 29.511 20.4832 29.511C20.4832 29.511 20.4832 29.511 20.4832 29.511C20.4832 29.511 20.4832 29.511 20.4832 29.511C20.4832 29.511 20.4832 29.511 20.4832 29.511C20.4832 29.511 20.4832 29.511 20.4832 29.511C20.4832 29.511 20.4832 29.511 20.4832 29.511C20.4832 29.511 20.4832 29.511 20.4832 29.511C20.4832 29.511 20.4832 29.511 20.4832 29.511C20.4832 29.511 20.4832 29.511 20.4832 29.511C20.4832 29.511 20.4832 29.511 20.4832 29.511C20.4832 29.511 20.4832 29.511 20.4832 29.511C20.4832 29.511 20.4832 29.511 20.4832 29.511C20.4832 29.511 20.4832 29.511 20.4832 29.511C20.4832 29.511 20.4832 29.511 20.4832 29.511C20.4832 29.511 20.4832 29.511 20.4832 29.511C20.4832 29.511 20.4832 29.511 20.4832 29.511C20.4832 29.511 20.4832 29.511 20.4832 29.511C20.4832 29.511 20.4832 29.511 20.4832 29.511C20.4832 29.511 20.4832 29.511 20.4832 29.511C20.4832 29.511 20.4832 29.511 20.4832 29.511C20.4832 29.511 20.4832 29.511 20.4832 29.511C20.4832 29.511 20.4832 29.511 20.4832 29.511C20.4832 29.511 20.4832 29.511 20.4832 29.511C20.4832 29.511 20.4832 29.511 20.4832 29.511C20.4832 29.511 20.4832 29.511 20.4832 29.511C20.4832 29.511 20.4832 29.511 20.4832 29.511C20.4832 29.511 20.4832 29.511 20.4832 29.511C20.4832 29.511 20.4832 29.511 20.4832 29.511C20.4832 29.511 20.4832 29.511 20.4832 29.511C20.4832 29.511 20.4832 29.511 20.4832 29.511C20.4832 29.511 20.4832 29.511 20.4832 29.511C20.4832 29.511 20.4832 29.511 20.4832 29.511C20.4832 29.511 20.4831 29.511 20.4831 29.511C20.4831 29.511 20.4831 29.511 20.4831 29.511C20.4831 29.511 20.4831 29.511 20.4831 29.511C20.4831 29.511 20.4831 29.511 20.4831 29.511C20.4831 29.511 20.4831 29.511 20.4831 29.511C20.4831 29.511 20.4831 29.511 20.4831 29.511C20.4831 29.511 20.4831 29.511 20.4831 29.511C20.4831 29.511 20.4831 29.511 20.4831 29.511C20.4831 29.511 20.4831 29.511 20.4831 29.511C20.4831 29.511 20.4831 29.511 20.4831 29.511C20.4831 29.511 20.4831 29.511 20.4831 29.511C20.4831 29.511 20.4831 29.511 20.4831 29.511C20.4831 29.511 20.4831 29.511 20.4831 29.511C20.4831 29.511 20.4831 29.511 20.4831 29.511C20.4831 29.511 20.4831 29.511 20.4831 29.511C20.4831 29.511 20.4831 29.511 20.4831 29.511C20.4831 29.511 20.4831 29.511 20.4831 29.511C20.4831 29.511 20.4831 29.511 20.4831 29.511C20.4831 29.511 20.4831 29.511 20.4831 29.511C20.4831 29.511 20.4831 29.511 20.4831 29.511C20.4831 29.511 20.4831 29.511 20.4831 29.511C20.4831 29.511 20.4831 29.511 20.4831 29.511C20.4831 29.511 20.4831 29.511 20.4831 29.511C20.4831 29.511 20.4831 29.511 20.4831 29.511C20.4831 29.511 20.4831 29.511 20.4831 29.511C20.4831 29.511 20.4831 29.511 20.4831 29.511C20.4831 29.511 20.4831 29.511 20.4831 29.511C20.4831 29.511 20.4831 29.511 20.4831 29.511C20.4831 29.511 20.4831 29.511 20.4831 29.511C20.4831 29.511 20.4831 29.511 20.4831 29.511C20.4831 29.511 20.4831 29.511 20.4831 29.511C20.4831 29.511 20.4831 29.511 20.4831 29.511C20.4831 29.511 20.4831 29.511 20.4831 29.511C20.4831 29.511 20.4831 29.511 20.4831 29.511C20.4831 29.511 20.4831 29.511 20.4831 29.511C20.4831 29.511 20.4831 29.511 20.4831 29.511C20.4831 29.511 20.4831 29.511 20.4831 29.511C20.4831 29.511 20.4831 29.511 20.4831 29.511C20.4831 29.511 20.4831 29.511 20.4831 29.511C20.4831 29.511 20.4831 29.511 20.4831 29.511C20.4831 29.511 20.4831 29.511 20.4831 29.511C20.4831 29.511 20.4831 29.511 20.4831 29.511C20.4831 29.511 20.4831 29.511 20.4831 29.511C20.4831 29.511 20.4831 29.511 20.4831 29.511C20.4831 29.511 20.4831 29.511 20.4831 29.511C20.4831 29.511 20.4831 29.511 20.4831 29.511C20.4831 29.511 20.4831 29.511 20.4831 29.511C20.4831 29.511 20.4831 29.511 20.4831 29.511C20.4831 29.511 20.4831 29.511 20.4831 29.511C20.4831 29.511 20.4831 29.511 20.4831 29.511C20.4831 29.511 20.4831 29.511 20.4831 29.511C20.4831 29.511 20.4831 29.511 20.4831 29.511C20.4831 29.511 20.4831 29.511 20.4831 29.511C20.4831 29.511 20.4831 29.511 20.4831 29.511C20.4831 29.511 20.4831 29.511 20.4831 29.511C20.4831 29.511 20.4831 29.511 20.4831 29.511C20.4831 29.511 20.4831 29.511 20.4831 29.511C20.4831 29.511 20.4831 29.511 20.4831 29.511C20.4831 29.511 20.4831 29.511 20.4831 29.511C20.4831 29.511 20.4831 29.511 20.4831 29.511C20.4831 29.511 20.4831 29.511 20.4831 29.511C20.4831 29.511 20.4831 29.511 20.4831 29.511C20.4831 29.511 20.4831 29.511 20.4831 29.511C20.4831 29.511 20.4831 29.511 20.4831 29.511C20.4831 29.511 20.4831 29.511 20.4831 29.511C20.4831 29.511 20.4831 29.511 20.4831 29.511V26.8443C20.4831 26.8443 20.4831 26.8443 20.4831 26.8443C20.4831 26.8443 20.4831 26.8443 20.4831 26.8443C20.4831 26.8443 20.4831 26.8443 20.4831 26.8443C20.4831 26.8443 20.4831 26.8443 20.4831 26.8443C20.4831 26.8443 20.4831 26.8443 20.4831 26.8443C20.4831 26.8443 20.4831 26.8443 20.4831 26.8443C20.4831 26.8443 20.4831 26.8443 20.4831 26.8443C20.4831 26.8443 20.4831 26.8443 20.4831 26.8443C20.4831 26.8443 20.4831 26.8443 20.4831 26.8443C20.4831 26.8443 20.4831 26.8443 20.4831 26.8443C20.4831 26.8443 20.4831 26.8443 20.4831 26.8443C20.4831 26.8443 20.4831 26.8443 20.4831 26.8443C20.4831 26.8443 20.4831 26.8443 20.4831 26.8443C20.4831 26.8443 20.4831 26.8443 20.4831 26.8443C20.4831 26.8443 20.4831 26.8443 20.4831 26.8443C20.4831 26.8443 20.4831 26.8443 20.4831 26.8443C20.4831 26.8443 20.4831 26.8443 20.4831 26.8443C20.4831 26.8443 20.4831 26.8443 20.4831 26.8443C20.4831 26.8443 20.4831 26.8443 20.4831 26.8443C20.4831 26.8443 20.4831 26.8443 20.4831 26.8443C20.4831 26.8443 20.4831 26.8443 20.4831 26.8443C20.4831 26.8443 20.4831 26.8443 20.4831 26.8443C20.4831 26.8443 20.4831 26.8443 20.4831 26.8443C20.4831 26.8443 20.4831 26.8443 20.4831 26.8443C20.4831 26.8443 20.4831 26.8443 20.4831 26.8443C20.4831 26.8443 20.4831 26.8443 20.4831 26.8443C20.4831 26.8443 20.4831 26.8443 20.4831 26.8443C20.4831 26.8443 20.4831 26.8443 20.4831 26.8443C20.4831 26.8443 20.4831 26.8443 20.4831 26.8443C20.4831 26.8443 20.4831 26.8443 20.4831 26.8443C20.4831 26.8443 20.4831 26.8443 20.4831 26.8443C20.4831 26.8443 20.4831 26.8443 20.4831 26.8443C20.4831 26.8443 20.4831 26.8443 20.4831 26.8443C20.4831 26.8443 20.4831 26.8443 20.4831 26.8443C20.4831 26.8443 20.4831 26.8443 20.4831 26.8443C20.4831 26.8443 20.4831 26.8443 20.4831 26.8443C20.4831 26.8443 20.4831 26.8443 20.4831 26.8443C20.4831 26.8443 20.4831 26.8443 20.4831 26.8443C20.4831 26.8443 20.4831 26.8443 20.4831 26.8443C20.4831 26.8443 20.4831 26.8443 20.4831 26.8443C20.4831 26.8443 20.4831 26.8443 20.4831 26.8443C20.4831 26.8443 20.4831 26.8443 20.4831 26.8443C20.4831 26.8443 20.4831 26.8443 20.4831 26.8443C20.4831 26.8443 20.4831 26.8443 20.4831 26.8443C20.4831 26.8443 20.4831 26.8443 20.4831 26.8443C20.4831 26.8443 20.4831 26.8443 20.4831 26.8443C20.4831 26.8443 20.4831 26.8443 20.4831 26.8443C20.4831 26.8443 20.4831 26.8443 20.4831 26.8443C20.4831 26.8443 20.4831 26.8443 20.4831 26.8443C20.4831 26.8443 20.4831 26.8443 20.4831 26.8443C20.4831 26.8443 20.4831 26.8443 20.4831 26.8443C20.4831 26.8443 20.4831 26.8443 20.4831 26.8443C20.4831 26.8443 20.4831 26.8443 20.4831 26.8443C20.4831 26.8443 20.4831 26.8443 20.4831 26.8443C20.4831 26.8443 20.4831 26.8443 20.4831 26.8443C20.4831 26.8443 20.4831 26.8443 20.4831 26.8443C20.4831 26.8443 20.4831 26.8443 20.4831 26.8443C20.4831 26.8443 20.4831 26.8443 20.4831 26.8443C20.4831 26.8443 20.4831 26.8443 20.4831 26.8443C20.4831 26.8443 20.4831 26.8443 20.4831 26.8443C20.4831 26.8443 20.4831 26.8443 20.4831 26.8443C20.4831 26.8443 20.4831 26.8443 20.4831 26.8443C20.4831 26.8443 20.4831 26.8443 20.4831 26.8443C20.4831 26.8443 20.4831 26.8443 20.4831 26.8443C20.4831 26.8443 20.4831 26.8443 20.4831 26.8443C20.4831 26.8443 20.4832 26.8443 20.4832 26.8443C20.4832 26.8443 20.4832 26.8443 20.4832 26.8443C20.4832 26.8443 20.4832 26.8443 20.4832 26.8443C20.4832 26.8443 20.4832 26.8443 20.4832 26.8443C20.4832 26.8443 20.4832 26.8443 20.4832 26.8443C20.4832 26.8443 20.4832 26.8443 20.4832 26.8443C20.4832 26.8443 20.4832 26.8443 20.4832 26.8443C20.4832 26.8443 20.4832 26.8443 20.4832 26.8443C20.4832 26.8443 20.4832 26.8443 20.4832 26.8443C20.4832 26.8443 20.4832 26.8443 20.4832 26.8443C20.4832 26.8443 20.4832 26.8443 20.4832 26.8443C20.4832 26.8443 20.4832 26.8443 20.4832 26.8443C20.4832 26.8443 20.4832 26.8443 20.4832 26.8443C20.4832 26.8443 20.4832 26.8443 20.4832 26.8443C20.4832 26.8443 20.4832 26.8443 20.4832 26.8443C20.4832 26.8443 20.4832 26.8443 20.4832 26.8443C20.4832 26.8443 20.4832 26.8443 20.4832 26.8443C20.4832 26.8443 20.4832 26.8443 20.4832 26.8443C20.4832 26.8443 20.4832 26.8443 20.4832 26.8443C20.4832 26.8443 20.4832 26.8443 20.4832 26.8443C20.4832 26.8443 20.4832 26.8443 20.4832 26.8443C20.4832 26.8443 20.4832 26.8443 20.4832 26.8443C20.4832 26.8443 20.4832 26.8443 20.4832 26.8443C20.4832 26.8443 20.4832 26.8443 20.4832 26.8443C20.4832 26.8443 20.4832 26.8443 20.4832 26.8443C20.4832 26.8443 20.4832 26.8443 20.4832 26.8443C20.4832 26.8443 20.4832 26.8443 20.4832 26.8443C20.4832 26.8443 20.4832 26.8443 20.4832 26.8443C20.4832 26.8443 20.4832 26.8443 20.4832 26.8443C20.4832 26.8443 20.4832 26.8443 20.4832 26.8443C20.4832 26.8443 20.4832 26.8443 20.4832 26.8443C20.4832 26.8443 20.4832 26.8443 20.4832 26.8443C20.4832 26.8443 20.4832 26.8443 20.4832 26.8443C20.4832 26.8443 20.4832 26.8443 20.4832 26.8443C20.4832 26.8443 20.4832 26.8443 20.4832 26.8443C20.4832 26.8443 20.4832 26.8443 20.4832 26.8443C20.4832 26.8443 20.4832 26.8443 20.4832 26.8443C20.4832 26.8443 20.4832 26.8443 20.4832 26.8443C20.4832 26.8443 20.4832 26.8443 20.4832 26.8443C20.4832 26.8443 20.4832 26.8443 20.4832 26.8443C20.4832 26.8443 20.4832 26.8443 20.4832 26.8443C20.4832 26.8443 20.4832 26.8443 20.4832 26.8443C20.4832 26.8443 20.4832 26.8443 20.4832 26.8443C20.4832 28.1776 20.4832 29.511 20.4832 29.511C20.4832 29.511 20.4832 29.511 20.4832 29.511C20.4832 29.511 20.4832 29.511 20.4832 29.511C20.4832 29.511 20.4832 29.511 20.4832 29.511C20.4832 29.511 20.4832 29.511 20.4832 29.511C20.4832 29.511 20.4832 29.511 20.4832 29.511C20.4832 29.511 20.4832 29.511 20.4832 29.511C20.4832 29.511 20.4832 29.511 20.4832 29.511C20.4832 29.511 20.4832 29.511 20.4832 29.511C20.4832 29.511 20.4832 29.511 20.4832 29.511C20.4832 29.511 20.4832 29.511 20.4832 29.511C20.4832 29.511 20.4832 29.511 20.4832 29.511C20.4832 29.511 20.4832 29.511 20.4832 29.511C20.4832 29.511 20.4832 29.511 20.4832 29.511C20.4832 29.511 20.4832 29.511 20.4832 29.511C20.4832 29.511 20.4832 29.511 20.4832 29.511C20.4832 29.511 20.4832 29.511 20.4832 29.511C20.4832 29.511 20.4832 29.511 20.4832 29.511C20.4832 29.511 20.4832 29.511 20.4832 29.511C20.4832 29.511 20.4832 29.511 20.4832 29.511C20.4832 29.511 20.4832 29.511 20.4832 29.511C20.4832 29.511 20.4832 29.511 20.4832 29.511C20.4832 29.511 20.4832 29.511 20.4832 29.511C20.4832 29.511 20.4832 29.511 20.4832 29.511C20.4832 29.511 20.4832 29.511 20.4832 29.511C20.4832 29.511 20.4832 29.511 20.4832 29.511C20.4832 29.511 20.4832 29.511 20.4832 29.511C20.4832 29.511 20.4832 29.511 20.4832 29.511C20.4832 29.511 20.4832 29.511 20.4832 29.511C20.4832 29.511 20.4832 29.511 20.4832 29.511C20.4832 29.511 20.4832 29.511 20.4832 29.511C20.4832 29.511 20.4832 29.511 20.4832 29.511C20.4832 29.511 20.4832 29.511 20.4832 29.511C20.4832 29.511 20.4832 29.511 20.4832 29.511C20.4832 29.511 20.4832 29.511 20.4832 29.511C20.4832 29.511 20.4832 29.511 20.4832 29.511C20.4832 29.511 20.4832 29.511 20.4832 29.511C20.4832 29.511 20.4832 29.511 20.4832 29.511C20.4832 29.511 20.4832 29.511 20.4832 29.511C20.4832 29.511 20.4832 29.511 20.4832 29.511C20.4832 29.511 20.4832 29.511 20.4832 29.511C20.4832 29.511 20.4832 29.511 20.4832 29.511C20.4832 29.511 20.4832 29.511 20.4832 29.511C20.4832 29.511 20.4832 29.511 20.4832 29.511C20.4832 29.511 20.4832 29.511 20.4832 29.511C20.4832 29.511 20.4832 29.511 20.4832 29.511C20.4832 29.511 20.4832 29.511 20.4832 29.511C20.4832 29.511 20.4831 29.511 20.4831 29.511C20.4831 29.511 20.4831 29.511 20.4831 29.511C20.4831 29.511 20.4831 29.511 20.4831 29.511C20.4831 29.511 20.4831 29.511 20.4831 29.511C20.4831 29.511 20.4831 29.511 20.4831 29.511C20.4831 29.511 20.4831 29.511 20.4831 29.511C20.4831 29.511 20.4831 29.511 20.4831 29.511C20.4831 29.511 20.4831 29.511 20.4831 29.511C20.4831 29.511 20.4831 29.511 20.4831 29.511C20.4831 29.511 20.4831 29.511 20.4831 29.511C20.4831 29.511 20.4831 29.511 20.4831 29.511C20.4831 29.511 20.4831 29.511 20.4831 29.511C20.4831 29.511 20.4831 29.511 20.4831 29.511C20.4831 29.511 20.4831 29.511 20.4831 29.511C20.4831 29.511 20.4831 29.511 20.4831 29.511C20.4831 29.511 20.4831 29.511 20.4831 29.511C20.4831 29.511 20.4831 29.511 20.4831 29.511C20.4831 29.511 20.4831 29.511 20.4831 29.511C20.4831 29.511 20.4831 29.511 20.4831 29.511C20.4831 29.511 20.4831 29.511 20.4831 29.511C20.4831 29.511 20.4831 29.511 20.4831 29.511C20.4831 29.511 20.4831 29.511 20.4831 29.511C20.4831 29.511 20.4831 29.511 20.4831 29.511C20.4831 29.511 20.4831 29.511 20.4831 29.511C20.4831 29.511 20.4831 29.511 20.4831 29.511C20.4831 29.511 20.4831 29.511 20.4831 29.511C20.4831 29.511 20.4831 29.511 20.4831 29.511C20.4831 29.511 20.4831 29.511 20.4831 29.511C20.4831 29.511 20.4831 29.511 20.4831 29.511C20.4831 29.511 20.4831 29.511 20.4831 29.511C20.4831 29.511 20.4831 29.511 20.4831 29.511C20.4831 29.511 20.4831 29.511 20.4831 29.511C20.4831 29.511 20.4831 29.511 20.4831 29.511C20.4831 29.511 20.4831 29.511 20.4831 29.511C20.4831 29.511 20.4831 29.511 20.4831 29.511C20.4831 29.511 20.4831 29.511 20.4831 29.511C20.4831 29.511 20.4831 29.511 20.4831 29.511C20.4831 29.511 20.4831 29.511 20.4831 29.511C20.4831 29.511 20.4831 29.511 20.4831 29.511C20.4831 29.511 20.4831 29.511 20.4831 29.511C20.4831 29.511 20.4831 29.511 20.4831 29.511C20.4831 29.511 20.4831 29.511 20.4831 29.511C20.4831 29.511 20.4831 29.511 20.4831 29.511C20.4831 29.511 20.4831 29.511 20.4831 29.511C20.4831 29.511 20.4831 29.511 20.4831 29.511C20.4831 29.511 20.4831 29.511 20.4831 29.511C20.4831 29.511 20.4831 29.511 20.4831 29.511C20.4831 29.511 20.4831 29.511 20.4831 29.511C20.4831 29.511 20.4831 29.511 20.4831 29.511C20.4831 29.511 20.4831 29.511 20.4831 29.511C20.4831 29.511 20.4831 29.511 20.4831 29.511C20.4831 29.511 20.4831 29.511 20.4831 29.511C20.4831 29.511 20.4831 29.511 20.4831 29.511C20.4831 29.511 20.4831 29.511 20.4831 29.511C20.4831 29.511 20.4831 29.511 20.4831 29.511C20.4831 29.511 20.4831 29.511 20.4831 29.511C20.4831 29.511 20.4831 29.511 20.4831 29.511C20.4831 29.511 20.4831 29.511 20.4831 29.511C20.4831 29.511 20.4831 29.511 20.4831 29.511C20.4831 29.511 20.4831 29.511 20.4831 29.511C20.4831 29.511 20.4831 29.511 20.4831 29.511C20.4831 29.511 20.4831 29.511 20.4831 29.511C20.4831 29.511 20.4831 29.511 20.4831 29.511C20.4831 29.511 20.4831 29.511 20.4831 29.511C20.4831 29.511 20.4831 29.511 20.4831 29.511C20.4831 29.511 20.4831 29.511 20.4831 29.511C20.4831 29.511 20.4831 29.511 20.4831 29.511C20.4831 29.511 20.4831 29.511 20.4831 29.511C20.4831 29.511 20.4831 29.511 20.4831 29.511C20.4831 29.511 20.4831 29.511 20.4831 29.511C20.4831 29.511 20.4831 29.511 20.4831 29.511C20.4831 29.511 20.4831 29.511 20.4831 29.511C20.4831 29.511 20.4831 29.511 20.4831 29.511C20.4831 29.511 20.4831 29.511 20.4831 29.511C20.4831 29.511 20.4831 29.511 20.4831 29.511C20.4831 29.511 20.4831 29.511 20.4831 29.511C20.4831 29.511 20.4831 29.511 20.4831 29.511C20.4831 29.511 20.4831 29.511 20.4831 29.511C20.4831 29.511 20.4831 29.511 20.4831 29.511C20.4831 29.511 20.4831 29.511 20.4831 29.511C20.4831 29.511 20.4831 29.511 20.4831 29.511C20.4831 29.511 20.4831 29.511 20.4831 29.511C20.4831 29.511 20.4831 29.511 20.4831 29.511C20.4831 29.511 20.4831 29.511 20.4831 29.511C20.4831 29.511 20.4831 29.511 20.4831 29.511C20.4831 29.511 20.4831 29.511 20.4831 29.511C20.4831 29.511 20.4831 29.511 20.4831 29.511C20.4831 29.511 20.4831 29.511 20.4831 29.511C20.4831 29.511 20.4831 29.511 20.4831 29.511C20.4831 29.511 20.4831 29.511 20.4831 29.511C20.4831 29.511 20.4831 29.511 20.4831 29.511C20.4831 29.511 20.4831 29.511 20.4831 29.511C20.4831 29.511 20.4831 29.511 20.4831 29.511C20.4831 29.511 20.4831 29.511 20.4831 29.511C20.4831 29.511 20.4831 29.511 20.4831 29.511C20.4831 29.511 20.4831 29.511 20.4831 29.511C20.4831 29.511 20.4831 29.511 20.4831 29.511C20.4831 29.511 20.4831 29.511 20.4831 29.511C20.4831 29.511 20.4831 29.511 20.4831 29.511C20.4831 29.511 20.4831 29.511 20.4831 29.511C20.4831 29.511 20.4831 29.511 20.4831 29.511C20.4831 29.511 20.4831 29.511 20.4831 29.511C20.4831 29.511 20.4831 29.511 20.4831 29.511C20.4831 29.511 20.4831 29.511 20.4831 29.511C20.4831 29.511 20.4831 29.511 20.4831 29.511C20.4831 29.511 20.4831 29.511 20.4831 29.511C20.4831 29.511 20.4831 29.511 20.4831 29.511C20.4831 29.511 20.4831 29.511 20.4831 29.511C20.4831 29.511 20.4831 29.511 20.4831 29.511C20.4831 29.511 20.4831 29.511 20.4831 29.511C20.4831 29.511 20.4831 29.511 20.4831 29.511C20.4831 29.511 20.4831 29.511 20.4831 29.511C20.4831 29.511 20.4831 29.511 20.4831 29.511C20.4831 29.511 20.4831 29.511 20.4831 29.511C20.4831 29.511 20.4831 29.511 20.4831 29.511C20.4831 29.511 20.4831 29.511 20.4831 29.511C20.4831 29.511 20.4831 29.511 20.4831 29.511C20.4831 29.511 20.4831 29.511 20.4831 29.511C20.4831 29.511 20.4831 29.511 20.4831 29.511C20.4831 29.511 20.4831 29.511 20.4831 29.511C20.4831 29.511 20.4831 29.511 20.4831 29.511C20.4831 29.511 20.4831 29.511 20.4831 29.511C20.4831 29.511 20.4831 29.511 20.4831 29.511C20.4831 29.511 20.4831 29.511 20.4831 29.511C20.4831 29.511 20.4831 29.511 20.4831 29.511C20.4831 29.511 20.4831 29.511 20.4831 29.511C20.4831 29.511 20.4831 29.511 20.4831 29.511C20.4831 29.511 20.4831 29.511 20.4831 29.511C20.4831 29.511 20.4831 29.511 20.4831 29.511C20.4831 29.511 20.4831 29.511 20.4831 29.511C20.4831 29.511 20.4831 29.511 20.4831 29.511C20.4831 29.511 20.4831 29.511 20.4831 29.511C20.4831 29.511 20.4831 29.511 20.4831 29.511C20.4831 29.511 20.4831 29.511 20.4831 29.511C20.4831 29.511 20.4831 29.511 20.4831 29.511C20.4831 29.511 20.4831 29.511 20.4831 29.511C20.4831 29.511 20.4831 29.511 20.4831 29.511C20.4831 29.511 20.4831 29.511 20.4831 29.511C20.4831 29.511 20.4831 29.511 20.4831 29.511C20.4831 29.511 20.4831 29.511 20.4831 29.511C20.4831 29.511 20.4831 29.511 20.4831 29.511C20.4831 29.511 20.4831 29.511 20.4831 29.511C20.4831 29.511 20.4831 29.511 20.4831 29.511C20.4831 29.511 20.4831 29.511 20.4831 29.511C20.4831 29.511 20.4831 29.511 20.4831 29.511C20.4831 29.511 20.4831 29.511 20.4831 29.511C20.4831 29.511 20.4831 29.511 20.4831 29.511C20.4831 29.511 20.4831 29.511 20.4831 29.511C20.4831 29.511 20.4831 29.511 20.4831 29.511C20.4831 29.511 20.4831 29.511 20.4831 29.511C20.4831 29.511 20.4831 29.511 20.4831 29.511C20.4831 29.511 20.4831 29.511 20.4831 29.511C20.4831 29.511 20.4831 29.511 20.4831 29.511C20.4831 29.511 20.4831 29.511 20.4831 29.511C20.4831 29.511 20.4831 29.511 20.4831 29.511C20.4831 29.511 20.4831 29.511 20.4831 29.511C20.4831 29.511 20.4831 29.511 20.4831 29.511C20.4831 29.511 20.4831 29.511 20.4831 29.511C20.4831 29.511 20.4831 29.511 20.4831 29.511C20.4831 29.511 20.4831 29.511 20.4831 29.511C20.4831 29.511 20.4831 29.511 20.4831 29.511C20.4831 29.511 20.4831 29.511 20.4831 29.511C20.4831 29.511 20.4831 29.511 20.4831 29.511C20.4831 29.511 20.4831 29.511 20.4831 29.511C20.4831 29.511 20.4831 29.511 20.483 29.511C20.483 29.511 20.483 29.511 20.483 29.511C20.483 29.511 20.483 29.511 20.483 29.511C20.483 29.511 20.483 29.511 20.483 29.511C20.483 29.511 20.483 29.511 20.483 29.511C20.483 29.511 20.483 29.511 20.483 29.511C20.483 29.511 20.483 29.511 20.483 29.511C20.483 29.511 20.483 29.511 20.483 29.511C20.483 29.511 20.483 29.511 20.483 29.511C20.483 29.511 20.483 29.511 20.483 29.511C20.483 29.511 20.483 29.511 20.483 29.511C20.483 29.511 20.483 29.511 20.483 29.511C20.483 29.511 20.483 29.511 20.483 29.511C20.483 29.511 20.483 29.511 20.483 29.511C20.483 29.511 20.483 29.511 20.483 29.511C20.483 29.511 20.483 29.511 20.483 29.511C20.483 29.511 20.483 29.511 20.483 29.511C20.483 29.511 20.483 29.511 20.483 29.511C20.483 29.511 20.483 29.511 20.483 29.511C20.483 29.511 20.483 29.511 20.483 29.511C20.483 29.511 20.483 29.511 20.483 29.511C20.483 29.511 20.483 29.511 20.483 29.511C20.483 29.511 20.483 29.511 20.483 29.511C20.483 29.511 20.483 29.511 20.483 29.511C20.483 29.511 20.483 29.511 20.483 29.511C20.483 29.511 20.483 29.511 20.483 29.511C20.483 29.511 20.483 29.511 20.483 29.511C20.483 29.511 20.483 29.511 20.483 29.511C20.483 29.511 20.483 29.511 20.483 29.511C20.483 29.511 20.483 29.511 20.483 29.511C20.483 29.511 20.483 29.511 20.483 29.511C20.483 29.511 20.483 29.511 20.483 29.511C20.483 29.511 20.483 29.511 20.483 29.511C20.483 29.511 20.483 29.511 20.483 29.511C20.483 29.511 20.483 29.511 20.483 29.511C20.483 29.511 20.483 29.511 20.483 29.511C20.483 29.511 20.483 29.511 20.483 29.511C20.483 29.511 20.483 29.511 20.483 29.511C20.483 29.511 20.483 29.511 20.483 29.511C20.483 29.511 20.483 29.511 20.483 29.511C20.483 29.511 20.483 29.511 20.483 29.511C20.483 29.511 20.483 29.511 20.483 29.511C20.483 29.511 20.483 29.511 20.483 29.511C20.483 29.511 20.483 29.511 20.483 29.511C20.483 29.511 20.483 29.511 20.483 29.511C20.483 29.511 20.483 29.511 20.483 29.511C20.483 29.511 20.483 29.511 20.483 29.511C20.483 29.511 20.483 29.511 20.483 29.511C20.483 29.511 20.483 29.511 20.483 29.511C20.483 29.511 20.483 29.511 20.483 29.511C20.483 29.511 20.483 29.511 20.483 29.511C20.483 29.511 20.483 29.511 20.483 29.511C20.483 29.511 20.483 29.511 20.483 29.511C20.483 29.511 20.483 29.511 20.483 29.511C20.483 29.511 20.483 29.511 20.483 29.511C20.483 29.511 20.483 29.511 20.483 29.511C20.483 29.511 20.483 29.511 20.483 29.511C20.483 29.511 20.483 29.511 20.483 29.511C20.483 29.511 20.483 29.511 20.483 29.511C20.483 29.511 20.483 29.511 20.483 29.511C20.483 29.511 20.483 29.511 20.483 29.511C20.483 29.511 20.483 29.511 20.483 29.511C20.483 29.511 20.483 29.511 20.483 29.511C20.483 29.511 20.483 29.511 20.483 29.511C20.483 29.511 20.483 29.511 20.483 29.511C20.483 29.511 20.483 29.511 20.483 29.511C20.483 29.511 20.483 29.511 20.483 29.511C20.483 29.511 20.483 29.511 20.483 29.511C20.483 29.511 20.483 29.511 20.483 29.511C20.483 29.511 20.483 29.511 20.483 29.511C20.483 29.511 20.483 29.511 20.483 29.511C20.483 29.511 20.483 29.511 20.483 29.511C20.483 29.511 20.483 29.511 20.483 29.511C20.483 29.511 20.483 29.511 20.483 29.511C20.483 29.511 20.483 29.511 20.483 29.511C20.483 29.511 20.483 29.511 20.483 29.511C20.483 29.511 20.483 29.511 20.483 29.511C20.483 29.511 20.483 29.511 20.483 29.511C20.483 29.511 20.483 29.511 20.483 29.511C20.483 29.511 20.483 29.511 20.483 29.511C20.483 29.511 20.483 29.511 20.483 29.511C20.483 29.511 20.483 29.511 20.483 29.511C20.483 29.511 20.483 29.511 20.483 29.511C20.483 29.511 20.483 29.511 20.483 29.511C20.483 29.511 20.483 28.1776 20.483 26.8443C20.483 26.8443 20.483 26.8443 20.483 26.8443C20.483 26.8443 20.483 26.8443 20.483 26.8443C20.483 26.8443 20.483 26.8443 20.483 26.8443C20.483 26.8443 20.483 26.8443 20.483 26.8443C20.483 26.8443 20.483 26.8443 20.483 26.8443C20.483 26.8443 20.483 26.8443 20.483 26.8443C20.483 26.8443 20.483 26.8443 20.483 26.8443C20.483 26.8443 20.483 26.8443 20.483 26.8443C20.483 26.8443 20.483 26.8443 20.483 26.8443C20.483 26.8443 20.483 26.8443 20.483 26.8443C20.483 26.8443 20.483 26.8443 20.483 26.8443C20.483 26.8443 20.483 26.8443 20.483 26.8443C20.483 26.8443 20.483 26.8443 20.483 26.8443C20.483 26.8443 20.483 26.8443 20.483 26.8443C20.483 26.8443 20.483 26.8443 20.483 26.8443C20.483 26.8443 20.483 26.8443 20.483 26.8443C20.483 26.8443 20.483 26.8443 20.483 26.8443C20.483 26.8443 20.483 26.8443 20.483 26.8443C20.483 26.8443 20.483 26.8443 20.483 26.8443C20.483 26.8443 20.483 26.8443 20.483 26.8443C20.483 26.8443 20.483 26.8443 20.483 26.8443C20.483 26.8443 20.483 26.8443 20.483 26.8443C20.483 26.8443 20.483 26.8443 20.483 26.8443C20.483 26.8443 20.483 26.8443 20.483 26.8443C20.483 26.8443 20.483 26.8443 20.483 26.8443C20.483 26.8443 20.483 26.8443 20.483 26.8443C20.483 26.8443 20.483 26.8443 20.483 26.8443C20.483 26.8443 20.483 26.8443 20.483 26.8443C20.483 26.8443 20.483 26.8443 20.483 26.8443C20.483 26.8443 20.483 26.8443 20.483 26.8443C20.483 26.8443 20.483 26.8443 20.483 26.8443C20.483 26.8443 20.483 26.8443 20.483 26.8443C20.483 26.8443 20.483 26.8443 20.483 26.8443C20.483 26.8443 20.483 26.8443 20.483 26.8443C20.483 26.8443 20.483 26.8443 20.483 26.8443C20.483 26.8443 20.483 26.8443 20.483 26.8443C20.483 26.8443 20.483 26.8443 20.483 26.8443C20.483 26.8443 20.483 26.8443 20.483 26.8443C20.483 26.8443 20.483 26.8443 20.483 26.8443C20.483 26.8443 20.483 26.8443 20.483 26.8443C20.483 26.8443 20.483 26.8443 20.483 26.8443C20.483 26.8443 20.483 26.8443 20.483 26.8443C20.483 26.8443 20.483 26.8443 20.483 26.8443C20.483 26.8443 20.483 26.8443 20.483 26.8443C20.483 26.8443 20.483 26.8443 20.483 26.8443C20.483 26.8443 20.483 26.8443 20.483 26.8443C20.483 26.8443 20.483 26.8443 20.483 26.8443C20.483 26.8443 20.483 26.8443 20.483 26.8443C20.483 26.8443 20.483 26.8443 20.483 26.8443C20.483 26.8443 20.483 26.8443 20.483 26.8443C20.483 26.8443 20.483 26.8443 20.483 26.8443C20.483 26.8443 20.483 26.8443 20.483 26.8443C20.483 26.8443 20.483 26.8443 20.483 26.8443C20.483 26.8443 20.483 26.8443 20.483 26.8443C20.483 26.8443 20.483 26.8443 20.483 26.8443C20.483 26.8443 20.483 26.8443 20.483 26.8443C20.483 26.8443 20.483 26.8443 20.483 26.8443C20.483 26.8443 20.483 26.8443 20.483 26.8443C20.483 26.8443 20.483 26.8443 20.483 26.8443C20.483 26.8443 20.483 26.8443 20.483 26.8443C20.483 26.8443 20.483 26.8443 20.483 26.8443C20.483 26.8443 20.483 26.8443 20.483 26.8443C20.483 26.8443 20.483 26.8443 20.483 26.8443C20.483 26.8443 20.483 26.8443 20.483 26.8443C20.483 26.8443 20.483 26.8443 20.483 26.8443C20.483 26.8443 20.483 26.8443 20.483 26.8443C20.483 26.8443 20.483 26.8443 20.483 26.8443C20.483 26.8443 20.483 26.8443 20.483 26.8443C20.483 26.8443 20.483 26.8443 20.483 26.8443C20.483 26.8443 20.483 26.8443 20.4831 26.8443C20.4831 26.8443 20.4831 26.8443 20.4831 26.8443C20.4831 26.8443 20.4831 26.8443 20.4831 26.8443C20.4831 26.8443 20.4831 26.8443 20.4831 26.8443C20.4831 26.8443 20.4831 26.8443 20.4831 26.8443C20.4831 26.8443 20.4831 26.8443 20.4831 26.8443C20.4831 26.8443 20.4831 26.8443 20.4831 26.8443C20.4831 26.8443 20.4831 26.8443 20.4831 26.8443C20.4831 26.8443 20.4831 26.8443 20.4831 26.8443C20.4831 26.8443 20.4831 26.8443 20.4831 26.8443C20.4831 26.8443 20.4831 26.8443 20.4831 26.8443C20.4831 26.8443 20.4831 26.8443 20.4831 26.8443C20.4831 26.8443 20.4831 26.8443 20.4831 26.8443C20.4831 26.8443 20.4831 26.8443 20.4831 26.8443C20.4831 26.8443 20.4831 26.8443 20.4831 26.8443C20.4831 26.8443 20.4831 26.8443 20.4831 26.8443C20.4831 26.8443 20.4831 26.8443 20.4831 26.8443C20.4831 26.8443 20.4831 26.8443 20.4831 26.8443C20.4831 26.8443 20.4831 26.8443 20.4831 26.8443C20.4831 26.8443 20.4831 26.8443 20.4831 26.8443C20.4831 26.8443 20.4831 26.8443 20.4831 26.8443C20.4831 26.8443 20.4831 26.8443 20.4831 26.8443C20.4831 26.8443 20.4831 26.8443 20.4831 26.8443C20.4831 26.8443 20.4831 26.8443 20.4831 26.8443C20.4831 26.8443 20.4831 26.8443 20.4831 26.8443C20.4831 26.8443 20.4831 26.8443 20.4831 26.8443C20.4831 26.8443 20.4831 26.8443 20.4831 26.8443C20.4831 26.8443 20.4831 26.8443 20.4831 26.8443C20.4831 26.8443 20.4831 26.8443 20.4831 26.8443C20.4831 26.8443 20.4831 26.8443 20.4831 26.8443C20.4831 26.8443 20.4831 26.8443 20.4831 26.8443C20.4831 26.8443 20.4831 26.8443 20.4831 26.8443C20.4831 26.8443 20.4831 26.8443 20.4831 26.8443C20.4831 26.8443 20.4831 26.8443 20.4831 26.8443C20.4831 26.8443 20.4831 26.8443 20.4831 26.8443C20.4831 26.8443 20.4831 26.8443 20.4831 26.8443C20.4831 26.8443 20.4831 26.8443 20.4831 26.8443C20.4831 26.8443 20.4831 26.8443 20.4831 26.8443C20.4831 26.8443 20.4831 26.8443 20.4831 26.8443V29.511ZM21.169 29.321L16.8111 31.9352L15.4394 29.6485L19.7972 27.0342L21.169 29.321ZM16.8126 31.9344C16.0018 32.4221 14.9503 32.1588 14.4649 31.3476L16.7532 29.9783C16.4812 29.5239 15.8915 29.3764 15.4379 29.6493L16.8126 31.9344ZM14.466 31.3494C13.9792 30.5388 14.2436 29.4895 15.0508 29.0041L16.425 31.2894C16.8765 31.0179 17.025 30.4309 16.7521 29.9765L14.466 31.3494ZM15.052 29.0034L19.4094 26.3894L20.7812 28.6762L16.4238 31.2901L15.052 29.0034ZM19.4088 26.3898C19.2603 26.479 19.1481 26.6276 19.1046 26.8014L21.6915 27.449C21.5622 27.9654 21.2347 28.4038 20.7818 28.6758L19.4088 26.3898ZM19.1047 26.8011C19.0568 26.9921 19.0982 27.1939 19.2018 27.3433L21.3936 25.8244C21.7205 26.2961 21.8335 26.8823 21.6914 27.4494L19.1047 26.8011ZM19.2009 27.342C19.3302 27.529 19.5081 27.6126 19.6458 27.6373C19.7838 27.6622 19.9316 27.6395 20.0625 27.5608L18.689 25.2751C19.5327 24.7681 20.7539 24.8991 21.3944 25.8256L19.2009 27.342ZM20.0617 27.5613L13.3995 31.558L12.0277 29.2713L18.6899 25.2746L20.0617 27.5613ZM13.3977 31.5591C12.7365 31.9543 11.8896 31.8595 11.3326 31.3219L13.1847 29.4033C12.8723 29.1018 12.399 29.0493 12.0295 29.2702L13.3977 31.5591ZM11.3326 31.3218C10.7752 30.7837 10.6502 29.9389 11.0251 29.263L13.357 30.5565C13.567 30.1779 13.4971 29.7049 13.1847 29.4033L11.3326 31.3218ZM11.0253 29.2627L12.4106 26.7668L14.7422 28.0609L13.3569 30.5568L11.0253 29.2627ZM12.4116 26.7649C12.3167 26.9354 12.3231 27.1362 12.4186 27.2953L14.7051 25.923C15.097 26.576 15.1141 27.3933 14.7411 28.0628L12.4116 26.7649Z" fill="#4CAF4F" mask="url(#path-2-inside-1_16_1455)"/>
<path d="M27.8527 28.0933C27.7587 28.035 27.6732 27.966 27.5976 27.888L26.8782 27.5117L26.8782 27.5116L26.8381 27.4907C26.7243 27.4311 26.6083 27.4029 26.4965 27.4026L27.8527 28.0933ZM26.1717 26.862C26.1718 26.862 26.1719 26.8619 26.1721 26.8619L26.2275 27.0842L26.2275 27.0842L26.3126 27.4256L26.3125 27.4256L26.1717 26.862ZM30.3872 33.7857C30.387 33.7856 30.3869 33.7855 30.3867 33.7854L30.3872 33.7857ZM25.845 30.1872L25.8464 30.188L25.845 30.1872Z" fill="#4CAF4F" stroke="#4CAF4F" stroke-width="1.33333"/>
</g>
<defs>
<filter id="filter0_d_16_1455" x="-4" y="0" width="56" height="56" filterUnits="userSpaceOnUse" color-interpolation-filters="sRGB">
<feFlood flood-opacity="0" result="BackgroundImageFix"/>
<feColorMatrix in="SourceAlpha" type="matrix" values="0 0 0 0 0 0 0 0 0 0 0 0 0 0 0 0 0 0 127 0" result="hardAlpha"/>
<feOffset dy="4"/>
<feGaussianBlur stdDeviation="2"/>
<feComposite in2="hardAlpha" operator="out"/>
<feColorMatrix type="matrix" values="0 0 0 0 0 0 0 0 0 0 0 0 0 0 0 0 0 0 0.25 0"/>
<feBlend mode="normal" in2="BackgroundImageFix" result="effect1_dropShadow_16_1455"/>
<feBlend mode="normal" in="SourceGraphic" in2="effect1_dropShadow_16_1455" result="shape"/>
</filter>
</defs>
</svg>
