<svg width="40" height="33" viewBox="0 0 40 33" fill="none" xmlns="http://www.w3.org/2000/svg">
<g filter="url(#filter0_d_341_59)">
<path opacity="0.1" fill-rule="evenodd" clip-rule="evenodd" d="M4 16.6718C4 7.8352 11.1634 0.671753 20 0.671753C28.8366 0.671753 36 7.8352 36 16.6718C36 25.5083 28.8366 32.6718 20 32.6718C11.1634 32.6718 4 25.5083 4 16.6718Z" fill="white"/>
<path fill-rule="evenodd" clip-rule="evenodd" d="M28.5333 16.6599C28.5333 17.237 28.4746 17.8133 28.3592 18.3751C28.2467 18.9235 28.08 19.4619 27.8617 19.9766C27.6483 20.4822 27.3837 20.9694 27.0745 21.4237C26.77 21.8752 26.4191 22.2988 26.0337 22.6849C25.6474 23.0693 25.2224 23.4192 24.7711 23.7251C24.3152 24.0322 23.8273 24.2964 23.3215 24.5107C22.806 24.7279 22.2664 24.8943 21.7184 25.0066C21.1559 25.1223 20.5776 25.1814 19.9996 25.1814C19.4213 25.1814 18.8429 25.1223 18.2812 25.0066C17.7324 24.8943 17.1928 24.7279 16.6778 24.5107C16.1719 24.2964 15.6836 24.0322 15.2277 23.7251C14.7764 23.4193 14.3514 23.0693 13.966 22.6849C13.5801 22.2988 13.2293 21.8752 12.9243 21.4237C12.6167 20.9694 12.3517 20.4821 12.1376 19.9766C11.9192 19.4619 11.7521 18.9234 11.6392 18.3751C11.525 17.8133 11.4667 17.237 11.4667 16.6599C11.4667 16.0824 11.525 15.5049 11.6392 14.9444C11.7521 14.396 11.9192 13.8567 12.1376 13.3429C12.3518 12.8369 12.6168 12.3493 12.9243 11.8949C13.2293 11.443 13.5802 11.0203 13.966 10.6337C14.3515 10.2492 14.7765 9.90015 15.2278 9.59475C15.6836 9.28641 16.172 9.02223 16.6778 8.8075C17.1929 8.58985 17.7324 8.42302 18.2812 8.31153C18.8429 8.19669 19.4213 8.13843 19.9997 8.13843C20.5776 8.13843 21.1559 8.19669 21.7185 8.31153C22.2664 8.42305 22.806 8.58988 23.3215 8.8075C23.8273 9.02219 24.3153 9.28641 24.7711 9.59475C25.2224 9.90015 25.6475 10.2492 26.0337 10.6337C26.4191 11.0203 26.77 11.443 27.0746 11.8949C27.3837 12.3493 27.6483 12.8369 27.8617 13.3429C28.08 13.8567 28.2467 14.396 28.3592 14.9444C28.4746 15.5049 28.5333 16.0824 28.5333 16.6599ZM16.8903 10.0778C14.8581 11.0361 13.3413 12.906 12.8684 15.1595C13.0605 15.1612 16.0973 15.1995 19.5962 14.2711C18.3349 12.0334 16.9874 10.2072 16.8903 10.0778ZM20.2 15.3917C16.4477 16.5134 12.8471 16.4327 12.718 16.4278C12.7159 16.506 12.7121 16.5817 12.7121 16.6599C12.7121 18.5294 13.4184 20.2337 14.5793 21.5223C14.5768 21.5186 16.5711 17.9856 20.5038 16.7157C20.5988 16.6841 20.6955 16.6558 20.7913 16.6283C20.6084 16.2147 20.4087 15.8003 20.2 15.3917ZM24.8124 11.1983C23.5293 10.0686 21.8447 9.38339 19.9996 9.38339C19.4075 9.38339 18.8329 9.45496 18.2824 9.58727C18.3916 9.73375 19.7604 11.547 21.0067 13.8322C23.7565 12.8028 24.7944 11.225 24.8124 11.1983ZM21.288 17.8341C21.2718 17.8395 21.2556 17.8441 21.2397 17.8499C16.94 19.3467 15.5358 22.3632 15.5206 22.3961C16.7578 23.3568 18.3096 23.9365 19.9996 23.9365C21.0088 23.9365 21.9701 23.7313 22.8448 23.3598C22.7368 22.724 22.3135 20.4954 21.288 17.8341ZM24.0719 22.6949C25.7082 21.5922 26.8703 19.8414 27.1945 17.8133C27.0445 17.765 25.0057 17.1205 22.6535 17.4971C23.6093 20.1201 23.9977 22.2563 24.0719 22.6949ZM21.5676 14.9165C21.7368 15.2635 21.9006 15.6167 22.0518 15.9717C22.1056 16.099 22.1581 16.2239 22.2093 16.3487C24.7128 16.0341 27.1792 16.5634 27.2846 16.585C27.2679 14.8599 26.65 13.2767 25.6275 12.0372C25.6137 12.0567 24.4449 13.7431 21.5676 14.9165Z" fill="white"/>
</g>
<defs>
<filter id="filter0_d_341_59" x="0" y="0.671753" width="40" height="40" filterUnits="userSpaceOnUse" color-interpolation-filters="sRGB">
<feFlood flood-opacity="0" result="BackgroundImageFix"/>
<feColorMatrix in="SourceAlpha" type="matrix" values="0 0 0 0 0 0 0 0 0 0 0 0 0 0 0 0 0 0 127 0" result="hardAlpha"/>
<feOffset dy="4"/>
<feGaussianBlur stdDeviation="2"/>
<feComposite in2="hardAlpha" operator="out"/>
<feColorMatrix type="matrix" values="0 0 0 0 0 0 0 0 0 0 0 0 0 0 0 0 0 0 0.25 0"/>
<feBlend mode="normal" in2="BackgroundImageFix" result="effect1_dropShadow_341_59"/>
<feBlend mode="normal" in="SourceGraphic" in2="effect1_dropShadow_341_59" result="shape"/>
</filter>
</defs>
</svg>
