<svg width="46" height="40" viewBox="0 0 46 40" fill="none" xmlns="http://www.w3.org/2000/svg">
<path d="M45.9187 26.8834C45.9187 33.8031 40.3092 39.4126 33.3894 39.4126L14.5956 39.4126C12.6734 39.4126 11.1152 37.8544 11.1152 35.9322L11.1152 12.2659C11.1152 8.4216 14.2316 5.30519 18.0759 5.30519L42.4384 5.30519C44.3605 5.30519 45.9187 6.8634 45.9187 8.78554L45.9187 26.8834Z" fill="#E8F5E9"/>
<path d="M17.3728 7.39343C14.8869 7.39343 12.8632 9.43562 12.8632 11.932C12.8632 13.5113 13.6742 14.9057 14.8988 15.7185C13.4197 16.2131 12.1399 17.1374 11.2013 18.3466C10.6823 17.9474 10.1024 17.6263 9.47729 17.3963C10.4252 16.6925 11.0447 15.5621 11.0447 14.2915C11.0447 12.1742 9.33233 10.441 7.22789 10.441C5.12346 10.441 3.41107 12.1742 3.41107 14.2915C3.41107 15.5628 4.03106 16.6938 4.97981 17.3976C2.46799 18.3244 0.674072 20.7512 0.674072 23.6072V25.6133C0.674329 25.7663 0.735505 25.9128 0.843975 26.0205C0.952444 26.1285 1.09922 26.1886 1.25216 26.1881H10.0539C10.0753 26.1904 10.0966 26.1917 10.1179 26.1914H24.6281C24.6494 26.1917 24.671 26.1904 24.6921 26.1881H33.4945C33.8109 26.1868 34.0672 25.93 34.068 25.6133V23.6072C34.068 20.7512 32.2772 18.3244 29.7667 17.3973C30.7154 16.6938 31.3354 15.5625 31.3354 14.2912C31.3354 12.1739 29.623 10.4407 27.5186 10.4407C25.4142 10.4407 23.7017 12.1739 23.7017 14.2912C23.7017 15.5618 24.3215 16.6925 25.2694 17.396C24.643 17.6266 24.0629 17.9487 23.5432 18.3489C22.605 17.1389 21.3269 16.2134 19.8479 15.7185C21.0722 14.9057 21.8835 13.5113 21.8835 11.932C21.8835 9.43562 19.8587 7.39343 17.3729 7.39343H17.3728ZM17.3728 8.54498C19.232 8.54498 20.7307 10.0538 20.7307 11.932C20.7307 13.7956 19.2553 15.2898 17.4167 15.3137C17.4021 15.3137 17.3877 15.3117 17.3728 15.3117C17.3579 15.3117 17.3437 15.3137 17.3288 15.3137C15.4902 15.2901 14.0158 13.7956 14.0158 11.932C14.0158 10.0536 15.5133 8.54498 17.3725 8.54498H17.3728ZM7.22796 11.5924C8.70312 11.5924 9.89323 12.7897 9.89323 14.2914C9.89323 15.783 8.71852 16.9752 7.25724 16.9914C7.24747 16.9914 7.23796 16.9903 7.22794 16.9903C7.21817 16.9903 7.20866 16.9914 7.19864 16.9914C5.73735 16.9752 4.56264 15.7828 4.56264 14.2914C4.56264 12.7898 5.75275 11.5924 7.22792 11.5924H7.22796ZM27.5182 11.5924C28.9934 11.5924 30.1835 12.7897 30.1835 14.2914C30.1835 15.783 29.0088 16.9752 27.5475 16.9914C27.5377 16.9914 27.5282 16.9903 27.5182 16.9903C27.5084 16.9903 27.4989 16.9914 27.4889 16.9914C26.0276 16.9752 24.8529 15.7828 24.8529 14.2914C24.8529 12.7898 26.043 11.5924 27.5182 11.5924H27.5182ZM17.3287 16.4652C17.3433 16.4655 17.3577 16.4672 17.3726 16.4672C17.3873 16.4672 17.4017 16.4652 17.4166 16.4652C21.1038 16.4888 24.0548 19.4651 24.0548 23.1909L24.0545 25.0396H10.6913V23.1909C10.6913 19.4648 13.6414 16.4889 17.3282 16.4652H17.3287ZM7.18387 18.1442C7.19852 18.1445 7.21292 18.1463 7.22782 18.1463C7.24273 18.1463 7.25687 18.1442 7.27178 18.1442C8.51894 18.1542 9.65713 18.5843 10.5634 19.3037C9.91491 20.4512 9.53987 21.7757 9.53987 23.1912V25.0355H1.82516V23.6071C1.82516 20.5791 4.2059 18.1678 7.18373 18.144L7.18387 18.1442ZM27.4741 18.1442C27.489 18.1445 27.5032 18.1463 27.5181 18.1463C27.533 18.1463 27.5471 18.1442 27.562 18.1442C30.5399 18.1679 32.9206 20.5794 32.9206 23.6074V25.0355H25.202L25.2017 23.1912C25.2017 21.7765 24.8277 20.453 24.1805 19.3058C25.087 18.5853 26.226 18.1542 27.4742 18.1442H27.4741Z" fill="#103E13"/>
</svg>
