<svg width="46" height="40" viewBox="0 0 46 40" fill="none" xmlns="http://www.w3.org/2000/svg">
<path d="M45.6658 26.8834C45.6658 33.8031 40.0562 39.4126 33.1365 39.4126L14.3426 39.4126C12.4205 39.4126 10.8623 37.8544 10.8623 35.9322L10.8623 12.2659C10.8623 8.4216 13.9787 5.30519 17.823 5.30519L42.1854 5.30519C44.1076 5.30519 45.6658 6.8634 45.6658 8.78554L45.6658 26.8834Z" fill="#E8F5E9"/>
<path d="M20.128 16.891C19.9604 16.891 19.8048 16.8449 19.6666 16.7708V16.7728C19.6666 17.0365 19.5641 17.2841 19.3781 17.4696C19.1921 17.6556 18.9447 17.7581 18.6813 17.7581C18.5112 17.7581 18.3536 17.7108 18.2139 17.6347C18.1998 17.876 18.1034 18.1015 17.9313 18.2737C17.7454 18.4596 17.4979 18.5621 17.2343 18.5621C16.7107 18.5621 16.2855 18.1505 16.2548 17.6346C16.0928 17.7222 15.9096 17.7681 15.7207 17.7559C15.2056 17.7222 14.8022 17.2771 14.8022 16.7424V12.3108L14.2975 13.1851C14.1053 13.5194 13.7456 13.727 13.3582 13.727C13.1694 13.727 12.983 13.6775 12.8178 13.5829C12.6122 13.4637 12.4651 13.2723 12.4039 13.0433C12.3424 12.8142 12.3742 12.5746 12.4931 12.3693C12.4933 12.3693 14.1442 9.51042 14.2449 9.33481C14.2569 9.3084 14.291 9.23182 14.32 9.16655C14.3477 9.10423 14.3715 9.04028 14.3943 8.97599C14.8922 7.57043 16.1249 6.69733 17.6117 6.69733C19.5424 6.69733 21.1131 8.40054 21.1131 10.4941L21.1132 15.9056C21.1132 16.169 21.0109 16.4164 20.8251 16.6026C20.6391 16.7886 20.3917 16.891 20.128 16.891L20.128 16.891ZM17.6117 7.22087C16.3342 7.22087 15.316 7.94246 14.8878 9.15108C14.8604 9.22783 14.8319 9.30458 14.7986 9.37936C14.702 9.596 14.702 9.596 14.6748 9.62715L14.6712 9.62404C14.5364 9.87839 14.1359 10.5719 12.9464 12.6313C12.8976 12.7158 12.8846 12.8139 12.9095 12.9077C12.9348 13.0015 12.9953 13.0805 13.0791 13.1289C13.3392 13.2783 13.6954 13.1819 13.8436 12.9236L14.8373 11.2033C14.8966 11.1008 15.0167 11.0504 15.1318 11.0816C15.2463 11.1123 15.3258 11.2161 15.3258 11.3345V16.7426C15.3258 16.9978 15.5183 17.218 15.755 17.2336C15.8914 17.2408 16.0187 17.195 16.1143 17.0996C16.2012 17.0127 16.2491 16.8969 16.2491 16.7731V13.2361C16.2491 13.0915 16.3664 12.9742 16.511 12.9742C16.6556 12.9742 16.7729 13.0913 16.7729 13.2361L16.7727 17.577C16.7727 17.8316 16.9799 18.0387 17.2344 18.0387C17.358 18.0387 17.4741 17.9908 17.5612 17.9039C17.6481 17.8168 17.696 17.7007 17.696 17.577V13.2361C17.696 13.0915 17.8131 12.9742 17.9579 12.9742C18.1025 12.9742 18.2198 13.0913 18.2198 13.2361L18.2196 16.7324V16.7731C18.2196 17.0274 18.4268 17.2345 18.6814 17.2345C18.8049 17.2345 18.9207 17.1865 19.0083 17.0992C19.0952 17.0125 19.1431 16.8967 19.1431 16.7729V13.2359C19.1431 13.0913 19.2602 12.974 19.405 12.974C19.5496 12.974 19.6669 13.0911 19.6669 13.2359L19.6665 15.9057C19.6665 16.1604 19.8737 16.3675 20.128 16.3675C20.2518 16.3675 20.3676 16.3195 20.4545 16.2327C20.5418 16.1455 20.5895 16.0294 20.5895 15.9057L20.5896 10.4942C20.5896 8.6895 19.2538 7.22093 17.6117 7.22093L17.6117 7.22087Z" fill="#103E13"/>
<path d="M9.83834 20.6522L13.6387 18.3724C14.0969 18.0972 14.6864 18.2141 14.9803 18.6387C15.0876 18.7933 15.1423 18.9736 15.1509 19.1571C15.2925 19.0831 15.4467 19.0429 15.6036 19.0429C15.684 19.0429 15.7647 19.0529 15.8444 19.0728C16.0997 19.1366 16.3149 19.2961 16.4502 19.5218C16.5856 19.7478 16.6252 20.0126 16.5614 20.2676C16.5025 20.5036 16.359 20.7022 16.1594 20.8385C16.299 20.9208 16.4193 21.0332 16.505 21.1762C16.6404 21.4021 16.6799 21.6669 16.6163 21.9222C16.5525 22.1772 16.3929 22.3923 16.167 22.528L16.1657 22.5288C16.3028 22.611 16.421 22.7222 16.5056 22.863C16.6412 23.089 16.6808 23.3538 16.617 23.6092C16.553 23.8643 16.3934 24.0795 16.1678 24.215L11.5275 26.9988C10.6615 27.5181 9.66028 27.6974 8.7088 27.5031C7.7488 27.3069 6.95374 26.7551 6.47032 25.9492C5.70528 24.6742 5.81993 23.1677 6.76895 22.018C6.81241 21.9655 6.85521 21.912 6.89408 21.8566C6.93524 21.7981 6.98329 21.7292 6.99969 21.7056C7.09792 21.5301 8.7008 18.6422 8.70063 18.6425C8.86249 18.3504 9.16588 18.1851 9.47877 18.1853C9.62472 18.1853 9.77281 18.2212 9.90942 18.297C10.0744 18.3891 10.213 18.5234 10.3099 18.6853C10.5091 19.0174 10.5162 19.433 10.3286 19.7693L9.83834 20.6522ZM9.86114 18.9545C9.8103 18.8697 9.74044 18.8022 9.655 18.7543C9.47838 18.6565 9.25601 18.7202 9.15877 18.8961C8.01182 20.9625 7.62084 21.6666 7.46996 21.9172L7.4734 21.918C7.46077 21.96 7.46077 21.96 7.32269 22.1573C7.27579 22.224 7.22479 22.2882 7.17281 22.3513C6.35676 23.34 6.262 24.5842 6.91911 25.6798C7.32614 26.3584 7.99884 26.8237 8.81338 26.99C9.63678 27.1574 10.5046 27.0016 11.2579 26.5497L15.8986 23.7658C16.0045 23.7023 16.0793 23.6014 16.1091 23.4819C16.139 23.3625 16.1205 23.2384 16.0568 23.1324C15.926 22.9143 15.6418 22.8426 15.4236 22.974L13.1343 24.3475C13.0103 24.4219 12.8493 24.3819 12.775 24.2577C12.7006 24.1338 12.7407 23.9729 12.8647 23.8984L15.1542 22.525L15.8978 22.0789C16.0037 22.0153 16.0786 21.9145 16.1085 21.7952C16.1383 21.6757 16.1198 21.5514 16.0562 21.4456C15.9251 21.2273 15.6409 21.1563 15.423 21.2872L12.39 23.1067C12.2657 23.1813 12.1051 23.141 12.0307 23.017C11.9562 22.893 11.9965 22.7321 12.1204 22.6577L15.8428 20.4246C15.9488 20.361 16.0235 20.2603 16.0534 20.1407C16.0832 20.0213 16.0647 19.8972 16.0012 19.7913C15.9378 19.6855 15.8369 19.6107 15.7174 19.5809C15.5972 19.551 15.4735 19.5696 15.3679 19.6329L14.6788 20.0463C14.6786 20.0463 14.6786 20.0464 14.6785 20.0464H14.6783L11.6454 21.866C11.5211 21.9407 11.3604 21.9004 11.2861 21.7762C11.2117 21.6523 11.252 21.4914 11.3758 21.4169L14.4089 19.5974C14.5148 19.5338 14.5898 19.433 14.6196 19.3137C14.6524 19.1829 14.6275 19.049 14.5497 18.9369C14.4149 18.7419 14.1266 18.6901 13.908 18.8214L9.27071 21.6034C9.16919 21.6641 9.03915 21.6493 8.95404 21.5672C8.86876 21.4848 8.84957 21.3554 8.90697 21.252L9.87126 19.5146C9.96801 19.341 9.96424 19.1265 9.86109 18.9546L9.86114 18.9545Z" fill="#103E13"/>
<path d="M27.998 25.9491C27.5147 26.7551 26.7199 27.3068 25.7597 27.5029C24.8081 27.697 23.8072 27.518 22.941 26.9987L18.3003 24.2147C18.0745 24.0793 17.9148 23.8641 17.8508 23.6086C17.7873 23.3536 17.827 23.0887 17.9623 22.8631C18.0468 22.7221 18.1652 22.6109 18.3024 22.5287L18.3011 22.5279C18.0753 22.3924 17.9156 22.1773 17.852 21.9221C17.788 21.6669 17.8277 21.4019 17.9631 21.1759C18.0504 21.0308 18.1699 20.9173 18.3064 20.8368C18.1083 20.7005 17.9656 20.5026 17.9069 20.2677C17.8429 20.0124 17.8826 19.7475 18.0181 19.5219C18.1534 19.2961 18.3687 19.1365 18.6239 19.0727C18.7036 19.0527 18.7844 19.0429 18.8645 19.0429C19.0216 19.043 19.1757 19.0829 19.3174 19.157C19.3261 18.9735 19.3807 18.7933 19.488 18.6386C19.782 18.2144 20.371 18.097 20.8299 18.3723L24.6301 20.6518L24.1403 19.7695C23.9523 19.4327 23.9592 19.0171 24.1585 18.6848C24.2556 18.5231 24.3943 18.3888 24.5601 18.2959C24.6964 18.2204 24.844 18.1847 24.9896 18.1847C25.3023 18.1848 25.606 18.3498 25.7677 18.6419C26.3312 19.6572 27.3945 21.572 27.4693 21.7056C27.4852 21.7288 27.5332 21.7976 27.5744 21.8562C27.6136 21.9118 27.6559 21.9649 27.6997 22.0177C28.6486 23.1679 28.763 24.6742 27.998 25.9491L27.998 25.9491ZM27.2957 22.3515C27.2435 22.2883 27.1924 22.2239 27.1458 22.1574C27.0041 21.9564 27.0005 21.9511 26.9898 21.8985C26.8242 21.6245 26.4201 20.897 25.3094 18.8959C25.212 18.7203 24.9906 18.6562 24.8143 18.7536C24.7276 18.8021 24.6579 18.8699 24.607 18.9547C24.504 19.1264 24.5001 19.3409 24.5974 19.515L25.5613 21.2519C25.6189 21.3555 25.5997 21.4847 25.5146 21.5671C25.4296 21.6496 25.2997 21.664 25.1977 21.6033L20.5604 18.8213C20.3418 18.6903 20.0537 18.7416 19.9185 18.9368C19.8408 19.0489 19.816 19.1828 19.8485 19.3135C19.8784 19.4329 19.9533 19.5335 20.0594 19.5972C20.0597 19.5973 20.0599 19.5977 20.0602 19.5978L23.0923 21.4168C23.2163 21.4913 23.2564 21.652 23.182 21.7761C23.1075 21.9 22.947 21.9405 22.8227 21.8658L19.1002 19.6328C18.9946 19.5695 18.8703 19.5508 18.7509 19.5808C18.6312 19.6106 18.5305 19.6854 18.467 19.7915C18.4034 19.8973 18.385 20.0214 18.4146 20.1408C18.4444 20.2602 18.5194 20.3611 18.6253 20.4247L19.3497 20.8591L22.3476 22.6578C22.4716 22.7323 22.5118 22.893 22.4373 23.0171C22.3628 23.1409 22.2023 23.1813 22.078 23.1068L19.0453 21.2873C18.8272 21.1561 18.5431 21.2273 18.4119 21.4457C18.3483 21.5517 18.33 21.6758 18.3595 21.7952C18.3893 21.9146 18.4643 22.0153 18.5704 22.0791L19.3139 22.5251L21.6031 23.8986C21.727 23.973 21.7672 24.1337 21.6928 24.2579C21.6183 24.3817 21.4578 24.4224 21.3335 24.3476L19.0443 22.9741C18.9387 22.9108 18.8149 22.8921 18.6948 22.9221C18.5754 22.952 18.4744 23.0268 18.411 23.1325C18.3475 23.2385 18.329 23.3628 18.3585 23.482C18.3883 23.6014 18.4633 23.7021 18.5694 23.7659L23.2101 26.5498C23.9632 27.0016 24.8316 27.158 25.6546 26.9901C26.4689 26.8238 27.1417 26.3586 27.5487 25.68C28.2064 24.5842 28.1118 23.3398 27.296 22.3514L27.2957 22.3515Z" fill="#103E13"/>
</svg>
