<svg width="48" height="48" viewBox="0 0 48 48" fill="none" xmlns="http://www.w3.org/2000/svg">
<path fill-rule="evenodd" clip-rule="evenodd" d="M9 11.1684C9 11.1107 9.0023 11.053 9.00691 10.9998L21.9681 23.9988L9.00691 37.0002C9.00237 36.9441 9.00007 36.8878 9 36.8316V11.1684ZM11.8961 39C12.1263 38.9561 12.3565 38.8776 12.5822 38.7645L28.566 30.6196L24.4083 26.449L11.8961 39ZM26.8509 23.9988L31.8052 28.9684L37.7586 25.934C39.4138 25.0911 39.4138 22.9089 37.7586 22.066L31.8029 19.0316L26.8509 23.9988ZM28.566 17.3804L12.5822 9.23555C12.3657 9.12506 12.1347 9.04577 11.8961 9L24.4083 21.5487L28.566 17.3804Z" fill="white"/>
</svg>
