<svg width="36" height="33" viewBox="0 0 36 33" fill="none" xmlns="http://www.w3.org/2000/svg">
<g filter="url(#filter0_d_302_843)">
<path opacity="0.1" fill-rule="evenodd" clip-rule="evenodd" d="M4 16.6718C4 7.8352 11.1634 0.671753 20 0.671753C28.8366 0.671753 36 7.8352 36 16.6718C36 25.5083 28.8366 32.6718 20 32.6718C11.1634 32.6718 4 25.5083 4 16.6718Z" fill="white"/>
<path fill-rule="evenodd" clip-rule="evenodd" d="M26.6677 11.1714C27.4021 11.3729 27.9804 11.9667 28.1767 12.7207C28.5333 14.0872 28.5333 16.9385 28.5333 16.9385C28.5333 16.9385 28.5333 19.7897 28.1767 21.1564C27.9804 21.9104 27.4021 22.5041 26.6677 22.7057C25.3369 23.0718 20 23.0718 20 23.0718C20 23.0718 14.6631 23.0718 13.3322 22.7057C12.5978 22.5041 12.0195 21.9104 11.8232 21.1564C11.4667 19.7897 11.4667 16.9385 11.4667 16.9385C11.4667 16.9385 11.4667 14.0872 11.8232 12.7207C12.0195 11.9667 12.5978 11.3729 13.3322 11.1714C14.6631 10.8052 20 10.8052 20 10.8052C20 10.8052 25.3369 10.8052 26.6677 11.1714ZM18.4 14.5385V19.8718L22.6667 17.2052L18.4 14.5385Z" fill="white"/>
</g>
<defs>
<filter id="filter0_d_302_843" x="0" y="0.671753" width="40" height="40" filterUnits="userSpaceOnUse" color-interpolation-filters="sRGB">
<feFlood flood-opacity="0" result="BackgroundImageFix"/>
<feColorMatrix in="SourceAlpha" type="matrix" values="0 0 0 0 0 0 0 0 0 0 0 0 0 0 0 0 0 0 127 0" result="hardAlpha"/>
<feOffset dy="4"/>
<feGaussianBlur stdDeviation="2"/>
<feComposite in2="hardAlpha" operator="out"/>
<feColorMatrix type="matrix" values="0 0 0 0 0 0 0 0 0 0 0 0 0 0 0 0 0 0 0.25 0"/>
<feBlend mode="normal" in2="BackgroundImageFix" result="effect1_dropShadow_302_843"/>
<feBlend mode="normal" in="SourceGraphic" in2="effect1_dropShadow_302_843" result="shape"/>
</filter>
</defs>
</svg>
